{
.appVersion = "919";
copyright = "Copyright (c) 2011, Cyreal (www.cyreal.org)\012with Reserved Font Name \"Alice\" and \"Alice Regular\".\012\012This Font Software is licensed under the SIL Open Font License,\012Version 1.1. This license is available with a FAQ at:\012http://scripts.sil.org/OFL";
customParameters = (
{
name = licenseURL;
value = "http://scripts.sil.org/OFL";
},
{
name = description;
value = "Alice is designed by Ksenia Erulevich for Cyreal.\012\012This Font Software is licensed under the SIL Open Font License, Version 1.1. ";
},
{
name = trademark;
value = "Alice is a trademark of Cyreal (www.cyreal.org).";
},
{
name = license;
value = "Copyright (c) 2011, Cyreal (www.cyreal.org)\012with Reserved Font Name \"Alice\" and \"Alice Regular\".\012\012This Font Software is licensed under the SIL Open Font License,\012Version 1.1. This license is available with a FAQ at:\012http://scripts.sil.org/OFL";
},
{
name = glyphOrder;
value = (
.null,
space,
G,
H,
I,
J,
K,
L,
M,
N,
O,
P,
Q,
R,
S,
T,
U,
W,
X,
Y,
Z,
a,
b,
c,
d,
e,
f,
g,
h,
i,
j,
k,
l,
m,
n,
o,
p,
q,
r,
s,
t,
u,
v,
w,
x,
y,
z,
comma,
period,
question,
colon,
semicolon,
f_j,
f_i,
slash,
hyphen,
less,
equal,
greater,
plus,
parenright,
asterisk,
parenleft,
quotesingle,
percent,
dollar,
numbersign,
quotedbl,
exclam,
C,
B,
V,
A,
paragraph.alt,
emdash,
endash,
paragraph,
backslash,
underscore,
asciicircum,
bracketright,
bracketleft,
bar,
braceright,
degree,
sterling,
section,
bullet,
quoteright,
divide,
quoteleft,
quotedblright,
quotedblleft,
guillemotright,
guillemotleft,
copyright,
mu,
logicalnot,
Euro,
zero,
one,
two,
three,
four,
five,
six,
seven,
eight,
nine,
ampersand,
caron,
circumflex,
ring,
dieresis,
acute,
grave,
braceleft,
at,
germandbls,
ae,
currency,
thorn,
tilde,
AE,
eth,
Eth,
OE,
questiondown,
exclamdown,
onesuperior,
twosuperior,
brokenbar,
registered,
fraction,
Oslash,
Thorn,
dotlessi,
oe,
guilsinglleft,
uni00AD,
guilsinglright,
cent,
oslash,
quotedblbase,
plusminus,
yen,
multiply,

glyphs = (
{
color = 4;
glyphname = G;
lastChange = "2016-09-08 14:05:00 +0000";
layers = (
{
background = {
paths = (
{
closed = 1;
nodes = (
"590 29 LINE",
"561 15 LINE",
"509 -4 LINE",
"456 -15 LINE",
"396 -20 LINE",
"359 -20 LINE",
"296 -20 LINE",
"183 20 LINE",
"98 102 LINE",
"49 226 LINE",
"49 311 LINE",
"49 387 LINE",
"100 513 LINE",
"193 602 LINE",
"321 651 LINE",
"398 651 LINE",
"433 651 LINE",
"508 635 LINE",
"570 601 LINE",
"610 548 LINE",
"610 510 LINE",
"610 489 LINE",
"597 450 LINE",
"573 420 LINE",
"537 402 LINE",
"515 402 LINE",
"496 402 LINE",
"455 421 LINE",
"454 438 LINE",
"454 440 LINE",
"470 450 LINE",
"488 468 LINE",
"504 496 LINE",
"504 517 LINE",
"504 560 LINE",
"438 611 LINE",
"386 611 LINE",
"340 611 LINE",
"260 572 LINE",
"200 497 LINE",
"166 388 LINE",
"166 317 LINE",
"166 249 LINE",
"199 143 LINE",
"259 68 LINE",
"343 29 LINE",
"394 29 LINE",
"427 29 LINE",
"475 37 LINE",
"502 45 LINE",
"502 147 LINE",
"502 168 LINE",
"501 197 LINE",
"490 215 LINE",
"466 224 LINE",
"444 224 LINE",
"433 224 LINE",
"417 228 LINE",
"416 245 LINE",
"416 253 LINE",
"426 267 LINE",
"437 267 LINE",
"453 266 LINE",
"478 265 LINE",
"503 264 LINE",
"530 264 LINE",
"547 264 LINE",
"564 264 LINE",
"590 264 LINE",
"614 265 LINE",
"639 266 LINE",
"655 267 LINE",
"665 267 LINE",
"674 253 LINE",
"674 245 LINE",
"673 228 LINE",
"657 224 LINE",
"646 224 LINE",
"625 224 LINE",
"602 214 LINE",
"592 195 LINE",
"590 166 LINE",
"590 147 LINE"
);
}
);
};
layerId = UUID0;
paths = (
{
closed = 1;
nodes = (
"590 147 LINE SMOOTH",
"590 198 OFFCURVE",
"590 224 OFFCURVE",
"646 224 CURVE SMOOTH",
"661 224 OFFCURVE",
"673 222 OFFCURVE",
"674 245 CURVE SMOOTH",
"674 256 OFFCURVE",
"668 267 OFFCURVE",
"655 267 CURVE SMOOTH",
"613 265 OFFCURVE",
"592 264 OFFCURVE",
"547 264 CURVE",
"501 264 OFFCURVE",
"479 265 OFFCURVE",
"437 267 CURVE SMOOTH",
"423 267 OFFCURVE",
"416 256 OFFCURVE",
"416 245 CURVE SMOOTH",
"417 222 OFFCURVE",
"430 224 OFFCURVE",
"444 224 CURVE SMOOTH",
"504 224 OFFCURVE",
"502 202 OFFCURVE",
"502 147 CURVE",
"502 45 LINE",
"466 34 OFFCURVE",
"438 29 OFFCURVE",
"394 29 CURVE SMOOTH",
"257 29 OFFCURVE",
"166 137 OFFCURVE",
"166 317 CURVE SMOOTH",
"166 506 OFFCURVE",
"263 611 OFFCURVE",
"386 611 CURVE SMOOTH",
"455 611 OFFCURVE",
"504 574 OFFCURVE",
"504 517 CURVE SMOOTH",
"504 462 OFFCURVE",
"454 443 OFFCURVE",
"454 438 CURVE SMOOTH",
"455 415 OFFCURVE",
"490 402 OFFCURVE",
"515 402 CURVE SMOOTH",
"575 402 OFFCURVE",
"610 455 OFFCURVE",
"610 510 CURVE SMOOTH",
"610 611 OFFCURVE",
"491 651 OFFCURVE",
"398 651 CURVE SMOOTH",
"193 651 OFFCURVE",
"49 515 OFFCURVE",
"49 311 CURVE SMOOTH",
"49 85 OFFCURVE",
"190 -20 OFFCURVE",
"359 -20 CURVE SMOOTH",
"459 -20 OFFCURVE",
"512 -8 OFFCURVE",
"590 29 CURVE"
);
}
);
width = 692;
}
);
leftKerningGroup = O;
unicode = 0047;
},
{
color = 4;
glyphname = H;
lastChange = "2016-09-08 14:05:00 +0000";
layers = (
{
background = {
paths = (
{
closed = 1;
nodes = (
"232 294 LINE",
"232 117 LINE",
"232 103 LINE",
"235 75 LINE",
"247 53 LINE",
"273 40 LINE",
"297 40 LINE",
"308 40 LINE",
"321 36 LINE",
"322 19 LINE",
"322 11 LINE",
"314 -3 LINE",
"304 -3 LINE",
"239 0 LINE",
"180 0 LINE",
"150 0 LINE",
"93 -1 LINE",
"61 -3 LINE",
"51 -3 LINE",
"43 11 LINE",
"43 19 LINE",
"44 36 LINE",
"57 40 LINE",
"68 40 LINE",
"92 40 LINE",
"118 53 LINE",
"130 75 LINE",
"133 103 LINE",
"133 117 LINE",
"133 514 LINE",
"133 528 LINE",
"130 556 LINE",
"118 578 LINE",
"92 591 LINE",
"68 591 LINE",
"57 591 LINE",
"44 595 LINE",
"43 612 LINE",
"43 620 LINE",
"51 634 LINE",
"61 634 LINE",
"93 632 LINE",
"149 631 LINE",
"179 631 LINE",
"239 631 LINE",
"304 634 LINE",
"314 634 LINE",
"322 620 LINE",
"322 612 LINE",
"321 595 LINE",
"308 591 LINE",
"297 591 LINE",
"273 591 LINE",
"247 578 LINE",
"235 556 LINE",
"232 528 LINE",
"232 514 LINE",
"232 337 LINE",
"546 337 LINE",
"546 514 LINE",
"546 528 LINE",
"543 556 LINE",
"531 578 LINE",
"505 591 LINE",
"481 591 LINE",
"470 591 LINE",
"456 595 LINE",
"455 612 LINE",
"455 620 LINE",
"464 634 LINE",
"473 634 LINE",
"537 631 LINE",
"598 631 LINE",
"628 631 LINE",
"685 632 LINE",
"717 634 LINE",
"726 634 LINE",
"735 620 LINE",
"735 612 LINE",
"734 595 LINE",
"720 591 LINE",
"710 591 LINE",
"686 591 LINE",
"660 578 LINE",
"647 556 LINE",
"644 528 LINE",
"644 514 LINE",
"644 117 LINE",
"644 103 LINE",
"647 75 LINE",
"660 53 LINE",
"686 40 LINE",
"710 40 LINE",
"720 40 LINE",
"734 36 LINE",
"735 19 LINE",
"735 11 LINE",
"726 -3 LINE",
"717 -3 LINE",
"685 -1 LINE",
"627 0 LINE",
"597 0 LINE",
"537 0 LINE",
"473 -3 LINE",
"464 -3 LINE",
"455 11 LINE",
"455 19 LINE",
"456 36 LINE",
"470 40 LINE",
"481 40 LINE",
"505 40 LINE",
"531 53 LINE",
"543 75 LINE",
"546 103 LINE",
"546 117 LINE",
"546 294 LINE"
);
}
);
};
layerId = UUID0;
paths = (
{
closed = 1;
nodes = (
"546 294 LINE",
"546 117 LINE",
"545 79 OFFCURVE",
"544 40 OFFCURVE",
"481 40 CURVE SMOOTH",
"467 40 OFFCURVE",
"456 42 OFFCURVE",
"455 19 CURVE SMOOTH",
"455 8 OFFCURVE",
"461 -3 OFFCURVE",
"473 -3 CURVE SMOOTH",
"516 -1 OFFCURVE",
"557 0 OFFCURVE",
"597 0 CURVE SMOOTH",
"637 0 OFFCURVE",
"674 -1 OFFCURVE",
"717 -3 CURVE SMOOTH",
"729 -3 OFFCURVE",
"735 8 OFFCURVE",
"735 19 CURVE SMOOTH",
"734 42 OFFCURVE",
"723 40 OFFCURVE",
"710 40 CURVE SMOOTH",
"647 40 OFFCURVE",
"645 79 OFFCURVE",
"644 117 CURVE",
"644 514 LINE",
"645 552 OFFCURVE",
"647 591 OFFCURVE",
"710 591 CURVE SMOOTH",
"723 591 OFFCURVE",
"734 589 OFFCURVE",
"735 612 CURVE SMOOTH",
"735 623 OFFCURVE",
"729 634 OFFCURVE",
"717 634 CURVE SMOOTH",
"674 632 OFFCURVE",
"638 631 OFFCURVE",
"598 631 CURVE SMOOTH",
"558 631 OFFCURVE",
"516 632 OFFCURVE",
"473 634 CURVE SMOOTH",
"461 634 OFFCURVE",
"455 623 OFFCURVE",
"455 612 CURVE SMOOTH",
"456 589 OFFCURVE",
"467 591 OFFCURVE",
"481 591 CURVE SMOOTH",
"544 591 OFFCURVE",
"545 552 OFFCURVE",
"546 514 CURVE",
"546 337 LINE",
"232 337 LINE",
"232 514 LINE",
"233 552 OFFCURVE",
"234 591 OFFCURVE",
"297 591 CURVE SMOOTH",
"311 591 OFFCURVE",
"321 589 OFFCURVE",
"322 612 CURVE SMOOTH",
"322 623 OFFCURVE",
"317 634 OFFCURVE",
"304 634 CURVE SMOOTH",
"261 632 OFFCURVE",
"219 631 OFFCURVE",
"179 631 CURVE SMOOTH",
"139 631 OFFCURVE",
"104 632 OFFCURVE",
"61 634 CURVE SMOOTH",
"48 634 OFFCURVE",
"43 623 OFFCURVE",
"43 612 CURVE SMOOTH",
"44 589 OFFCURVE",
"54 591 OFFCURVE",
"68 591 CURVE SMOOTH",
"131 591 OFFCURVE",
"132 552 OFFCURVE",
"133 514 CURVE",
"133 117 LINE",
"132 79 OFFCURVE",
"131 40 OFFCURVE",
"68 40 CURVE SMOOTH",
"54 40 OFFCURVE",
"44 42 OFFCURVE",
"43 19 CURVE SMOOTH",
"43 8 OFFCURVE",
"48 -3 OFFCURVE",
"61 -3 CURVE SMOOTH",
"104 -1 OFFCURVE",
"140 0 OFFCURVE",
"180 0 CURVE SMOOTH",
"220 0 OFFCURVE",
"261 -1 OFFCURVE",
"304 -3 CURVE SMOOTH",
"317 -3 OFFCURVE",
"322 8 OFFCURVE",
"322 19 CURVE SMOOTH",
"321 42 OFFCURVE",
"311 40 OFFCURVE",
"297 40 CURVE SMOOTH",
"234 40 OFFCURVE",
"233 79 OFFCURVE",
"232 117 CURVE",
"232 294 LINE"
);
}
);
width = 777;
}
);
leftKerningGroup = I;
rightKerningGroup = I;
unicode = 0048;
},
{
color = 4;
glyphname = I;
lastChange = "2016-09-08 14:05:00 +0000";
layers = (
{
anchors = (
{
name = top;
position = "{179, 650}";
}
);
background = {
paths = (
{
closed = 1;
nodes = (
"231 117 LINE",
"231 103 LINE",
"234 75 LINE",
"246 53 LINE",
"272 40 LINE",
"296 40 LINE",
"307 40 LINE",
"320 36 LINE",
"322 19 LINE",
"322 11 LINE",
"313 -3 LINE",
"304 -3 LINE",
"239 0 LINE",
"180 0 LINE",
"150 0 LINE",
"92 -1 LINE",
"60 -3 LINE",
"50 -3 LINE",
"42 11 LINE",
"42 19 LINE",
"43 36 LINE",
"57 40 LINE",
"67 40 LINE",
"91 40 LINE",
"117 53 LINE",
"129 75 LINE",
"132 103 LINE",
"133 117 LINE",
"133 514 LINE",
"132 528 LINE",
"129 556 LINE",
"117 578 LINE",
"91 591 LINE",
"67 591 LINE",
"57 591 LINE",
"43 595 LINE",
"42 612 LINE",
"42 620 LINE",
"50 634 LINE",
"60 634 LINE",
"92 632 LINE",
"149 631 LINE",
"179 631 LINE",
"239 631 LINE",
"304 634 LINE",
"313 634 LINE",
"322 620 LINE",
"322 612 LINE",
"320 595 LINE",
"307 591 LINE",
"296 591 LINE",
"272 591 LINE",
"246 578 LINE",
"234 556 LINE",
"231 528 LINE",
"231 514 LINE"
);
}
);
};
layerId = UUID0;
paths = (
{
closed = 1;
nodes = (
"231 514 LINE",
"232 552 OFFCURVE",
"233 591 OFFCURVE",
"296 591 CURVE SMOOTH",
"310 591 OFFCURVE",
"320 589 OFFCURVE",
"322 612 CURVE SMOOTH",
"322 623 OFFCURVE",
"316 634 OFFCURVE",
"304 634 CURVE",
"261 632 OFFCURVE",
"219 631 OFFCURVE",
"179 631 CURVE",
"139 631 OFFCURVE",
"103 632 OFFCURVE",
"60 634 CURVE SMOOTH",
"47 634 OFFCURVE",
"42 623 OFFCURVE",
"42 612 CURVE SMOOTH",
"43 589 OFFCURVE",
"54 591 OFFCURVE",
"67 591 CURVE SMOOTH",
"130 591 OFFCURVE",
"131 552 OFFCURVE",
"133 514 CURVE",
"133 117 LINE",
"131 79 OFFCURVE",
"130 40 OFFCURVE",
"67 40 CURVE SMOOTH",
"54 40 OFFCURVE",
"43 42 OFFCURVE",
"42 19 CURVE SMOOTH",
"42 8 OFFCURVE",
"47 -3 OFFCURVE",
"60 -3 CURVE SMOOTH",
"103 -1 OFFCURVE",
"140 0 OFFCURVE",
"180 0 CURVE SMOOTH",
"220 0 OFFCURVE",
"261 -1 OFFCURVE",
"304 -3 CURVE SMOOTH",
"316 -3 OFFCURVE",
"322 8 OFFCURVE",
"322 19 CURVE SMOOTH",
"320 42 OFFCURVE",
"310 40 OFFCURVE",
"296 40 CURVE SMOOTH",
"233 40 OFFCURVE",
"232 79 OFFCURVE",
"231 117 CURVE"
);
}
);
width = 364;
}
);
leftKerningGroup = I;
rightKerningGroup = I;
unicode = 0049;
},
{
color = 4;
glyphname = J;
lastChange = "2016-09-08 14:05:00 +0000";
layers = (
{
background = {
paths = (
{
closed = 1;
nodes = (
"25 -192 LINE",
"8 -195 LINE",
"2 -175 LINE",
"-3 -156 LINE",
"12 -150 LINE",
"51 -134 LINE",
"95 -81 LINE",
"118 -4 LINE",
"124 97 LINE",
"124 162 LINE",
"124 514 LINE",
"124 528 LINE",
"121 556 LINE",
"109 578 LINE",
"83 591 LINE",
"59 591 LINE",
"48 591 LINE",
"34 595 LINE",
"33 612 LINE",
"33 620 LINE",
"42 634 LINE",
"51 634 LINE",
"83 632 LINE",
"140 631 LINE",
"170 631 LINE",
"230 631 LINE",
"295 634 LINE",
"304 634 LINE",
"313 620 LINE",
"313 612 LINE",
"312 595 LINE",
"298 591 LINE",
"287 591 LINE",
"263 591 LINE",
"237 578 LINE",
"225 556 LINE",
"222 528 LINE",
"222 514 LINE",
"222 128 LINE",
"222 68 LINE",
"203 -36 LINE",
"157 -120 LINE",
"81 -179 LINE"
);
}
);
};
layerId = UUID0;
paths = (
{
closed = 1;
nodes = (
"175 -156 OFFCURVE",
"222 -31 OFFCURVE",
"222 128 CURVE SMOOTH",
"222 514 LINE",
"223 552 OFFCURVE",
"224 591 OFFCURVE",
"287 591 CURVE SMOOTH",
"301 591 OFFCURVE",
"312 589 OFFCURVE",
"313 612 CURVE SMOOTH",
"313 623 OFFCURVE",
"307 634 OFFCURVE",
"295 634 CURVE SMOOTH",
"252 632 OFFCURVE",
"210 631 OFFCURVE",
"170 631 CURVE SMOOTH",
"130 631 OFFCURVE",
"94 632 OFFCURVE",
"51 634 CURVE SMOOTH",
"39 634 OFFCURVE",
"33 623 OFFCURVE",
"33 612 CURVE SMOOTH",
"34 589 OFFCURVE",
"45 591 OFFCURVE",
"59 591 CURVE SMOOTH",
"122 591 OFFCURVE",
"123 552 OFFCURVE",
"124 514 CURVE",
"124 162 LINE SMOOTH",
"124 -10 OFFCURVE",
"115 -107 OFFCURVE",
"12 -150 CURVE",
"1 -154 OFFCURVE",
"-1 -164 OFFCURVE",
"2 -175 CURVE SMOOTH",
"6 -188 OFFCURVE",
"13 -194 OFFCURVE",
"25 -192 CURVE"
);
}
);
width = 345;
}
);
unicode = 004A;
},
{
color = 4;
glyphname = K;
lastChange = "2016-09-08 14:05:00 +0000";
layers = (
{
background = {
paths = (
{
closed = 1;
nodes = (
"458 542 LINE",
"478 564 LINE",
"475 588 LINE",
"449 590 LINE",
"436 591 LINE",
"435 611 LINE",
"435 620 LINE",
"445 634 LINE",
"453 634 LINE",
"479 632 LINE",
"537 631 LINE",
"563 631 LINE",
"583 631 LINE",
"634 633 LINE",
"654 634 LINE",
"664 634 LINE",
"673 620 LINE",
"673 611 LINE",
"671 596 LINE",
"661 590 LINE",
"653 590 LINE",
"615 592 LINE",
"544 564 LINE",
"503 523 LINE",
"486 505 LINE",
"431 448 LINE",
"405 421 LINE",
"374 389 LINE",
"341 354 LINE",
"400 282 LINE",
"521 163 LINE",
"564 117 LINE",
"581 100 LINE",
"607 73 LINE",
"632 54 LINE",
"658 42 LINE",
"675 40 LINE",
"683 39 LINE",
"699 36 LINE",
"700 19 LINE",
"700 11 LINE",
"692 -3 LINE",
"682 -3 LINE",
"666 -2 LINE",
"647 -1 LINE",
"630 0 LINE",
"612 0 LINE",
"597 0 LINE",
"533 0 LINE",
"478 61 LINE",
"363 190 LINE",
"297 267 LINE",
"279 288 LINE",
"248 305 LINE",
"232 307 LINE",
"232 117 LINE",
"232 103 LINE",
"235 75 LINE",
"247 53 LINE",
"273 40 LINE",
"297 40 LINE",
"308 40 LINE",
"321 36 LINE",
"322 19 LINE",
"322 11 LINE",
"314 -3 LINE",
"304 -3 LINE",
"239 0 LINE",
"180 0 LINE",
"150 0 LINE",
"93 -1 LINE",
"61 -3 LINE",
"51 -3 LINE",
"43 11 LINE",
"43 19 LINE",
"44 36 LINE",
"57 40 LINE",
"68 40 LINE",
"92 40 LINE",
"118 53 LINE",
"130 75 LINE",
"133 103 LINE",
"133 117 LINE",
"133 514 LINE",
"133 528 LINE",
"130 556 LINE",
"118 578 LINE",
"92 591 LINE",
"68 591 LINE",
"57 591 LINE",
"44 595 LINE",
"43 612 LINE",
"43 621 LINE",
"51 634 LINE",
"61 634 LINE",
"93 632 LINE",
"149 631 LINE",
"179 631 LINE",
"239 631 LINE",
"304 634 LINE",
"314 634 LINE",
"322 622 LINE",
"322 612 LINE",
"321 597 LINE",
"310 591 LINE",
"297 591 LINE",
"273 591 LINE",
"247 578 LINE",
"235 556 LINE",
"232 528 LINE",
"232 514 LINE",
"232 333 LINE",
"249 337 LINE",
"294 369 LINE",
"317 389 LINE",
"355 424 LINE",
"427 505 LINE"
);
}
);
};
layerId = UUID0;
paths = (
{
closed = 1;
nodes = (
"417 493 OFFCURVE",
"367 435 OFFCURVE",
"317 389 CURVE",
"286 363 OFFCURVE",
"255 338 OFFCURVE",
"232 333 CURVE",
"232 514 LINE",
"233 552 OFFCURVE",
"234 591 OFFCURVE",
"297 591 CURVE SMOOTH",
"311 591 OFFCURVE",
"321 589 OFFCURVE",
"322 612 CURVE SMOOTH",
"322 623 OFFCURVE",
"317 634 OFFCURVE",
"304 634 CURVE SMOOTH",
"261 632 OFFCURVE",
"219 631 OFFCURVE",
"179 631 CURVE SMOOTH",
"139 631 OFFCURVE",
"104 632 OFFCURVE",
"61 634 CURVE SMOOTH",
"48 634 OFFCURVE",
"43 623 OFFCURVE",
"43 612 CURVE SMOOTH",
"44 589 OFFCURVE",
"54 591 OFFCURVE",
"68 591 CURVE SMOOTH",
"131 591 OFFCURVE",
"132 552 OFFCURVE",
"133 514 CURVE",
"133 117 LINE",
"132 79 OFFCURVE",
"131 40 OFFCURVE",
"68 40 CURVE SMOOTH",
"54 40 OFFCURVE",
"44 42 OFFCURVE",
"43 19 CURVE SMOOTH",
"43 8 OFFCURVE",
"48 -3 OFFCURVE",
"61 -3 CURVE SMOOTH",
"104 -1 OFFCURVE",
"140 0 OFFCURVE",
"180 0 CURVE SMOOTH",
"220 0 OFFCURVE",
"261 -1 OFFCURVE",
"304 -3 CURVE SMOOTH",
"317 -3 OFFCURVE",
"322 8 OFFCURVE",
"322 19 CURVE SMOOTH",
"321 42 OFFCURVE",
"311 40 OFFCURVE",
"297 40 CURVE SMOOTH",
"234 40 OFFCURVE",
"233 79 OFFCURVE",
"232 117 CURVE",
"232 307 LINE",
"253 305 OFFCURVE",
"273 295 OFFCURVE",
"297 267 CURVE SMOOTH",
"385 165 OFFCURVE",
"460 81 OFFCURVE",
"533 0 CURVE",
"597 0 LINE",
"637 0 OFFCURVE",
"639 -1 OFFCURVE",
"682 -3 CURVE SMOOTH",
"695 -3 OFFCURVE",
"700 8 OFFCURVE",
"700 19 CURVE SMOOTH",
"699 41 OFFCURVE",
"686 39 OFFCURVE",
"675 40 CURVE",
"630 45 OFFCURVE",
"609 72 OFFCURVE",
"564 117 CURVE",
"507 178 OFFCURVE",
"419 259 OFFCURVE",
"341 354 CURVE",
"341 354 OFFCURVE",
"458 476 OFFCURVE",
"503 523 CURVE SMOOTH",
"557 577 OFFCURVE",
"603 592 OFFCURVE",
"653 590 CURVE",
"663 590 OFFCURVE",
"671 591 OFFCURVE",
"673 611 CURVE",
"673 623 OFFCURVE",
"667 634 OFFCURVE",
"654 634 CURVE SMOOTH",
"628 633 OFFCURVE",
"590 631 OFFCURVE",
"563 631 CURVE SMOOTH",
"528 631 OFFCURVE",
"488 631 OFFCURVE",
"453 634 CURVE",
"442 634 OFFCURVE",
"435 623 OFFCURVE",
"435 611 CURVE SMOOTH",
"437 597 OFFCURVE",
"440 591 OFFCURVE",
"449 590 CURVE",
"484 588 OFFCURVE",
"484 571 OFFCURVE",
"458 542 CURVE"
);
}
);
width = 700;
}
);
leftKerningGroup = I;
unicode = 004B;
},
{
color = 4;
glyphname = L;
lastChange = "2016-09-08 14:05:00 +0000";
layers = (
{
background = {
paths = (
{
closed = 1;
nodes = (
"232 102 LINE",
"233 92 LINE",
"235 70 LINE",
"248 51 LINE",
"276 39 LINE",
"302 40 LINE",
"392 40 LINE",
"418 41 LINE",
"451 52 LINE",
"473 79 LINE",
"489 123 LINE",
"499 156 LINE",
"503 166 LINE",
"522 172 LINE",
"533 170 LINE",
"541 168 LINE",
"558 157 LINE",
"557 147 LINE",
"537 21 LINE",
"534 7 LINE",
"521 0 LINE",
"508 0 LINE",
"180 0 LINE",
"150 0 LINE",
"93 -1 LINE",
"60 -3 LINE",
"51 -3 LINE",
"43 11 LINE",
"43 19 LINE",
"44 34 LINE",
"57 40 LINE",
"68 40 LINE",
"92 40 LINE",
"118 53 LINE",
"130 75 LINE",
"133 103 LINE",
"133 117 LINE",
"133 514 LINE",
"133 528 LINE",
"130 556 LINE",
"118 578 LINE",
"92 591 LINE",
"68 591 LINE",
"57 591 LINE",
"44 596 LINE",
"43 612 LINE",
"43 622 LINE",
"51 634 LINE",
"60 634 LINE",
"93 632 LINE",
"149 631 LINE",
"179 631 LINE",
"239 631 LINE",
"304 634 LINE",
"314 634 LINE",
"322 620 LINE",
"322 612 LINE",
"321 595 LINE",
"307 591 LINE",
"297 591 LINE",
"273 591 LINE",
"247 578 LINE",
"235 556 LINE",
"232 528 LINE",
"232 514 LINE"
);
}
);
};
layerId = UUID0;
paths = (
{
closed = 1;
nodes = (
"232 514 LINE",
"233 552 OFFCURVE",
"234 591 OFFCURVE",
"297 591 CURVE SMOOTH",
"310 591 OFFCURVE",
"321 589 OFFCURVE",
"322 612 CURVE SMOOTH",
"322 623 OFFCURVE",
"317 634 OFFCURVE",
"304 634 CURVE SMOOTH",
"261 632 OFFCURVE",
"219 631 OFFCURVE",
"179 631 CURVE",
"139 631 OFFCURVE",
"104 632 OFFCURVE",
"60 634 CURVE SMOOTH",
"48 634 OFFCURVE",
"43 623 OFFCURVE",
"43 612 CURVE SMOOTH",
"44 589 OFFCURVE",
"54 591 OFFCURVE",
"68 591 CURVE SMOOTH",
"131 591 OFFCURVE",
"132 552 OFFCURVE",
"133 514 CURVE",
"133 117 LINE",
"132 79 OFFCURVE",
"131 40 OFFCURVE",
"68 40 CURVE SMOOTH",
"54 40 OFFCURVE",
"44 42 OFFCURVE",
"43 19 CURVE SMOOTH",
"43 8 OFFCURVE",
"48 -3 OFFCURVE",
"60 -3 CURVE SMOOTH",
"104 -1 OFFCURVE",
"140 0 OFFCURVE",
"180 0 CURVE SMOOTH",
"508 0 LINE SMOOTH",
"525 0 OFFCURVE",
"533 2 OFFCURVE",
"537 21 CURVE",
"557 147 LINE",
"558 160 OFFCURVE",
"543 168 OFFCURVE",
"533 170 CURVE SMOOTH",
"518 172 OFFCURVE",
"504 169 OFFCURVE",
"499 156 CURVE SMOOTH",
"473 68 OFFCURVE",
"462 42 OFFCURVE",
"392 40 CURVE",
"302 40 LINE",
"233 38 OFFCURVE",
"234 76 OFFCURVE",
"232 102 CURVE"
);
}
);
width = 571;
}
);
leftKerningGroup = I;
unicode = 004C;
},
{
color = 4;
glyphname = M;
lastChange = "2016-09-08 14:05:00 +0000";
layers = (
{
background = {
paths = (
{
closed = 1;
nodes = (
"448 5 LINE",
"446 0 LINE",
"434 -5 LINE",
"428 -5 LINE",
"422 -5 LINE",
"410 0 LINE",
"407 5 LINE",
"182 514 LINE",
"179 514 LINE",
"181 117 LINE",
"181 103 LINE",
"183 75 LINE",
"195 53 LINE",
"220 40 LINE",
"244 40 LINE",
"255 40 LINE",
"268 36 LINE",
"270 19 LINE",
"270 11 LINE",
"261 -3 LINE",
"252 -3 LINE",
"236 -2 LINE",
"215 -1 LINE",
"196 0 LINE",
"176 0 LINE",
"161 0 LINE",
"146 0 LINE",
"123 0 LINE",
"102 -1 LINE",
"78 -2 LINE",
"62 -3 LINE",
"52 -3 LINE",
"44 11 LINE",
"44 19 LINE",
"45 36 LINE",
"58 40 LINE",
"69 40 LINE",
"93 40 LINE",
"118 53 LINE",
"130 75 LINE",
"132 103 LINE",
"132 117 LINE",
"134 514 LINE",
"134 538 LINE",
"126 566 LINE",
"109 582 LINE",
"84 591 LINE",
"67 594 LINE",
"53 597 LINE",
"42 601 LINE",
"42 617 LINE",
"42 634 LINE",
"65 637 LINE",
"82 637 LINE",
"119 637 LINE",
"179 628 LINE",
"228 606 LINE",
"266 564 LINE",
"280 531 LINE",
"452 145 LINE",
"455 145 LINE",
"652 631 LINE",
"709 631 LINE",
"739 631 LINE",
"796 632 LINE",
"828 634 LINE",
"838 634 LINE",
"846 620 LINE",
"846 612 LINE",
"845 595 LINE",
"831 591 LINE",
"821 591 LINE",
"797 591 LINE",
"771 578 LINE",
"759 556 LINE",
"756 528 LINE",
"756 514 LINE",
"756 117 LINE",
"756 103 LINE",
"759 75 LINE",
"771 53 LINE",
"797 40 LINE",
"821 40 LINE",
"831 40 LINE",
"845 36 LINE",
"846 19 LINE",
"846 11 LINE",
"838 -3 LINE",
"828 -3 LINE",
"796 -1 LINE",
"738 0 LINE",
"708 0 LINE",
"649 0 LINE",
"585 -3 LINE",
"575 -3 LINE",
"567 11 LINE",
"567 19 LINE",
"568 36 LINE",
"581 40 LINE",
"592 40 LINE",
"616 40 LINE",
"642 53 LINE",
"654 75 LINE",
"657 103 LINE",
"657 117 LINE",
"657 514 LINE",
"654 514 LINE"
);
}
);
};
layerId = UUID0;
paths = (
{
closed = 1;
nodes = (
"654 514 LINE",
"657 514 LINE",
"657 117 LINE",
"656 79 OFFCURVE",
"655 40 OFFCURVE",
"592 40 CURVE SMOOTH",
"578 40 OFFCURVE",
"568 42 OFFCURVE",
"567 19 CURVE SMOOTH",
"567 8 OFFCURVE",
"572 -3 OFFCURVE",
"585 -3 CURVE SMOOTH",
"628 -1 OFFCURVE",
"669 0 OFFCURVE",
"708 0 CURVE SMOOTH",
"748 0 OFFCURVE",
"785 -1 OFFCURVE",
"828 -3 CURVE SMOOTH",
"841 -3 OFFCURVE",
"846 8 OFFCURVE",
"846 19 CURVE SMOOTH",
"845 42 OFFCURVE",
"834 40 OFFCURVE",
"821 40 CURVE SMOOTH",
"758 40 OFFCURVE",
"757 79 OFFCURVE",
"756 117 CURVE",
"756 514 LINE",
"757 552 OFFCURVE",
"758 591 OFFCURVE",
"821 591 CURVE SMOOTH",
"834 591 OFFCURVE",
"845 589 OFFCURVE",
"846 612 CURVE SMOOTH",
"846 623 OFFCURVE",
"841 634 OFFCURVE",
"828 634 CURVE SMOOTH",
"785 632 OFFCURVE",
"749 631 OFFCURVE",
"709 631 CURVE SMOOTH",
"652 631 LINE",
"455 145 LINE",
"452 145 LINE",
"280 531 LINE",
"243 620 OFFCURVE",
"180 636 OFFCURVE",
"82 637 CURVE",
"60 637 OFFCURVE",
"42 640 OFFCURVE",
"42 617 CURVE SMOOTH",
"42 596 OFFCURVE",
"48 598 OFFCURVE",
"67 594 CURVE",
"113 585 OFFCURVE",
"134 577 OFFCURVE",
"134 514 CURVE SMOOTH",
"132 117 LINE",
"131 79 OFFCURVE",
"132 40 OFFCURVE",
"69 40 CURVE SMOOTH",
"55 40 OFFCURVE",
"45 42 OFFCURVE",
"44 19 CURVE SMOOTH",
"44 8 OFFCURVE",
"49 -3 OFFCURVE",
"62 -3 CURVE SMOOTH",
"105 -1 OFFCURVE",
"121 0 OFFCURVE",
"161 0 CURVE SMOOTH",
"201 0 OFFCURVE",
"209 -1 OFFCURVE",
"252 -3 CURVE SMOOTH",
"264 -3 OFFCURVE",
"270 8 OFFCURVE",
"270 19 CURVE SMOOTH",
"268 42 OFFCURVE",
"258 40 OFFCURVE",
"244 40 CURVE SMOOTH",
"181 40 OFFCURVE",
"182 79 OFFCURVE",
"181 117 CURVE",
"179 514 LINE",
"182 514 LINE",
"407 5 LINE",
"411 -2 OFFCURVE",
"420 -5 OFFCURVE",
"428 -5 CURVE SMOOTH",
"436 -5 OFFCURVE",
"445 -2 OFFCURVE",
"448 5 CURVE"
);
}
);
width = 889;
}
);
leftKerningGroup = I;
rightKerningGroup = I;
unicode = 004D;
},
{
color = 4;
glyphname = N;
lastChange = "2016-09-08 14:05:00 +0000";
layers = (
{
anchors = (
{
name = top;
position = "{370, 650}";
}
);
background = {
paths = (
{
closed = 1;
nodes = (
"182 514 LINE",
"179 514 LINE",
"181 117 LINE",
"181 103 LINE",
"183 75 LINE",
"195 53 LINE",
"220 40 LINE",
"244 40 LINE",
"255 40 LINE",
"269 36 LINE",
"270 19 LINE",
"270 11 LINE",
"261 -3 LINE",
"252 -3 LINE",
"236 -2 LINE",
"213 -1 LINE",
"192 0 LINE",
"170 0 LINE",
"155 0 LINE",
"140 0 LINE",
"119 0 LINE",
"100 -1 LINE",
"78 -2 LINE",
"62 -3 LINE",
"52 -3 LINE",
"44 11 LINE",
"44 19 LINE",
"45 36 LINE",
"58 40 LINE",
"69 40 LINE",
"93 40 LINE",
"118 53 LINE",
"130 75 LINE",
"132 103 LINE",
"132 117 LINE",
"134 514 LINE",
"134 537 LINE",
"126 566 LINE",
"110 582 LINE",
"85 591 LINE",
"67 594 LINE",
"52 597 LINE",
"42 602 LINE",
"42 617 LINE",
"42 634 LINE",
"65 637 LINE",
"82 637 LINE",
"124 637 LINE",
"182 627 LINE",
"228 603 LINE",
"268 562 LINE",
"291 531 LINE",
"565 171 LINE",
"568 171 LINE",
"566 514 LINE",
"566 528 LINE",
"564 556 LINE",
"552 578 LINE",
"527 591 LINE",
"503 591 LINE",
"492 591 LINE",
"479 595 LINE",
"477 612 LINE",
"477 620 LINE",
"486 634 LINE",
"495 634 LINE",
"511 633 LINE",
"534 632 LINE",
"554 631 LINE",
"576 631 LINE",
"591 631 LINE",
"606 631 LINE",
"627 631 LINE",
"647 632 LINE",
"669 633 LINE",
"685 634 LINE",
"695 634 LINE",
"703 620 LINE",
"703 612 LINE",
"702 595 LINE",
"689 591 LINE",
"678 591 LINE",
"654 591 LINE",
"629 578 LINE",
"617 556 LINE",
"615 528 LINE",
"615 514 LINE",
"613 10 LINE",
"612 2 LINE",
"595 -3 LINE",
"588 -3 LINE",
"569 -3 LINE",
"559 10 LINE"
);
}
);
};
layerId = UUID0;
paths = (
{
closed = 1;
nodes = (
"559 10 LINE",
"565 2 OFFCURVE",
"575 -3 OFFCURVE",
"588 -3 CURVE SMOOTH",
"597 -3 OFFCURVE",
"612 -1 OFFCURVE",
"613 10 CURVE",
"615 514 LINE",
"616 552 OFFCURVE",
"615 591 OFFCURVE",
"678 591 CURVE SMOOTH",
"692 591 OFFCURVE",
"702 589 OFFCURVE",
"703 612 CURVE SMOOTH",
"703 623 OFFCURVE",
"698 634 OFFCURVE",
"685 634 CURVE SMOOTH",
"642 632 OFFCURVE",
"631 631 OFFCURVE",
"591 631 CURVE SMOOTH",
"551 631 OFFCURVE",
"538 632 OFFCURVE",
"495 634 CURVE SMOOTH",
"483 634 OFFCURVE",
"477 623 OFFCURVE",
"477 612 CURVE SMOOTH",
"479 589 OFFCURVE",
"489 591 OFFCURVE",
"503 591 CURVE SMOOTH",
"566 591 OFFCURVE",
"565 552 OFFCURVE",
"566 514 CURVE",
"568 171 LINE",
"565 171 LINE",
"291 531 LINE",
"229 615 OFFCURVE",
"193 637 OFFCURVE",
"82 637 CURVE",
"60 637 OFFCURVE",
"42 640 OFFCURVE",
"42 617 CURVE SMOOTH",
"42 597 OFFCURVE",
"47 598 OFFCURVE",
"67 594 CURVE SMOOTH",
"114 585 OFFCURVE",
"134 576 OFFCURVE",
"134 514 CURVE",
"132 117 LINE",
"131 79 OFFCURVE",
"132 40 OFFCURVE",
"69 40 CURVE SMOOTH",
"55 40 OFFCURVE",
"45 42 OFFCURVE",
"44 19 CURVE SMOOTH",
"44 8 OFFCURVE",
"49 -3 OFFCURVE",
"62 -3 CURVE SMOOTH",
"105 -1 OFFCURVE",
"115 0 OFFCURVE",
"155 0 CURVE SMOOTH",
"195 0 OFFCURVE",
"209 -1 OFFCURVE",
"252 -3 CURVE SMOOTH",
"264 -3 OFFCURVE",
"270 8 OFFCURVE",
"270 19 CURVE SMOOTH",
"269 42 OFFCURVE",
"258 40 OFFCURVE",
"244 40 CURVE SMOOTH",
"181 40 OFFCURVE",
"182 79 OFFCURVE",
"181 117 CURVE",
"179 514 LINE",
"182 514 LINE"
);
}
);
width = 737;
}
);
leftKerningGroup = I;
rightKerningGroup = I;
unicode = 004E;
},
{
color = 4;
glyphname = O;
lastChange = "2016-09-08 14:05:00 +0000";
layers = (
{
anchors = (
{
name = top;
position = "{366, 659}";
}
);
background = {
paths = (
{
closed = 1;
nodes = (
"366 651 LINE",
"441 651 LINE",
"560 597 LINE",
"643 506 LINE",
"688 388 LINE",
"688 325 LINE",
"688 242 LINE",
"629 114 LINE",
"536 26 LINE",
"421 -20 LINE",
"366 -20 LINE",
"292 -20 LINE",
"174 34 LINE",
"92 125 LINE",
"47 243 LINE",
"47 307 LINE",
"47 390 LINE",
"105 518 LINE",
"197 606 LINE",
"311 651 LINE"
);
},
{
closed = 1;
nodes = (
"365 24 LINE",
"418 24 LINE",
"495 73 LINE",
"545 156 LINE",
"569 265 LINE",
"569 325 LINE",
"569 381 LINE",
"544 484 LINE",
"493 562 LINE",
"416 608 LINE",
"365 608 LINE",
"312 608 LINE",
"236 560 LINE",
"187 478 LINE",
"164 370 LINE",
"164 310 LINE",
"164 253 LINE",
"188 150 LINE",
"238 71 LINE",
"314 24 LINE"
);
}
);
};
layerId = UUID0;
paths = (
{
closed = 1;
nodes = (
"219 651 OFFCURVE",
"47 528 OFFCURVE",
"47 307 CURVE SMOOTH",
"47 137 OFFCURVE",
"170 -20 OFFCURVE",
"366 -20 CURVE SMOOTH",
"513 -20 OFFCURVE",
"688 104 OFFCURVE",
"688 325 CURVE SMOOTH",
"688 494 OFFCURVE",
"565 651 OFFCURVE",
"366 651 CURVE SMOOTH"
);
},
{
closed = 1;
nodes = (
"228 24 OFFCURVE",
"164 159 OFFCURVE",
"164 310 CURVE SMOOTH",
"164 469 OFFCURVE",
"224 608 OFFCURVE",
"365 608 CURVE SMOOTH",
"502 608 OFFCURVE",
"569 475 OFFCURVE",
"569 325 CURVE SMOOTH",
"569 165 OFFCURVE",
"506 24 OFFCURVE",
"365 24 CURVE SMOOTH"
);
}
);
width = 735;
}
);
leftKerningGroup = O;
rightKerningGroup = O;
unicode = 004F;
},
{
color = 4;
glyphname = P;
lastChange = "2016-09-08 14:05:00 +0000";
layers = (
{
background = {
paths = (
{
closed = 1;
nodes = (
"330 631 LINE",
"346 631 LINE",
"395 628 LINE",
"450 616 LINE",
"506 592 LINE",
"552 552 LINE",
"580 493 LINE",
"580 451 LINE",
"580 404 LINE",
"537 328 LINE",
"466 274 LINE",
"377 245 LINE",
"331 245 LINE",
"308 245 LINE",
"257 251 LINE",
"231 261 LINE",
"231 117 LINE",
"231 103 LINE",
"234 75 LINE",
"246 53 LINE",
"272 40 LINE",
"296 40 LINE",
"307 40 LINE",
"321 36 LINE",
"322 19 LINE",
"322 11 LINE",
"313 -3 LINE",
"304 -3 LINE",
"239 0 LINE",
"179 0 LINE",
"149 0 LINE",
"92 -1 LINE",
"60 -3 LINE",
"51 -3 LINE",
"42 11 LINE",
"42 19 LINE",
"43 36 LINE",
"57 40 LINE",
"68 40 LINE",
"92 40 LINE",
"118 53 LINE",
"130 75 LINE",
"133 103 LINE",
"133 117 LINE",
"133 514 LINE",
"133 528 LINE",
"130 556 LINE",
"118 578 LINE",
"92 591 LINE",
"68 591 LINE",
"57 591 LINE",
"43 595 LINE",
"42 612 LINE",
"42 620 LINE",
"51 634 LINE",
"60 634 LINE",
"92 632 LINE",
"150 631 LINE",
"180 631 LINE"
);
},
{
closed = 1;
nodes = (
"231 301 LINE",
"241 296 LINE",
"279 290 LINE",
"302 290 LINE",
"325 290 LINE",
"383 304 LINE",
"434 340 LINE",
"469 401 LINE",
"469 448 LINE",
"469 499 LINE",
"428 557 LINE",
"371 587 LINE",
"312 594 LINE",
"294 594 LINE",
"276 594 LINE",
"251 589 LINE",
"237 573 LINE",
"231 542 LINE",
"231 517 LINE"
);
}
);
};
layerId = UUID0;
paths = (
{
closed = 1;
nodes = (
"180 631 LINE SMOOTH",
"140 631 OFFCURVE",
"103 632 OFFCURVE",
"60 634 CURVE SMOOTH",
"48 634 OFFCURVE",
"42 623 OFFCURVE",
"42 612 CURVE SMOOTH",
"43 589 OFFCURVE",
"54 591 OFFCURVE",
"68 591 CURVE SMOOTH",
"131 591 OFFCURVE",
"132 552 OFFCURVE",
"133 514 CURVE",
"133 117 LINE",
"132 79 OFFCURVE",
"131 40 OFFCURVE",
"68 40 CURVE SMOOTH",
"54 40 OFFCURVE",
"43 42 OFFCURVE",
"42 19 CURVE SMOOTH",
"42 8 OFFCURVE",
"48 -3 OFFCURVE",
"60 -3 CURVE SMOOTH",
"103 -1 OFFCURVE",
"139 0 OFFCURVE",
"179 0 CURVE SMOOTH",
"219 0 OFFCURVE",
"261 -1 OFFCURVE",
"304 -3 CURVE SMOOTH",
"316 -3 OFFCURVE",
"322 8 OFFCURVE",
"322 19 CURVE SMOOTH",
"321 42 OFFCURVE",
"310 40 OFFCURVE",
"296 40 CURVE SMOOTH",
"233 40 OFFCURVE",
"232 79 OFFCURVE",
"231 117 CURVE",
"231 261 LINE",
"266 248 OFFCURVE",
"301 245 OFFCURVE",
"331 245 CURVE SMOOTH",
"454 245 OFFCURVE",
"580 326 OFFCURVE",
"580 451 CURVE SMOOTH",
"580 619 OFFCURVE",
"392 631 OFFCURVE",
"330 631 CURVE SMOOTH"
);
},
{
closed = 1;
nodes = (
"231 517 LINE SMOOTH",
"231 585 OFFCURVE",
"245 594 OFFCURVE",
"294 594 CURVE SMOOTH",
"342 594 OFFCURVE",
"469 584 OFFCURVE",
"469 448 CURVE SMOOTH",
"469 323 OFFCURVE",
"363 290 OFFCURVE",
"302 290 CURVE SMOOTH",
"271 290 OFFCURVE",
"244 295 OFFCURVE",
"231 301 CURVE"
);
}
);
width = 604;
}
);
leftKerningGroup = I;
unicode = 0050;
},
{
color = 4;
glyphname = Q;
lastChange = "2016-09-08 14:05:00 +0000";
layers = (
{
background = {
paths = (
{
closed = 1;
nodes = (
"735 -150 LINE",
"754 -148 LINE",
"770 -128 LINE",
"770 -115 LINE",
"770 -92 LINE",
"735 -50 LINE",
"704 -49 LINE",
"701 -35 LINE",
"729 -3 LINE",
"761 -3 LINE",
"769 -3 LINE",
"793 -12 LINE",
"816 -31 LINE",
"832 -62 LINE",
"832 -83 LINE",
"832 -106 LINE",
"807 -148 LINE",
"768 -180 LINE",
"720 -199 LINE",
"696 -200 LINE",
"645 -200 LINE",
"572 -167 LINE",
"509 -119 LINE",
"444 -64 LINE",
"401 -42 LINE",
"383 -33 LINE",
"348 -21 LINE",
"325 -16 LINE",
"281 -6 LINE",
"200 23 LINE",
"172 45 LINE",
"112 91 LINE",
"48 229 LINE",
"48 307 LINE",
"48 390 LINE",
"106 518 LINE",
"198 606 LINE",
"312 651 LINE",
"367 651 LINE",
"442 651 LINE",
"562 597 LINE",
"645 506 LINE",
"690 388 LINE",
"690 325 LINE",
"690 268 LINE",
"659 168 LINE",
"605 87 LINE",
"529 27 LINE",
"484 9 LINE",
"479 7 LINE",
"460 2 LINE",
"443 1 LINE",
"443 -1 LINE",
"470 -4 LINE",
"492 -15 LINE",
"529 -33 LINE",
"594 -80 LINE",
"653 -122 LINE",
"708 -150 LINE"
);
},
{
closed = 1;
nodes = (
"366 21 LINE",
"419 21 LINE",
"497 71 LINE",
"547 155 LINE",
"571 265 LINE",
"571 325 LINE",
"571 381 LINE",
"546 484 LINE",
"495 562 LINE",
"418 608 LINE",
"366 608 LINE",
"313 608 LINE",
"237 560 LINE",
"189 478 LINE",
"166 370 LINE",
"166 310 LINE",
"166 253 LINE",
"190 149 LINE",
"240 69 LINE",
"315 21 LINE"
);
}
);
};
layerId = UUID0;
paths = (
{
closed = 1;
nodes = (
"663 -150 OFFCURVE",
"590 -64 OFFCURVE",
"492 -15 CURVE SMOOTH",
"478 -8 OFFCURVE",
"460 -3 OFFCURVE",
"443 -1 CURVE",
"443 1 LINE",
"465 2 OFFCURVE",
"477 6 OFFCURVE",
"484 9 CURVE SMOOTH",
"604 57 OFFCURVE",
"690 172 OFFCURVE",
"690 325 CURVE SMOOTH",
"690 494 OFFCURVE",
"567 651 OFFCURVE",
"367 651 CURVE SMOOTH",
"220 651 OFFCURVE",
"48 528 OFFCURVE",
"48 307 CURVE SMOOTH",
"48 203 OFFCURVE",
"93 106 OFFCURVE",
"172 45 CURVE SMOOTH",
"209 16 OFFCURVE",
"267 -3 OFFCURVE",
"325 -16 CURVE SMOOTH",
"356 -23 OFFCURVE",
"377 -30 OFFCURVE",
"401 -42 CURVE SMOOTH",
"516 -101 OFFCURVE",
"560 -200 OFFCURVE",
"696 -200 CURVE",
"760 -198 OFFCURVE",
"832 -145 OFFCURVE",
"832 -83 CURVE SMOOTH",
"832 -26 OFFCURVE",
"783 -3 OFFCURVE",
"761 -3 CURVE SMOOTH",
"718 -3 OFFCURVE",
"700 -30 OFFCURVE",
"704 -49 CURVE",
"745 -50 OFFCURVE",
"770 -85 OFFCURVE",
"770 -115 CURVE SMOOTH",
"770 -132 OFFCURVE",
"760 -147 OFFCURVE",
"735 -150 CURVE"
);
},
{
closed = 1;
nodes = (
"230 21 OFFCURVE",
"166 159 OFFCURVE",
"166 310 CURVE SMOOTH",
"166 469 OFFCURVE",
"225 608 OFFCURVE",
"366 608 CURVE SMOOTH",
"504 608 OFFCURVE",
"571 475 OFFCURVE",
"571 325 CURVE SMOOTH",
"571 165 OFFCURVE",
"508 21 OFFCURVE",
"366 21 CURVE SMOOTH"
);
}
);
width = 737;
}
);
leftKerningGroup = O;
rightKerningGroup = O;
unicode = 0051;
},
{
color = 4;
glyphname = R;
lastChange = "2016-09-08 14:05:00 +0000";
layers = (
{
background = {
paths = (
{
closed = 1;
nodes = (
"302 594 LINE",
"281 594 LINE",
"253 587 LINE",
"238 568 LINE",
"232 536 LINE",
"232 511 LINE",
"232 319 LINE",
"320 319 LINE",
"371 319 LINE",
"430 348 LINE",
"460 390 LINE",
"469 439 LINE",
"469 459 LINE",
"469 483 LINE",
"453 532 LINE",
"415 570 LINE",
"351 594 LINE"
);
},
{
closed = 1;
nodes = (
"418 301 LINE",
"456 241 LINE",
"534 120 LINE",
"585 67 LINE",
"599 56 LINE",
"626 42 LINE",
"645 40 LINE",
"653 39 LINE",
"669 36 LINE",
"670 19 LINE",
"670 11 LINE",
"662 -3 LINE",
"652 -3 LINE",
"636 -2 LINE",
"615 -1 LINE",
"597 0 LINE",
"577 0 LINE",
"562 0 LINE",
"520 8 LINE",
"464 49 LINE",
"437 87 LINE",
"409 125 LINE",
"361 202 LINE",
"338 240 LINE",
"331 250 LINE",
"319 266 LINE",
"303 275 LINE",
"279 280 LINE",
"261 280 LINE",
"232 280 LINE",
"232 117 LINE",
"232 103 LINE",
"235 75 LINE",
"247 53 LINE",
"273 40 LINE",
"297 40 LINE",
"307 40 LINE",
"321 36 LINE",
"322 19 LINE",
"322 11 LINE",
"314 -3 LINE",
"304 -3 LINE",
"239 0 LINE",
"179 0 LINE",
"149 0 LINE",
"93 -1 LINE",
"61 -3 LINE",
"51 -3 LINE",
"43 11 LINE",
"43 19 LINE",
"44 36 LINE",
"57 40 LINE",
"68 40 LINE",
"92 40 LINE",
"118 53 LINE",
"130 75 LINE",
"133 103 LINE",
"133 117 LINE",
"133 513 LINE",
"133 527 LINE",
"130 555 LINE",
"118 577 LINE",
"92 591 LINE",
"68 591 LINE",
"57 591 LINE",
"44 595 LINE",
"43 612 LINE",
"43 620 LINE",
"51 634 LINE",
"61 634 LINE",
"93 632 LINE",
"150 631 LINE",
"180 631 LINE",
"352 631 LINE",
"413 630 LINE",
"499 601 LINE",
"554 556 LINE",
"580 498 LINE",
"580 468 LINE",
"580 441 LINE",
"558 390 LINE",
"516 346 LINE",
"456 311 LINE"
);
}
);
};
layerId = UUID0;
paths = (
{
closed = 1;
nodes = (
"432 594 OFFCURVE",
"469 524 OFFCURVE",
"469 459 CURVE SMOOTH",
"469 406 OFFCURVE",
"455 319 OFFCURVE",
"320 319 CURVE SMOOTH",
"232 319 LINE",
"232 511 LINE SMOOTH",
"232 578 OFFCURVE",
"245 594 OFFCURVE",
"302 594 CURVE SMOOTH"
);
},
{
closed = 1;
nodes = (
"520 328 OFFCURVE",
"580 397 OFFCURVE",
"580 468 CURVE SMOOTH",
"580 548 OFFCURVE",
"514 628 OFFCURVE",
"352 631 CURVE",
"180 631 LINE",
"140 631 OFFCURVE",
"104 632 OFFCURVE",
"61 634 CURVE SMOOTH",
"48 634 OFFCURVE",
"43 623 OFFCURVE",
"43 612 CURVE SMOOTH",
"44 589 OFFCURVE",
"54 591 OFFCURVE",
"68 591 CURVE SMOOTH",
"131 591 OFFCURVE",
"132 551 OFFCURVE",
"133 513 CURVE",
"133 117 LINE",
"132 79 OFFCURVE",
"131 40 OFFCURVE",
"68 40 CURVE SMOOTH",
"54 40 OFFCURVE",
"44 42 OFFCURVE",
"43 19 CURVE SMOOTH",
"43 8 OFFCURVE",
"48 -3 OFFCURVE",
"61 -3 CURVE SMOOTH",
"104 -1 OFFCURVE",
"139 0 OFFCURVE",
"179 0 CURVE SMOOTH",
"219 0 OFFCURVE",
"261 -1 OFFCURVE",
"304 -3 CURVE SMOOTH",
"317 -3 OFFCURVE",
"322 8 OFFCURVE",
"322 19 CURVE SMOOTH",
"321 42 OFFCURVE",
"310 40 OFFCURVE",
"297 40 CURVE SMOOTH",
"234 40 OFFCURVE",
"233 79 OFFCURVE",
"232 117 CURVE",
"232 280 LINE",
"261 280 LINE SMOOTH",
"310 280 OFFCURVE",
"320 268 OFFCURVE",
"338 240 CURVE",
"369 190 OFFCURVE",
"400 137 OFFCURVE",
"437 87 CURVE SMOOTH",
"473 37 OFFCURVE",
"507 11 OFFCURVE",
"562 0 CURVE",
"602 0 OFFCURVE",
"609 -1 OFFCURVE",
"652 -3 CURVE SMOOTH",
"665 -3 OFFCURVE",
"670 8 OFFCURVE",
"670 19 CURVE SMOOTH",
"669 41 OFFCURVE",
"656 39 OFFCURVE",
"645 40 CURVE SMOOTH",
"620 43 OFFCURVE",
"603 52 OFFCURVE",
"585 67 CURVE SMOOTH",
"517 137 OFFCURVE",
"468 221 OFFCURVE",
"418 301 CURVE SMOOTH"
);
}
);
width = 671;
}
);
leftKerningGroup = I;
unicode = 0052;
},
{
color = 4;
glyphname = S;
lastChange = "2016-09-08 14:05:00 +0000";
layers = (
{
background = {
paths = (
{
closed = 1;
nodes = (
"265 20 LINE",
"297 20 LINE",
"348 40 LINE",
"383 72 LINE",
"401 113 LINE",
"401 134 LINE",
"401 175 LINE",
"351 229 LINE",
"277 269 LINE",
"190 305 LINE",
"114 352 LINE",
"63 420 LINE",
"62 472 LINE",
"61 519 LINE",
"93 587 LINE",
"152 630 LINE",
"232 651 LINE",
"278 651 LINE",
"311 651 LINE",
"379 637 LINE",
"433 607 LINE",
"467 559 LINE",
"467 525 LINE",
"467 489 LINE",
"418 442 LINE",
"379 442 LINE",
"353 444 LINE",
"332 467 LINE",
"332 473 LINE",
"332 475 LINE",
"347 480 LINE",
"365 492 LINE",
"380 513 LINE",
"380 531 LINE",
"380 569 LINE",
"322 610 LINE",
"279 610 LINE",
"246 610 LINE",
"199 593 LINE",
"169 566 LINE",
"155 530 LINE",
"155 511 LINE",
"155 474 LINE",
"195 428 LINE",
"235 406 LINE",
"280 382 LINE",
"373 342 LINE",
"450 290 LINE",
"499 216 LINE",
"499 157 LINE",
"499 119 LINE",
"462 54 LINE",
"399 7 LINE",
"313 -20 LINE",
"265 -20 LINE",
"160 -20 LINE",
"49 52 LINE",
"49 124 LINE",
"49 160 LINE",
"98 207 LINE",
"137 207 LINE",
"163 205 LINE",
"184 182 LINE",
"184 176 LINE",
"184 174 LINE",
"173 169 LINE",
"159 157 LINE",
"148 136 LINE",
"148 118 LINE",
"148 73 LINE",
"203 20 LINE"
);
}
);
};
layerId = UUID0;
paths = (
{
closed = 1;
nodes = (
"183 20 OFFCURVE",
"148 58 OFFCURVE",
"148 118 CURVE SMOOTH",
"148 165 OFFCURVE",
"184 171 OFFCURVE",
"184 176 CURVE SMOOTH",
"184 184 OFFCURVE",
"172 205 OFFCURVE",
"137 207 CURVE",
"85 207 OFFCURVE",
"49 172 OFFCURVE",
"49 124 CURVE SMOOTH",
"49 29 OFFCURVE",
"126 -20 OFFCURVE",
"265 -20 CURVE SMOOTH",
"394 -20 OFFCURVE",
"499 55 OFFCURVE",
"499 157 CURVE SMOOTH",
"499 314 OFFCURVE",
"354 341 OFFCURVE",
"235 406 CURVE SMOOTH",
"182 435 OFFCURVE",
"155 462 OFFCURVE",
"155 511 CURVE SMOOTH",
"155 562 OFFCURVE",
"192 610 OFFCURVE",
"279 610 CURVE SMOOTH",
"336 610 OFFCURVE",
"380 581 OFFCURVE",
"380 531 CURVE SMOOTH",
"380 484 OFFCURVE",
"332 478 OFFCURVE",
"332 473 CURVE SMOOTH",
"332 465 OFFCURVE",
"344 444 OFFCURVE",
"379 442 CURVE",
"431 442 OFFCURVE",
"467 477 OFFCURVE",
"467 525 CURVE SMOOTH",
"467 615 OFFCURVE",
"367 651 OFFCURVE",
"278 651 CURVE SMOOTH",
"155 651 OFFCURVE",
"59 597 OFFCURVE",
"62 472 CURVE SMOOTH",
"67 263 OFFCURVE",
"401 300 OFFCURVE",
"401 134 CURVE SMOOTH",
"401 77 OFFCURVE",
"351 20 OFFCURVE",
"265 20 CURVE SMOOTH"
);
}
);
width = 545;
}
);
unicode = 0053;
},
{
color = 4;
glyphname = T;
lastChange = "2016-09-08 14:05:00 +0000";
layers = (
{
background = {
paths = (
{
closed = 1;
nodes = (
"545 631 LINE",
"556 631 LINE",
"571 621 LINE",
"571 607 LINE",
"575 466 LINE",
"575 456 LINE",
"558 446 LINE",
"550 446 LINE",
"539 446 LINE",
"518 455 LINE",
"516 464 LINE",
"511 498 LINE",
"498 546 LINE",
"477 578 LINE",
"444 593 LINE",
"418 594 LINE",
"350 594 LINE",
"350 117 LINE",
"350 103 LINE",
"353 75 LINE",
"365 53 LINE",
"391 40 LINE",
"415 40 LINE",
"425 40 LINE",
"439 36 LINE",
"440 19 LINE",
"440 11 LINE",
"432 -3 LINE",
"422 -3 LINE",
"390 -1 LINE",
"333 0 LINE",
"304 0 LINE",
"243 0 LINE",
"179 -3 LINE",
"169 -3 LINE",
"161 11 LINE",
"161 19 LINE",
"162 36 LINE",
"175 40 LINE",
"186 40 LINE",
"210 40 LINE",
"236 53 LINE",
"248 75 LINE",
"251 103 LINE",
"251 117 LINE",
"251 594 LINE",
"182 594 LINE",
"156 593 LINE",
"123 578 LINE",
"102 546 LINE",
"90 498 LINE",
"85 464 LINE",
"83 455 LINE",
"61 446 LINE",
"50 446 LINE",
"42 446 LINE",
"26 456 LINE",
"26 466 LINE",
"29 607 LINE",
"29 621 LINE",
"45 631 LINE",
"56 631 LINE"
);
}
);
};
layerId = UUID0;
paths = (
{
closed = 1;
nodes = (
"56 631 LINE",
"41 631 OFFCURVE",
"29 626 OFFCURVE",
"29 607 CURVE SMOOTH",
"26 466 LINE SMOOTH",
"26 453 OFFCURVE",
"40 446 OFFCURVE",
"50 446 CURVE SMOOTH",
"65 446 OFFCURVE",
"83 452 OFFCURVE",
"85 464 CURVE SMOOTH",
"98 554 OFFCURVE",
"113 592 OFFCURVE",
"182 594 CURVE",
"251 594 LINE",
"251 117 LINE",
"250 79 OFFCURVE",
"249 40 OFFCURVE",
"186 40 CURVE SMOOTH",
"172 40 OFFCURVE",
"162 42 OFFCURVE",
"161 19 CURVE SMOOTH",
"161 8 OFFCURVE",
"166 -3 OFFCURVE",
"179 -3 CURVE SMOOTH",
"222 -1 OFFCURVE",
"264 0 OFFCURVE",
"304 0 CURVE SMOOTH",
"343 0 OFFCURVE",
"379 -1 OFFCURVE",
"422 -3 CURVE SMOOTH",
"435 -3 OFFCURVE",
"440 8 OFFCURVE",
"440 19 CURVE SMOOTH",
"439 42 OFFCURVE",
"428 40 OFFCURVE",
"415 40 CURVE SMOOTH",
"352 40 OFFCURVE",
"351 79 OFFCURVE",
"350 117 CURVE",
"350 594 LINE",
"418 594 LINE",
"488 592 OFFCURVE",
"502 554 OFFCURVE",
"516 464 CURVE SMOOTH",
"518 452 OFFCURVE",
"536 446 OFFCURVE",
"550 446 CURVE SMOOTH",
"561 446 OFFCURVE",
"575 453 OFFCURVE",
"575 466 CURVE SMOOTH",
"571 607 LINE SMOOTH",
"571 626 OFFCURVE",
"560 631 OFFCURVE",
"545 631 CURVE SMOOTH"
);
}
);
width = 600;
}
);
unicode = 0054;
},
{
color = 4;
glyphname = U;
lastChange = "2016-09-08 14:05:00 +0000";
layers = (
{
anchors = (
{
name = top;
position = "{379, 650}";
}
);
background = {
paths = (
{
closed = 1;
nodes = (
"600 178 LINE",
"600 125 LINE",
"554 50 LINE",
"483 2 LINE",
"398 -20 LINE",
"359 -20 LINE",
"299 -20 LINE",
"208 13 LINE",
"148 67 LINE",
"117 136 LINE",
"117 173 LINE",
"117 514 LINE",
"117 528 LINE",
"114 556 LINE",
"102 578 LINE",
"76 591 LINE",
"52 591 LINE",
"41 591 LINE",
"28 595 LINE",
"27 612 LINE",
"27 620 LINE",
"35 634 LINE",
"45 634 LINE",
"77 632 LINE",
"133 631 LINE",
"163 631 LINE",
"223 631 LINE",
"288 634 LINE",
"298 634 LINE",
"306 620 LINE",
"306 612 LINE",
"305 597 LINE",
"295 591 LINE",
"286 591 LINE",
"260 591 LINE",
"233 578 LINE",
"219 557 LINE",
"216 529 LINE",
"216 514 LINE",
"216 202 LINE",
"216 176 LINE",
"226 119 LINE",
"259 71 LINE",
"322 39 LINE",
"375 39 LINE",
"426 39 LINE",
"491 65 LINE",
"529 108 LINE",
"544 161 LINE",
"544 188 LINE",
"544 451 LINE",
"544 500 LINE",
"539 556 LINE",
"523 584 LINE",
"492 591 LINE",
"467 591 LINE",
"457 591 LINE",
"443 595 LINE",
"442 612 LINE",
"442 620 LINE",
"450 634 LINE",
"460 634 LINE",
"492 632 LINE",
"542 631 LINE",
"572 631 LINE",
"602 631 LINE",
"652 632 LINE",
"684 634 LINE",
"694 634 LINE",
"702 620 LINE",
"702 612 LINE",
"701 597 LINE",
"691 591 LINE",
"682 591 LINE",
"655 591 LINE",
"622 585 LINE",
"605 559 LINE",
"600 505 LINE",
"600 457 LINE"
);
}
);
};
layerId = UUID0;
paths = (
{
closed = 1;
nodes = (
"600 457 LINE",
"600 586 OFFCURVE",
"609 591 OFFCURVE",
"682 591 CURVE SMOOTH",
"694 591 OFFCURVE",
"701 592 OFFCURVE",
"702 612 CURVE SMOOTH",
"702 623 OFFCURVE",
"697 634 OFFCURVE",
"684 634 CURVE SMOOTH",
"641 632 OFFCURVE",
"612 631 OFFCURVE",
"572 631 CURVE SMOOTH",
"532 631 OFFCURVE",
"503 632 OFFCURVE",
"460 634 CURVE SMOOTH",
"447 634 OFFCURVE",
"442 623 OFFCURVE",
"442 612 CURVE SMOOTH",
"443 589 OFFCURVE",
"454 591 OFFCURVE",
"467 591 CURVE SMOOTH",
"535 591 OFFCURVE",
"544 582 OFFCURVE",
"544 451 CURVE SMOOTH",
"544 188 LINE SMOOTH",
"544 116 OFFCURVE",
"510 39 OFFCURVE",
"375 39 CURVE SMOOTH",
"234 39 OFFCURVE",
"216 133 OFFCURVE",
"216 202 CURVE SMOOTH",
"216 514 LINE",
"217 555 OFFCURVE",
"218 591 OFFCURVE",
"286 591 CURVE SMOOTH",
"298 591 OFFCURVE",
"305 592 OFFCURVE",
"306 612 CURVE SMOOTH",
"306 623 OFFCURVE",
"301 634 OFFCURVE",
"288 634 CURVE SMOOTH",
"245 632 OFFCURVE",
"203 631 OFFCURVE",
"163 631 CURVE SMOOTH",
"123 631 OFFCURVE",
"88 632 OFFCURVE",
"45 634 CURVE SMOOTH",
"32 634 OFFCURVE",
"27 623 OFFCURVE",
"27 612 CURVE SMOOTH",
"28 589 OFFCURVE",
"38 591 OFFCURVE",
"52 591 CURVE SMOOTH",
"115 591 OFFCURVE",
"116 552 OFFCURVE",
"117 514 CURVE",
"117 173 LINE SMOOTH",
"117 75 OFFCURVE",
"199 -20 OFFCURVE",
"359 -20 CURVE SMOOTH",
"462 -20 OFFCURVE",
"600 36 OFFCURVE",
"600 178 CURVE SMOOTH"
);
}
);
width = 720;
}
);
leftKerningGroup = U;
rightKerningGroup = U;
unicode = 0055;
},
{
color = 4;
glyphname = W;
lastChange = "2016-09-08 14:05:00 +0000";
layers = (
{
background = {
paths = (
{
closed = 1;
nodes = (
"33 593 LINE",
"19 596 LINE",
"8 600 LINE",
"8 616 LINE",
"8 633 LINE",
"31 636 LINE",
"48 636 LINE",
"115 635 LINE",
"188 588 LINE",
"211 531 LINE",
"325 165 LINE",
"329 165 LINE",
"451 631 LINE",
"503 631 LINE",
"666 165 LINE",
"669 165 LINE",
"782 542 LINE",
"790 574 LINE",
"773 591 LINE",
"738 591 LINE",
"727 591 LINE",
"714 595 LINE",
"713 612 LINE",
"713 620 LINE",
"721 634 LINE",
"730 634 LINE",
"762 632 LINE",
"809 631 LINE",
"839 631 LINE",
"854 631 LINE",
"875 631 LINE",
"895 632 LINE",
"917 633 LINE",
"933 634 LINE",
"943 634 LINE",
"951 620 LINE",
"951 612 LINE",
"950 595 LINE",
"937 591 LINE",
"926 591 LINE",
"888 591 LINE",
"839 562 LINE",
"828 523 LINE",
"664 -10 LINE",
"617 -10 LINE",
"455 467 LINE",
"326 -10 LINE",
"279 -10 LINE",
"113 510 LINE",
"105 530 LINE",
"90 559 LINE",
"72 578 LINE",
"49 590 LINE"
);
}
);
};
layerId = UUID0;
paths = (
{
closed = 1;
nodes = (
"76 585 OFFCURVE",
"91 564 OFFCURVE",
"113 510 CURVE",
"279 -10 LINE",
"326 -10 LINE",
"455 467 LINE",
"617 -10 LINE",
"664 -10 LINE",
"828 523 LINE",
"843 575 OFFCURVE",
"875 591 OFFCURVE",
"926 591 CURVE SMOOTH",
"940 591 OFFCURVE",
"950 589 OFFCURVE",
"951 612 CURVE SMOOTH",
"951 623 OFFCURVE",
"946 634 OFFCURVE",
"933 634 CURVE SMOOTH",
"890 632 OFFCURVE",
"879 631 OFFCURVE",
"839 631 CURVE SMOOTH",
"799 631 OFFCURVE",
"773 632 OFFCURVE",
"730 634 CURVE SMOOTH",
"718 634 OFFCURVE",
"713 623 OFFCURVE",
"713 612 CURVE SMOOTH",
"714 589 OFFCURVE",
"724 591 OFFCURVE",
"738 591 CURVE SMOOTH",
"784 591 OFFCURVE",
"793 585 OFFCURVE",
"782 542 CURVE",
"669 165 LINE",
"666 165 LINE",
"503 631 LINE",
"451 631 LINE",
"329 165 LINE",
"325 165 LINE",
"211 531 LINE",
"181 607 OFFCURVE",
"137 635 OFFCURVE",
"48 636 CURVE",
"26 636 OFFCURVE",
"8 639 OFFCURVE",
"8 616 CURVE SMOOTH",
"8 595 OFFCURVE",
"14 597 OFFCURVE",
"33 593 CURVE"
);
}
);
width = 934;
}
);
unicode = 0057;
},
{
color = 4;
glyphname = X;
lastChange = "2016-09-08 14:05:00 +0000";
layers = (
{
background = {
paths = (
{
closed = 1;
nodes = (
"543 109 LINE",
"560 84 LINE",
"601 40 LINE",
"634 40 LINE",
"645 40 LINE",
"658 36 LINE",
"659 19 LINE",
"659 11 LINE",
"651 -3 LINE",
"642 -3 LINE",
"610 -1 LINE",
"552 0 LINE",
"522 0 LINE",
"464 0 LINE",
"400 -3 LINE",
"390 -3 LINE",
"382 11 LINE",
"382 19 LINE",
"383 36 LINE",
"397 40 LINE",
"407 40 LINE",
"437 40 LINE",
"453 70 LINE",
"439 89 LINE",
"311 272 LINE",
"183 89 LINE",
"172 73 LINE",
"170 54 LINE",
"183 43 LINE",
"210 40 LINE",
"227 40 LINE",
"238 40 LINE",
"251 36 LINE",
"252 19 LINE",
"252 11 LINE",
"244 -3 LINE",
"235 -3 LINE",
"203 -1 LINE",
"156 0 LINE",
"126 0 LINE",
"111 0 LINE",
"88 0 LINE",
"65 -1 LINE",
"41 -2 LINE",
"25 -3 LINE",
"15 -3 LINE",
"7 11 LINE",
"7 19 LINE",
"8 36 LINE",
"21 40 LINE",
"32 40 LINE",
"51 40 LINE",
"78 47 LINE",
"101 62 LINE",
"123 88 LINE",
"137 108 LINE",
"282 314 LINE",
"154 515 LINE",
"129 553 LINE",
"83 586 LINE",
"51 593 LINE",
"37 596 LINE",
"26 600 LINE",
"26 616 LINE",
"26 633 LINE",
"49 636 LINE",
"66 636 LINE",
"101 636 LINE",
"156 625 LINE",
"201 600 LINE",
"239 560 LINE",
"259 532 LINE",
"341 398 LINE",
"440 542 LINE",
"451 558 LINE",
"453 578 LINE",
"439 588 LINE",
"413 591 LINE",
"396 591 LINE",
"385 591 LINE",
"372 595 LINE",
"371 612 LINE",
"371 620 LINE",
"379 634 LINE",
"388 634 LINE",
"420 632 LINE",
"467 631 LINE",
"497 631 LINE",
"512 631 LINE",
"535 631 LINE",
"558 632 LINE",
"582 633 LINE",
"598 634 LINE",
"608 634 LINE",
"616 620 LINE",
"616 612 LINE",
"615 595 LINE",
"602 591 LINE",
"591 591 LINE",
"572 591 LINE",
"544 584 LINE",
"521 569 LINE",
"499 542 LINE",
"486 523 LINE",
"369 357 LINE",
"543 109 LINE"
);
}
);
};
layerId = UUID0;
paths = (
{
closed = 1;
nodes = (
"369 357 LINE",
"486 523 LINE SMOOTH",
"522 575 OFFCURVE",
"540 591 OFFCURVE",
"591 591 CURVE SMOOTH",
"605 591 OFFCURVE",
"615 589 OFFCURVE",
"616 612 CURVE SMOOTH",
"616 623 OFFCURVE",
"611 634 OFFCURVE",
"598 634 CURVE SMOOTH",
"555 632 OFFCURVE",
"537 631 OFFCURVE",
"497 631 CURVE SMOOTH",
"457 631 OFFCURVE",
"431 632 OFFCURVE",
"388 634 CURVE SMOOTH",
"376 634 OFFCURVE",
"371 623 OFFCURVE",
"371 612 CURVE SMOOTH",
"372 589 OFFCURVE",
"382 591 OFFCURVE",
"396 591 CURVE SMOOTH",
"442 591 OFFCURVE",
"469 586 OFFCURVE",
"440 542 CURVE",
"341 398 LINE",
"259 532 LINE",
"207 608 OFFCURVE",
"160 636 OFFCURVE",
"66 636 CURVE SMOOTH",
"44 636 OFFCURVE",
"26 639 OFFCURVE",
"26 616 CURVE SMOOTH",
"26 595 OFFCURVE",
"32 597 OFFCURVE",
"51 593 CURVE SMOOTH",
"94 584 OFFCURVE",
"121 565 OFFCURVE",
"154 515 CURVE",
"282 314 LINE",
"137 108 LINE SMOOTH",
"100 56 OFFCURVE",
"83 40 OFFCURVE",
"32 40 CURVE SMOOTH",
"18 40 OFFCURVE",
"8 42 OFFCURVE",
"7 19 CURVE SMOOTH",
"7 8 OFFCURVE",
"12 -3 OFFCURVE",
"25 -3 CURVE SMOOTH",
"68 -1 OFFCURVE",
"86 0 OFFCURVE",
"126 0 CURVE SMOOTH",
"166 0 OFFCURVE",
"192 -1 OFFCURVE",
"235 -3 CURVE SMOOTH",
"247 -3 OFFCURVE",
"252 8 OFFCURVE",
"252 19 CURVE SMOOTH",
"251 42 OFFCURVE",
"241 40 OFFCURVE",
"227 40 CURVE SMOOTH",
"181 40 OFFCURVE",
"153 46 OFFCURVE",
"183 89 CURVE SMOOTH",
"311 272 LINE",
"439 89 LINE SMOOTH",
"457 64 OFFCURVE",
"447 40 OFFCURVE",
"407 40 CURVE SMOOTH",
"394 40 OFFCURVE",
"383 42 OFFCURVE",
"382 19 CURVE SMOOTH",
"382 8 OFFCURVE",
"387 -3 OFFCURVE",
"400 -3 CURVE SMOOTH",
"443 -1 OFFCURVE",
"482 0 OFFCURVE",
"522 0 CURVE SMOOTH",
"562 0 OFFCURVE",
"599 -1 OFFCURVE",
"642 -3 CURVE SMOOTH",
"654 -3 OFFCURVE",
"659 8 OFFCURVE",
"659 19 CURVE SMOOTH",
"658 42 OFFCURVE",
"648 40 OFFCURVE",
"634 40 CURVE SMOOTH",
"590 40 OFFCURVE",
"565 76 OFFCURVE",
"543 109 CURVE"
);
}
);
width = 653;
}
);
unicode = 0058;
},
{
color = 4;
glyphname = Y;
lastChange = "2016-09-08 14:05:00 +0000";
layers = (
{
anchors = (
{
name = top;
position = "{305, 650}";
}
);
background = {
paths = (
{
closed = 1;
nodes = (
"236 532 LINE",
"265 478 LINE",
"312 377 LINE",
"341 323 LINE",
"344 323 LINE",
"455 542 LINE",
"464 559 LINE",
"465 578 LINE",
"453 588 LINE",
"428 591 LINE",
"411 591 LINE",
"400 591 LINE",
"387 595 LINE",
"386 612 LINE",
"386 620 LINE",
"394 634 LINE",
"403 634 LINE",
"435 632 LINE",
"482 631 LINE",
"512 631 LINE",
"527 631 LINE",
"550 631 LINE",
"573 632 LINE",
"597 633 LINE",
"613 634 LINE",
"623 634 LINE",
"631 620 LINE",
"631 612 LINE",
"630 595 LINE",
"617 591 LINE",
"606 591 LINE",
"568 591 LINE",
"520 558 LINE",
"501 523 LINE",
"388 310 LINE",
"381 295 LINE",
"371 275 LINE",
"364 255 LINE",
"361 231 LINE",
"361 214 LINE",
"361 117 LINE",
"361 103 LINE",
"364 75 LINE",
"376 53 LINE",
"402 40 LINE",
"426 40 LINE",
"437 40 LINE",
"450 36 LINE",
"451 19 LINE",
"451 11 LINE",
"443 -3 LINE",
"434 -3 LINE",
"402 -1 LINE",
"344 0 LINE",
"314 0 LINE",
"254 0 LINE",
"190 -3 LINE",
"180 -3 LINE",
"172 11 LINE",
"172 19 LINE",
"173 36 LINE",
"187 40 LINE",
"197 40 LINE",
"221 40 LINE",
"247 53 LINE",
"259 75 LINE",
"262 103 LINE",
"262 117 LINE",
"262 242 LINE",
"262 248 LINE",
"247 286 LINE",
"223 338 LINE",
"193 398 LINE",
"164 455 LINE",
"139 502 LINE",
"132 515 LINE",
"111 553 LINE",
"61 586 LINE",
"29 593 LINE",
"15 596 LINE",
"4 600 LINE",
"4 616 LINE",
"4 633 LINE",
"27 636 LINE",
"44 636 LINE",
"79 636 LINE",
"135 626 LINE",
"181 602 LINE",
"219 562 LINE"
);
}
);
};
layerId = UUID0;
paths = (
{
closed = 1;
nodes = (
"190 612 OFFCURVE",
"138 636 OFFCURVE",
"44 636 CURVE SMOOTH",
"22 636 OFFCURVE",
"4 639 OFFCURVE",
"4 616 CURVE SMOOTH",
"4 595 OFFCURVE",
"10 597 OFFCURVE",
"29 593 CURVE SMOOTH",
"72 584 OFFCURVE",
"104 566 OFFCURVE",
"132 515 CURVE",
"161 463 OFFCURVE",
"262 267 OFFCURVE",
"262 242 CURVE SMOOTH",
"262 117 LINE",
"261 79 OFFCURVE",
"260 40 OFFCURVE",
"197 40 CURVE SMOOTH",
"184 40 OFFCURVE",
"173 42 OFFCURVE",
"172 19 CURVE SMOOTH",
"172 8 OFFCURVE",
"177 -3 OFFCURVE",
"190 -3 CURVE SMOOTH",
"233 -1 OFFCURVE",
"274 0 OFFCURVE",
"314 0 CURVE SMOOTH",
"354 0 OFFCURVE",
"391 -1 OFFCURVE",
"434 -3 CURVE SMOOTH",
"446 -3 OFFCURVE",
"451 8 OFFCURVE",
"451 19 CURVE SMOOTH",
"450 42 OFFCURVE",
"440 40 OFFCURVE",
"426 40 CURVE SMOOTH",
"363 40 OFFCURVE",
"362 79 OFFCURVE",
"361 117 CURVE",
"361 214 LINE SMOOTH",
"361 260 OFFCURVE",
"369 271 OFFCURVE",
"388 310 CURVE",
"501 523 LINE",
"526 570 OFFCURVE",
"555 591 OFFCURVE",
"606 591 CURVE SMOOTH",
"620 591 OFFCURVE",
"630 589 OFFCURVE",
"631 612 CURVE SMOOTH",
"631 623 OFFCURVE",
"626 634 OFFCURVE",
"613 634 CURVE SMOOTH",
"570 632 OFFCURVE",
"552 631 OFFCURVE",
"512 631 CURVE SMOOTH",
"472 631 OFFCURVE",
"446 632 OFFCURVE",
"403 634 CURVE SMOOTH",
"391 634 OFFCURVE",
"386 623 OFFCURVE",
"386 612 CURVE SMOOTH",
"387 589 OFFCURVE",
"397 591 OFFCURVE",
"411 591 CURVE SMOOTH",
"457 591 OFFCURVE",
"478 587 OFFCURVE",
"455 542 CURVE",
"344 323 LINE",
"341 323 LINE",
"302 394 OFFCURVE",
"274 460 OFFCURVE",
"236 532 CURVE"
);
}
);
width = 621;
}
);
leftKerningGroup = Y;
rightKerningGroup = Y;
unicode = 0059;
},
{
color = 4;
glyphname = Z;
lastChange = "2016-09-08 14:05:00 +0000";
layers = (
{
background = {
paths = (
{
closed = 1;
nodes = (
"358 515 LINE",
"371 543 LINE",
"379 574 LINE",
"368 588 LINE",
"341 591 LINE",
"319 591 LINE",
"210 591 LINE",
"184 590 LINE",
"152 579 LINE",
"130 552 LINE",
"113 508 LINE",
"103 475 LINE",
"100 465 LINE",
"81 459 LINE",
"70 461 LINE",
"62 463 LINE",
"48 474 LINE",
"49 484 LINE",
"69 610 LINE",
"72 624 LINE",
"85 631 LINE",
"98 631 LINE",
"441 631 LINE",
"499 631 LINE",
"564 634 LINE",
"574 634 LINE",
"582 620 LINE",
"582 612 LINE",
"581 595 LINE",
"568 592 LINE",
"557 591 LINE",
"539 590 LINE",
"511 575 LINE",
"490 554 LINE",
"475 528 LINE",
"468 515 LINE",
"249 100 LINE",
"245 91 LINE",
"239 70 LINE",
"245 52 LINE",
"268 40 LINE",
"294 40 LINE",
"412 40 LINE",
"438 41 LINE",
"471 52 LINE",
"493 79 LINE",
"510 123 LINE",
"520 156 LINE",
"523 166 LINE",
"542 172 LINE",
"553 170 LINE",
"561 168 LINE",
"575 157 LINE",
"574 147 LINE",
"554 21 LINE",
"551 7 LINE",
"538 0 LINE",
"525 0 LINE",
"172 0 LINE",
"142 0 LINE",
"84 -1 LINE",
"52 -3 LINE",
"43 -3 LINE",
"34 11 LINE",
"34 19 LINE",
"36 36 LINE",
"49 40 LINE",
"60 40 LINE",
"72 40 LINE",
"90 44 LINE",
"107 56 LINE",
"123 80 LINE",
"134 100 LINE"
);
}
);
};
layerId = UUID0;
paths = (
{
closed = 1;
nodes = (
"134 100 LINE",
"105 47 OFFCURVE",
"93 40 OFFCURVE",
"60 40 CURVE SMOOTH",
"46 40 OFFCURVE",
"36 42 OFFCURVE",
"34 19 CURVE SMOOTH",
"34 8 OFFCURVE",
"40 -3 OFFCURVE",
"52 -3 CURVE SMOOTH",
"95 -1 OFFCURVE",
"132 0 OFFCURVE",
"172 0 CURVE SMOOTH",
"525 0 LINE SMOOTH",
"542 0 OFFCURVE",
"550 2 OFFCURVE",
"554 21 CURVE",
"574 147 LINE",
"575 160 OFFCURVE",
"564 168 OFFCURVE",
"553 170 CURVE SMOOTH",
"538 172 OFFCURVE",
"524 169 OFFCURVE",
"520 156 CURVE SMOOTH",
"493 68 OFFCURVE",
"482 42 OFFCURVE",
"412 40 CURVE",
"294 40 LINE",
"226 41 OFFCURVE",
"238 76 OFFCURVE",
"249 100 CURVE",
"468 515 LINE",
"486 549 OFFCURVE",
"508 588 OFFCURVE",
"557 591 CURVE SMOOTH",
"571 592 OFFCURVE",
"581 589 OFFCURVE",
"582 612 CURVE SMOOTH",
"582 623 OFFCURVE",
"577 634 OFFCURVE",
"564 634 CURVE SMOOTH",
"521 632 OFFCURVE",
"480 631 OFFCURVE",
"441 631 CURVE SMOOTH",
"98 631 LINE SMOOTH",
"81 631 OFFCURVE",
"73 629 OFFCURVE",
"69 610 CURVE",
"49 484 LINE",
"48 471 OFFCURVE",
"59 463 OFFCURVE",
"70 461 CURVE SMOOTH",
"84 459 OFFCURVE",
"99 462 OFFCURVE",
"103 475 CURVE SMOOTH",
"130 563 OFFCURVE",
"141 589 OFFCURVE",
"210 591 CURVE",
"319 591 LINE SMOOTH",
"377 591 OFFCURVE",
"394 590 OFFCURVE",
"358 515 CURVE"
);
}
);
width = 621;
}
);
unicode = 005A;
},
{
color = 4;
glyphname = a;
lastChange = "2016-09-08 14:05:00 +0000";
layers = (
{
anchors = (
{
name = top;
position = "{228, 490}";
}
);
background = {
paths = (
{
closed = 1;
nodes = (
"223 436 LINE",
"194 436 LINE",
"146 400 LINE",
"146 366 LINE",
"146 354 LINE",
"156 335 LINE",
"168 323 LINE",
"178 315 LINE",
"178 314 LINE",
"178 309 LINE",
"155 289 LINE",
"135 289 LINE",
"103 289 LINE",
"70 335 LINE",
"70 363 LINE",
"70 391 LINE",
"98 430 LINE",
"143 454 LINE",
"200 465 LINE",
"229 465 LINE",
"263 465 LINE",
"329 454 LINE",
"381 422 LINE",
"414 365 LINE",
"414 319 LINE",
"414 86 LINE",
"414 78 LINE",
"419 58 LINE",
"431 40 LINE",
"451 27 LINE",
"466 27 LINE",
"473 27 LINE",
"481 22 LINE",
"481 11 LINE",
"481 4 LINE",
"469 -5 LINE",
"451 -10 LINE",
"432 -12 LINE",
"426 -12 LINE",
"389 -12 LINE",
"331 31 LINE",
"326 69 LINE",
"315 49 LINE",
"275 19 LINE",
"228 -2 LINE",
"179 -12 LINE",
"158 -12 LINE",
"132 -12 LINE",
"87 7 LINE",
"54 39 LINE",
"34 82 LINE",
"34 107 LINE",
"34 143 LINE",
"69 193 LINE",
"123 225 LINE",
"190 243 LINE",
"255 252 LINE",
"310 255 LINE",
"326 257 LINE",
"326 336 LINE",
"326 383 LINE",
"280 436 LINE"
);
},
{
closed = 1;
nodes = (
"326 227 LINE",
"278 221 LINE",
"206 205 LINE",
"159 181 LINE",
"135 145 LINE",
"135 120 LINE",
"135 88 LINE",
"171 42 LINE",
"200 42 LINE",
"225 42 LINE",
"271 62 LINE",
"306 96 LINE",
"326 144 LINE",
"326 171 LINE"
);
}
);
};
layerId = UUID0;
paths = (
{
closed = 1;
nodes = (
"298 436 OFFCURVE",
"326 398 OFFCURVE",
"326 336 CURVE SMOOTH",
"326 257 LINE",
"264 250 OFFCURVE",
"34 252 OFFCURVE",
"34 107 CURVE SMOOTH",
"34 41 OFFCURVE",
"90 -12 OFFCURVE",
"158 -12 CURVE SMOOTH",
"213 -12 OFFCURVE",
"297 16 OFFCURVE",
"326 69 CURVE",
"332 18 OFFCURVE",
"377 -12 OFFCURVE",
"426 -12 CURVE SMOOTH",
"443 -12 OFFCURVE",
"481 -7 OFFCURVE",
"481 11 CURVE SMOOTH",
"481 26 OFFCURVE",
"475 27 OFFCURVE",
"466 27 CURVE SMOOTH",
"425 27 OFFCURVE",
"415 66 OFFCURVE",
"414 86 CURVE",
"414 319 LINE SMOOTH",
"414 442 OFFCURVE",
"319 465 OFFCURVE",
"229 465 CURVE SMOOTH",
"152 465 OFFCURVE",
"70 438 OFFCURVE",
"70 363 CURVE SMOOTH",
"70 326 OFFCURVE",
"93 289 OFFCURVE",
"135 289 CURVE SMOOTH",
"162 289 OFFCURVE",
"178 308 OFFCURVE",
"178 314 CURVE SMOOTH",
"178 318 OFFCURVE",
"146 333 OFFCURVE",
"146 366 CURVE SMOOTH",
"146 411 OFFCURVE",
"185 436 OFFCURVE",
"223 436 CURVE SMOOTH"
);
},
{
closed = 1;
nodes = (
"326 171 LINE",
"326 98 OFFCURVE",
"268 42 OFFCURVE",
"200 42 CURVE SMOOTH",
"161 42 OFFCURVE",
"135 77 OFFCURVE",
"135 120 CURVE SMOOTH",
"135 188 OFFCURVE",
"198 210 OFFCURVE",
"326 227 CURVE"
);
}
);
width = 501;
}
);
leftKerningGroup = a;
rightKerningGroup = a;
unicode = 0061;
},
{
color = 4;
glyphname = b;
lastChange = "2016-09-08 14:05:00 +0000";
layers = (
{
background = {
paths = (
{
closed = 1;
nodes = (
"78 590 LINE",
"78 603 LINE",
"78 628 LINE",
"69 647 LINE",
"48 658 LINE",
"27 658 LINE",
"18 658 LINE",
"3 663 LINE",
"3 678 LINE",
"3 684 LINE",
"11 694 LINE",
"19 696 LINE",
"53 701 LINE",
"97 712 LINE",
"125 721 LINE",
"142 727 LINE",
"150 728 LINE",
"158 729 LINE",
"169 721 LINE",
"169 709 LINE",
"169 407 LINE",
"172 407 LINE",
"202 437 LINE",
"275 465 LINE",
"310 465 LINE",
"354 465 LINE",
"431 431 LINE",
"488 369 LINE",
"520 282 LINE",
"520 230 LINE",
"520 179 LINE",
"482 90 LINE",
"419 25 LINE",
"336 -12 LINE",
"291 -12 LINE",
"202 -12 LINE",
"137 37 LINE",
"132 37 LINE",
"128 29 LINE",
"122 12 LINE",
"114 -4 LINE",
"104 -14 LINE",
"97 -14 LINE",
"88 -14 LINE",
"78 -2 LINE",
"78 6 LINE"
);
},
{
closed = 1;
nodes = (
"418 226 LINE",
"418 261 LINE",
"402 329 LINE",
"367 382 LINE",
"313 415 LINE",
"275 415 LINE",
"241 415 LINE",
"189 391 LINE",
"169 369 LINE",
"169 105 LINE",
"171 94 LINE",
"187 66 LINE",
"216 40 LINE",
"256 22 LINE",
"282 22 LINE",
"312 22 LINE",
"362 50 LINE",
"398 103 LINE",
"418 179 LINE"
);
}
);
};
layerId = UUID0;
paths = (
{
closed = 1;
nodes = (
"78 6 LINE SMOOTH",
"78 -5 OFFCURVE",
"85 -14 OFFCURVE",
"97 -14 CURVE SMOOTH",
"117 -14 OFFCURVE",
"122 17 OFFCURVE",
"132 37 CURVE",
"137 37 LINE",
"181 4 OFFCURVE",
"230 -12 OFFCURVE",
"291 -12 CURVE SMOOTH",
"412 -12 OFFCURVE",
"520 93 OFFCURVE",
"520 230 CURVE SMOOTH",
"520 369 OFFCURVE",
"428 465 OFFCURVE",
"310 465 CURVE SMOOTH",
"264 465 OFFCURVE",
"212 447 OFFCURVE",
"172 407 CURVE",
"169 407 LINE",
"169 709 LINE SMOOTH",
"169 725 OFFCURVE",
"160 729 OFFCURVE",
"150 728 CURVE SMOOTH",
"130 726 OFFCURVE",
"110 709 OFFCURVE",
"19 696 CURVE SMOOTH",
"8 694 OFFCURVE",
"3 686 OFFCURVE",
"3 678 CURVE SMOOTH",
"3 658 OFFCURVE",
"15 658 OFFCURVE",
"27 658 CURVE SMOOTH",
"82 658 OFFCURVE",
"78 625 OFFCURVE",
"78 590 CURVE SMOOTH"
);
},
{
closed = 1;
nodes = (
"418 100 OFFCURVE",
"362 22 OFFCURVE",
"282 22 CURVE SMOOTH",
"212 22 OFFCURVE",
"175 77 OFFCURVE",
"169 105 CURVE",
"169 369 LINE",
"196 398 OFFCURVE",
"230 415 OFFCURVE",
"275 415 CURVE SMOOTH",
"377 415 OFFCURVE",
"418 319 OFFCURVE",
"418 226 CURVE SMOOTH"
);
}
);
width = 561;
}
);
leftKerningGroup = b;
rightKerningGroup = o;
unicode = 0062;
},
{
color = 4;
glyphname = c;
lastChange = "2016-09-08 14:05:00 +0000";
layers = (
{
background = {
paths = (
{
closed = 1;
nodes = (
"411 113 LINE",
"418 123 LINE",
"432 115 LINE",
"439 111 LINE",
"445 97 LINE",
"440 90 LINE",
"407 42 LINE",
"310 -12 LINE",
"259 -12 LINE",
"208 -12 LINE",
"127 22 LINE",
"71 85 LINE",
"41 173 LINE",
"41 227 LINE",
"43 279 LINE",
"80 365 LINE",
"143 428 LINE",
"228 463 LINE",
"276 465 LINE",
"289 465 LINE",
"336 461 LINE",
"383 445 LINE",
"423 412 LINE",
"431 382 LINE",
"435 365 LINE",
"430 330 LINE",
"413 301 LINE",
"384 283 LINE",
"365 283 LINE",
"343 283 LINE",
"319 305 LINE",
"319 310 LINE",
"319 311 LINE",
"329 319 LINE",
"342 333 LINE",
"352 352 LINE",
"352 365 LINE",
"352 397 LINE",
"306 427 LINE",
"277 428 LINE",
"233 428 LINE",
"180 391 LINE",
"152 333 LINE",
"143 263 LINE",
"143 230 LINE",
"143 189 LINE",
"162 118 LINE",
"198 67 LINE",
"250 38 LINE",
"282 38 LINE",
"326 38 LINE",
"386 75 LINE"
);
}
);
};
layerId = UUID0;
paths = (
{
closed = 1;
nodes = (
"378 63 OFFCURVE",
"340 38 OFFCURVE",
"282 38 CURVE SMOOTH",
"196 38 OFFCURVE",
"143 120 OFFCURVE",
"143 230 CURVE SMOOTH",
"143 318 OFFCURVE",
"160 429 OFFCURVE",
"277 428 CURVE",
"315 427 OFFCURVE",
"352 408 OFFCURVE",
"352 365 CURVE SMOOTH",
"352 330 OFFCURVE",
"319 314 OFFCURVE",
"319 310 CURVE SMOOTH",
"319 303 OFFCURVE",
"336 283 OFFCURVE",
"365 283 CURVE SMOOTH",
"416 283 OFFCURVE",
"442 337 OFFCURVE",
"431 382 CURVE",
"411 461 OFFCURVE",
"312 465 OFFCURVE",
"276 465 CURVE",
"147 461 OFFCURVE",
"46 365 OFFCURVE",
"41 227 CURVE SMOOTH",
"41 83 OFFCURVE",
"122 -12 OFFCURVE",
"259 -12 CURVE SMOOTH",
"326 -12 OFFCURVE",
"396 27 OFFCURVE",
"440 90 CURVE",
"446 99 OFFCURVE",
"441 110 OFFCURVE",
"432 115 CURVE SMOOTH",
"423 120 OFFCURVE",
"415 119 OFFCURVE",
"411 113 CURVE"
);
}
);
width = 475;
}
);
leftKerningGroup = o;
rightKerningGroup = c;
unicode = 0063;
},
{
color = 4;
glyphname = d;
lastChange = "2016-09-08 14:05:00 +0000";
layers = (
{
background = {
paths = (
{
closed = 1;
nodes = (
"391 352 LINE",
"387 364 LINE",
"370 392 LINE",
"343 414 LINE",
"306 429 LINE",
"282 429 LINE",
"253 429 LINE",
"203 401 LINE",
"165 348 LINE",
"144 271 LINE",
"144 222 LINE",
"144 186 LINE",
"161 120 LINE",
"196 69 LINE",
"249 38 LINE",
"285 38 LINE",
"323 38 LINE",
"373 69 LINE",
"391 88 LINE"
);
},
{
closed = 1;
nodes = (
"482 92 LINE",
"482 63 LINE",
"519 33 LINE",
"560 33 LINE",
"571 33 LINE",
"577 22 LINE",
"577 17 LINE",
"577 3 LINE",
"560 0 LINE",
"401 -11 LINE",
"393 -11 LINE",
"392 1 LINE",
"392 9 LINE",
"392 49 LINE",
"389 49 LINE",
"363 23 LINE",
"289 -12 LINE",
"251 -12 LINE",
"209 -12 LINE",
"133 23 LINE",
"75 86 LINE",
"41 174 LINE",
"41 227 LINE",
"41 273 LINE",
"75 359 LINE",
"137 425 LINE",
"221 465 LINE",
"272 465 LINE",
"304 465 LINE",
"365 450 LINE",
"388 437 LINE",
"391 437 LINE",
"391 590 LINE",
"391 603 LINE",
"391 628 LINE",
"382 647 LINE",
"361 658 LINE",
"340 658 LINE",
"331 658 LINE",
"316 663 LINE",
"316 678 LINE",
"316 684 LINE",
"324 694 LINE",
"332 696 LINE",
"366 701 LINE",
"410 712 LINE",
"438 721 LINE",
"455 727 LINE",
"463 728 LINE",
"471 729 LINE",
"482 721 LINE",
"482 709 LINE"
);
}
);
};
layerId = UUID0;
paths = (
{
closed = 1;
nodes = (
"391 88 LINE",
"367 63 OFFCURVE",
"336 38 OFFCURVE",
"285 38 CURVE SMOOTH",
"189 38 OFFCURVE",
"144 127 OFFCURVE",
"144 222 CURVE SMOOTH",
"144 353 OFFCURVE",
"205 429 OFFCURVE",
"282 429 CURVE SMOOTH",
"345 429 OFFCURVE",
"381 385 OFFCURVE",
"391 352 CURVE"
);
},
{
closed = 1;
nodes = (
"482 709 LINE",
"482 725 OFFCURVE",
"473 729 OFFCURVE",
"463 728 CURVE SMOOTH",
"443 726 OFFCURVE",
"423 709 OFFCURVE",
"332 696 CURVE SMOOTH",
"321 694 OFFCURVE",
"316 686 OFFCURVE",
"316 678 CURVE SMOOTH",
"316 658 OFFCURVE",
"328 658 OFFCURVE",
"340 658 CURVE SMOOTH",
"395 658 OFFCURVE",
"391 625 OFFCURVE",
"391 590 CURVE",
"391 437 LINE",
"388 437 LINE",
"358 454 OFFCURVE",
"314 465 OFFCURVE",
"272 465 CURVE SMOOTH",
"137 465 OFFCURVE",
"41 351 OFFCURVE",
"41 227 CURVE SMOOTH",
"41 85 OFFCURVE",
"139 -12 OFFCURVE",
"251 -12 CURVE SMOOTH",
"302 -12 OFFCURVE",
"355 14 OFFCURVE",
"389 49 CURVE",
"392 49 LINE",
"392 9 LINE SMOOTH",
"392 -2 OFFCURVE",
"391 -11 OFFCURVE",
"401 -11 CURVE",
"560 0 LINE",
"572 2 OFFCURVE",
"577 8 OFFCURVE",
"577 17 CURVE SMOOTH",
"577 23 OFFCURVE",
"575 33 OFFCURVE",
"560 33 CURVE SMOOTH",
"506 33 OFFCURVE",
"482 53 OFFCURVE",
"482 92 CURVE SMOOTH"
);
}
);
width = 580;
}
);
leftKerningGroup = o;
unicode = 0064;
},
{
color = 4;
glyphname = e;
lastChange = "2016-09-08 14:05:00 +0000";
layers = (
{
anchors = (
{
name = top;
position = "{264, 490}";
}
);
background = {
paths = (
{
closed = 1;
nodes = (
"306 278 LINE",
"330 278 LINE",
"358 297 LINE",
"360 320 LINE",
"360 341 LINE",
"348 381 LINE",
"324 412 LINE",
"288 430 LINE",
"264 430 LINE",
"213 430 LINE",
"147 350 LINE",
"143 278 LINE"
);
},
{
closed = 1;
nodes = (
"461 93 LINE",
"430 44 LINE",
"336 -12 LINE",
"275 -12 LINE",
"217 -12 LINE",
"129 26 LINE",
"71 92 LINE",
"41 180 LINE",
"41 229 LINE",
"41 272 LINE",
"72 357 LINE",
"130 424 LINE",
"212 465 LINE",
"264 465 LINE",
"310 465 LINE",
"379 440 LINE",
"426 395 LINE",
"453 333 LINE",
"456 297 LINE",
"456 262 LINE",
"417 240 LINE",
"386 240 LINE",
"143 240 LINE",
"143 196 LINE",
"161 122 LINE",
"199 68 LINE",
"259 38 LINE",
"301 38 LINE",
"343 38 LINE",
"403 74 LINE",
"431 119 LINE",
"439 129 LINE",
"453 120 LINE",
"461 115 LINE",
"465 99 LINE"
);
}
);
};
layerId = UUID0;
paths = (
{
closed = 1;
nodes = (
"143 278 LINE",
"148 374 OFFCURVE",
"197 430 OFFCURVE",
"264 430 CURVE SMOOTH",
"329 430 OFFCURVE",
"360 377 OFFCURVE",
"360 320 CURVE",
"358 289 OFFCURVE",
"338 278 OFFCURVE",
"306 278 CURVE SMOOTH"
);
},
{
closed = 1;
nodes = (
"466 101 OFFCURVE",
"463 114 OFFCURVE",
"453 120 CURVE SMOOTH",
"444 126 OFFCURVE",
"436 125 OFFCURVE",
"431 119 CURVE",
"394 59 OFFCURVE",
"357 38 OFFCURVE",
"301 38 CURVE SMOOTH",
"188 38 OFFCURVE",
"143 124 OFFCURVE",
"143 240 CURVE",
"386 240 LINE SMOOTH",
"427 240 OFFCURVE",
"456 250 OFFCURVE",
"456 297 CURVE",
"447 394 OFFCURVE",
"387 465 OFFCURVE",
"264 465 CURVE SMOOTH",
"126 465 OFFCURVE",
"41 345 OFFCURVE",
"41 229 CURVE SMOOTH",
"41 98 OFFCURVE",
"120 -12 OFFCURVE",
"275 -12 CURVE SMOOTH",
"356 -12 OFFCURVE",
"420 28 OFFCURVE",
"461 93 CURVE"
);
}
);
width = 502;
}
);
leftKerningGroup = o;
rightKerningGroup = e;
unicode = 0065;
},
{
color = 4;
glyphname = f;
lastChange = "2016-09-08 14:05:00 +0000";
layers = (
{
background = {
paths = (
{
closed = 1;
nodes = (
"116 490 LINE",
"116 540 LINE",
"140 625 LINE",
"186 687 LINE",
"256 723 LINE",
"301 724 LINE",
"324 724 LINE",
"369 711 LINE",
"405 685 LINE",
"428 649 LINE",
"428 626 LINE",
"428 598 LINE",
"394 551 LINE",
"362 551 LINE",
"341 551 LINE",
"318 572 LINE",
"318 577 LINE",
"318 579 LINE",
"329 587 LINE",
"341 602 LINE",
"352 623 LINE",
"352 638 LINE",
"352 660 LINE",
"319 691 LINE",
"294 691 LINE",
"261 691 LINE",
"226 650 LINE",
"210 592 LINE",
"208 529 LINE",
"208 508 LINE",
"208 453 LINE",
"306 453 LINE",
"316 453 LINE",
"330 450 LINE",
"331 434 LINE",
"331 426 LINE",
"322 414 LINE",
"314 414 LINE",
"208 414 LINE",
"208 103 LINE",
"208 90 LINE",
"208 65 LINE",
"217 46 LINE",
"238 35 LINE",
"279 35 LINE",
"289 35 LINE",
"301 32 LINE",
"302 17 LINE",
"302 9 LINE",
"295 -3 LINE",
"287 -3 LINE",
"238 -1 LINE",
"188 0 LINE",
"162 0 LINE",
"135 0 LINE",
"87 -1 LINE",
"58 -3 LINE",
"50 -3 LINE",
"42 9 LINE",
"42 17 LINE",
"43 32 LINE",
"55 35 LINE",
"65 35 LINE",
"86 35 LINE",
"107 46 LINE",
"116 65 LINE",
"116 90 LINE",
"116 103 LINE",
"116 414 LINE",
"39 414 LINE",
"31 414 LINE",
"22 426 LINE",
"22 434 LINE",
"23 450 LINE",
"36 453 LINE",
"46 453 LINE",
"116 453 LINE"
);
}
);
};
layerId = UUID0;
paths = (
{
closed = 1;
nodes = (
"116 453 LINE",
"56 453 LINE SMOOTH",
"43 453 OFFCURVE",
"33 455 OFFCURVE",
"32 434 CURVE SMOOTH",
"32 424 OFFCURVE",
"38 414 OFFCURVE",
"49 414 CURVE SMOOTH",
"116 414 LINE",
"116 103 LINE SMOOTH",
"116 68 OFFCURVE",
"121 35 OFFCURVE",
"65 35 CURVE SMOOTH",
"52 35 OFFCURVE",
"43 37 OFFCURVE",
"42 17 CURVE SMOOTH",
"42 7 OFFCURVE",
"47 -3 OFFCURVE",
"58 -3 CURVE SMOOTH",
"96 -1 OFFCURVE",
"126 0 OFFCURVE",
"162 0 CURVE SMOOTH",
"197 0 OFFCURVE",
"248 -1 OFFCURVE",
"287 -3 CURVE SMOOTH",
"297 -3 OFFCURVE",
"302 7 OFFCURVE",
"302 17 CURVE SMOOTH",
"301 37 OFFCURVE",
"292 35 OFFCURVE",
"279 35 CURVE SMOOTH",
"216 35 OFFCURVE",
"208 44 OFFCURVE",
"208 103 CURVE SMOOTH",
"208 414 LINE",
"314 414 LINE SMOOTH",
"324 414 OFFCURVE",
"331 424 OFFCURVE",
"331 434 CURVE SMOOTH",
"330 455 OFFCURVE",
"319 453 OFFCURVE",
"306 453 CURVE SMOOTH",
"208 453 LINE",
"208 508 LINE SMOOTH",
"208 565 OFFCURVE",
"206 691 OFFCURVE",
"294 691 CURVE SMOOTH",
"327 691 OFFCURVE",
"352 667 OFFCURVE",
"352 638 CURVE SMOOTH",
"352 599 OFFCURVE",
"318 582 OFFCURVE",
"318 577 CURVE SMOOTH",
"318 571 OFFCURVE",
"334 551 OFFCURVE",
"362 551 CURVE SMOOTH",
"405 551 OFFCURVE",
"428 589 OFFCURVE",
"428 626 CURVE SMOOTH",
"428 687 OFFCURVE",
"362 724 OFFCURVE",
"301 724 CURVE",
"180 721 OFFCURVE",
"116 623 OFFCURVE",
"116 490 CURVE"
);
}
);
width = 343;
}
);
leftKerningGroup = f;
unicode = 0066;
},
{
color = 4;
glyphname = g;
lastChange = "2016-09-08 14:05:00 +0000";
layers = (
{
background = {
paths = (
{
closed = 1;
nodes = (
"401 414 LINE",
"401 412 LINE",
"418 395 LINE",
"442 339 LINE",
"442 314 LINE",
"442 278 LINE",
"410 220 LINE",
"357 180 LINE",
"290 159 LINE",
"256 159 LINE",
"212 159 LINE",
"160 159 LINE",
"113 139 LINE",
"113 116 LINE",
"113 98 LINE",
"138 79 LINE",
"171 77 LINE",
"308 73 LINE",
"414 73 LINE",
"506 8 LINE",
"506 -51 LINE",
"506 -91 LINE",
"468 -153 LINE",
"397 -196 LINE",
"299 -218 LINE",
"239 -218 LINE",
"191 -218 LINE",
"112 -206 LINE",
"57 -178 LINE",
"27 -132 LINE",
"27 -98 LINE",
"27 -65 LINE",
"69 -14 LINE",
"104 -14 LINE",
"116 -14 LINE",
"135 -21 LINE",
"149 -31 LINE",
"157 -41 LINE",
"157 -44 LINE",
"157 -46 LINE",
"148 -54 LINE",
"136 -68 LINE",
"127 -89 LINE",
"127 -104 LINE",
"127 -151 LINE",
"196 -181 LINE",
"269 -181 LINE",
"337 -181 LINE",
"417 -130 LINE",
"417 -76 LINE",
"417 -52 LINE",
"390 -23 LINE",
"346 -8 LINE",
"288 -3 LINE",
"226 -2 LINE",
"164 0 LINE",
"138 5 LINE",
"103 11 LINE",
"56 45 LINE",
"56 86 LINE",
"56 123 LINE",
"108 178 LINE",
"162 178 LINE",
"130 190 LINE",
"89 221 LINE",
"65 256 LINE",
"55 294 LINE",
"55 313 LINE",
"55 345 LINE",
"83 401 LINE",
"134 442 LINE",
"205 466 LINE",
"248 466 LINE",
"276 466 LINE",
"337 457 LINE",
"359 446 LINE",
"496 472 LINE",
"507 473 LINE",
"515 457 LINE",
"515 448 LINE",
"515 434 LINE",
"507 410 LINE",
"500 410 LINE"
);
},
{
closed = 1;
nodes = (
"247 435 LINE",
"202 435 LINE",
"144 373 LINE",
"144 316 LINE",
"144 254 LINE",
"203 188 LINE",
"248 188 LINE",
"294 188 LINE",
"352 253 LINE",
"352 314 LINE",
"352 371 LINE",
"293 435 LINE"
);
}
);
};
layerId = UUID0;
paths = (
{
closed = 1;
nodes = (
"500 410 LINE",
"509 410 OFFCURVE",
"515 430 OFFCURVE",
"515 448 CURVE SMOOTH",
"515 460 OFFCURVE",
"511 473 OFFCURVE",
"496 472 CURVE",
"359 446 LINE",
"330 461 OFFCURVE",
"285 466 OFFCURVE",
"248 466 CURVE SMOOTH",
"134 466 OFFCURVE",
"55 399 OFFCURVE",
"55 313 CURVE SMOOTH",
"55 262 OFFCURVE",
"77 211 OFFCURVE",
"162 178 CURVE",
"91 178 OFFCURVE",
"56 135 OFFCURVE",
"56 86 CURVE SMOOTH",
"56 32 OFFCURVE",
"91 13 OFFCURVE",
"138 5 CURVE SMOOTH",
"244 -13 OFFCURVE",
"417 21 OFFCURVE",
"417 -76 CURVE SMOOTH",
"417 -147 OFFCURVE",
"359 -181 OFFCURVE",
"269 -181 CURVE SMOOTH",
"172 -181 OFFCURVE",
"127 -166 OFFCURVE",
"127 -104 CURVE SMOOTH",
"127 -65 OFFCURVE",
"157 -49 OFFCURVE",
"157 -44 CURVE SMOOTH",
"157 -37 OFFCURVE",
"135 -14 OFFCURVE",
"104 -14 CURVE SMOOTH",
"57 -14 OFFCURVE",
"27 -54 OFFCURVE",
"27 -98 CURVE SMOOTH",
"27 -188 OFFCURVE",
"110 -218 OFFCURVE",
"239 -218 CURVE SMOOTH",
"399 -218 OFFCURVE",
"506 -157 OFFCURVE",
"506 -51 CURVE SMOOTH",
"506 28 OFFCURVE",
"450 73 OFFCURVE",
"308 73 CURVE",
"171 77 LINE",
"127 80 OFFCURVE",
"113 92 OFFCURVE",
"113 116 CURVE SMOOTH",
"113 147 OFFCURVE",
"143 159 OFFCURVE",
"212 159 CURVE SMOOTH",
"256 159 LINE SMOOTH",
"348 159 OFFCURVE",
"442 217 OFFCURVE",
"442 314 CURVE SMOOTH",
"442 347 OFFCURVE",
"424 389 OFFCURVE",
"401 412 CURVE",
"401 414 LINE"
);
},
{
closed = 1;
nodes = (
"308 435 OFFCURVE",
"352 389 OFFCURVE",
"352 314 CURVE SMOOTH",
"352 233 OFFCURVE",
"309 188 OFFCURVE",
"248 188 CURVE SMOOTH",
"188 188 OFFCURVE",
"144 234 OFFCURVE",
"144 316 CURVE SMOOTH",
"144 391 OFFCURVE",
"188 435 OFFCURVE",
"247 435 CURVE SMOOTH"
);
}
);
width = 523;
}
);
unicode = 0067;
},
{
color = 4;
glyphname = h;
lastChange = "2016-09-08 14:05:00 +0000";
layers = (
{
background = {
paths = (
{
closed = 1;
nodes = (
"189 388 LINE",
"191 388 LINE",
"206 402 LINE",
"236 429 LINE",
"273 451 LINE",
"320 465 LINE",
"352 465 LINE",
"421 465 LINE",
"500 383 LINE",
"500 316 LINE",
"500 103 LINE",
"500 90 LINE",
"500 65 LINE",
"509 46 LINE",
"530 35 LINE",
"551 35 LINE",
"561 35 LINE",
"573 32 LINE",
"574 17 LINE",
"574 9 LINE",
"567 -3 LINE",
"559 -3 LINE",
"530 -1 LINE",
"480 0 LINE",
"454 0 LINE",
"427 0 LINE",
"379 -1 LINE",
"350 -3 LINE",
"342 -3 LINE",
"334 9 LINE",
"334 17 LINE",
"335 32 LINE",
"347 35 LINE",
"357 35 LINE",
"378 35 LINE",
"399 46 LINE",
"408 65 LINE",
"408 90 LINE",
"408 103 LINE",
"408 315 LINE",
"408 340 LINE",
"391 376 LINE",
"364 399 LINE",
"330 410 LINE",
"313 410 LINE",
"287 410 LINE",
"245 395 LINE",
"213 373 LINE",
"193 350 LINE",
"189 341 LINE",
"189 103 LINE",
"189 90 LINE",
"189 65 LINE",
"198 46 LINE",
"219 35 LINE",
"240 35 LINE",
"250 35 LINE",
"262 32 LINE",
"263 17 LINE",
"263 9 LINE",
"256 -3 LINE",
"248 -3 LINE",
"219 -1 LINE",
"169 0 LINE",
"143 0 LINE",
"116 0 LINE",
"68 -1 LINE",
"39 -3 LINE",
"31 -3 LINE",
"23 9 LINE",
"23 17 LINE",
"24 32 LINE",
"37 35 LINE",
"46 35 LINE",
"67 35 LINE",
"88 46 LINE",
"97 65 LINE",
"98 90 LINE",
"98 103 LINE",
"98 591 LINE",
"98 604 LINE",
"98 629 LINE",
"89 648 LINE",
"68 659 LINE",
"47 659 LINE",
"38 659 LINE",
"23 664 LINE",
"23 679 LINE",
"23 685 LINE",
"31 695 LINE",
"39 697 LINE",
"73 702 LINE",
"117 713 LINE",
"145 722 LINE",
"162 728 LINE",
"170 729 LINE",
"178 730 LINE",
"189 722 LINE",
"189 710 LINE"
);
}
);
};
layerId = UUID0;
paths = (
{
closed = 1;
nodes = (
"189 710 LINE SMOOTH",
"189 726 OFFCURVE",
"180 730 OFFCURVE",
"170 729 CURVE SMOOTH",
"150 727 OFFCURVE",
"130 710 OFFCURVE",
"39 697 CURVE SMOOTH",
"28 695 OFFCURVE",
"23 687 OFFCURVE",
"23 679 CURVE SMOOTH",
"23 659 OFFCURVE",
"35 659 OFFCURVE",
"47 659 CURVE SMOOTH",
"102 659 OFFCURVE",
"98 626 OFFCURVE",
"98 591 CURVE SMOOTH",
"98 103 LINE SMOOTH",
"98 68 OFFCURVE",
"102 35 OFFCURVE",
"46 35 CURVE SMOOTH",
"34 35 OFFCURVE",
"24 37 OFFCURVE",
"23 17 CURVE SMOOTH",
"23 7 OFFCURVE",
"28 -3 OFFCURVE",
"39 -3 CURVE SMOOTH",
"78 -1 OFFCURVE",
"107 0 OFFCURVE",
"143 0 CURVE SMOOTH",
"178 0 OFFCURVE",
"209 -1 OFFCURVE",
"248 -3 CURVE SMOOTH",
"258 -3 OFFCURVE",
"263 7 OFFCURVE",
"263 17 CURVE SMOOTH",
"262 37 OFFCURVE",
"253 35 OFFCURVE",
"240 35 CURVE SMOOTH",
"185 35 OFFCURVE",
"189 68 OFFCURVE",
"189 103 CURVE SMOOTH",
"189 341 LINE",
"200 364 OFFCURVE",
"244 410 OFFCURVE",
"313 410 CURVE SMOOTH",
"359 410 OFFCURVE",
"408 381 OFFCURVE",
"408 315 CURVE SMOOTH",
"408 103 LINE SMOOTH",
"408 68 OFFCURVE",
"413 35 OFFCURVE",
"357 35 CURVE SMOOTH",
"344 35 OFFCURVE",
"335 37 OFFCURVE",
"334 17 CURVE SMOOTH",
"334 7 OFFCURVE",
"339 -3 OFFCURVE",
"350 -3 CURVE SMOOTH",
"388 -1 OFFCURVE",
"418 0 OFFCURVE",
"454 0 CURVE SMOOTH",
"489 0 OFFCURVE",
"520 -1 OFFCURVE",
"559 -3 CURVE SMOOTH",
"569 -3 OFFCURVE",
"574 7 OFFCURVE",
"574 17 CURVE SMOOTH",
"573 37 OFFCURVE",
"564 35 OFFCURVE",
"551 35 CURVE SMOOTH",
"496 35 OFFCURVE",
"500 68 OFFCURVE",
"500 103 CURVE SMOOTH",
"500 316 LINE SMOOTH",
"500 405 OFFCURVE",
"443 465 OFFCURVE",
"352 465 CURVE SMOOTH",
"268 465 OFFCURVE",
"230 425 OFFCURVE",
"191 388 CURVE",
"189 388 LINE"
);
}
);
width = 589;
}
);
leftKerningGroup = h;
rightKerningGroup = n;
unicode = 0068;
},
{
color = 4;
glyphname = i;
lastChange = "2016-09-08 14:05:00 +0000";
layers = (
{
anchors = (
{
name = top;
position = "{146, 490}";
}
);
background = {
paths = (
{
closed = 1;
nodes = (
"144 591 LINE",
"133 591 LINE",
"110 597 LINE",
"91 612 LINE",
"78 635 LINE",
"78 652 LINE",
"78 660 LINE",
"87 681 LINE",
"106 699 LINE",
"134 711 LINE",
"153 711 LINE",
"162 711 LINE",
"182 704 LINE",
"199 689 LINE",
"210 666 LINE",
"210 649 LINE",
"210 628 LINE",
"176 591 LINE"
);
},
{
closed = 1;
nodes = (
"200 103 LINE",
"200 90 LINE",
"200 65 LINE",
"209 46 LINE",
"231 35 LINE",
"252 35 LINE",
"261 35 LINE",
"274 32 LINE",
"275 17 LINE",
"275 9 LINE",
"267 -3 LINE",
"259 -3 LINE",
"230 -1 LINE",
"181 0 LINE",
"154 0 LINE",
"127 0 LINE",
"79 -1 LINE",
"50 -3 LINE",
"42 -3 LINE",
"34 9 LINE",
"34 17 LINE",
"36 32 LINE",
"48 35 LINE",
"58 35 LINE",
"79 35 LINE",
"100 46 LINE",
"109 65 LINE",
"109 90 LINE",
"109 103 LINE",
"109 332 LINE",
"109 345 LINE",
"109 370 LINE",
"100 389 LINE",
"79 400 LINE",
"58 400 LINE",
"49 400 LINE",
"34 405 LINE",
"34 420 LINE",
"34 426 LINE",
"42 436 LINE",
"50 438 LINE",
"84 443 LINE",
"128 454 LINE",
"156 463 LINE",
"173 469 LINE",
"181 470 LINE",
"189 471 LINE",
"200 463 LINE",
"200 451 LINE"
);
}
);
};
layerId = UUID0;
paths = (
{
closed = 1;
nodes = (
"186 591 OFFCURVE",
"210 621 OFFCURVE",
"210 649 CURVE SMOOTH",
"210 694 OFFCURVE",
"177 711 OFFCURVE",
"153 711 CURVE SMOOTH",
"103 711 OFFCURVE",
"78 674 OFFCURVE",
"78 652 CURVE SMOOTH",
"78 607 OFFCURVE",
"116 591 OFFCURVE",
"144 591 CURVE"
);
},
{
closed = 1;
nodes = (
"200 451 LINE",
"200 467 OFFCURVE",
"191 471 OFFCURVE",
"181 470 CURVE SMOOTH",
"161 468 OFFCURVE",
"141 451 OFFCURVE",
"50 438 CURVE",
"39 436 OFFCURVE",
"34 428 OFFCURVE",
"34 420 CURVE SMOOTH",
"34 400 OFFCURVE",
"46 400 OFFCURVE",
"58 400 CURVE SMOOTH",
"113 400 OFFCURVE",
"109 367 OFFCURVE",
"109 332 CURVE",
"109 103 LINE SMOOTH",
"109 68 OFFCURVE",
"113 35 OFFCURVE",
"58 35 CURVE SMOOTH",
"45 35 OFFCURVE",
"36 37 OFFCURVE",
"34 17 CURVE SMOOTH",
"34 7 OFFCURVE",
"40 -3 OFFCURVE",
"50 -3 CURVE SMOOTH",
"89 -1 OFFCURVE",
"118 0 OFFCURVE",
"154 0 CURVE",
"190 0 OFFCURVE",
"220 -1 OFFCURVE",
"259 -3 CURVE SMOOTH",
"270 -3 OFFCURVE",
"275 7 OFFCURVE",
"275 17 CURVE SMOOTH",
"274 37 OFFCURVE",
"264 35 OFFCURVE",
"252 35 CURVE SMOOTH",
"196 35 OFFCURVE",
"200 68 OFFCURVE",
"200 103 CURVE SMOOTH"
);
}
);
width = 297;
}
);
leftKerningGroup = i;
rightKerningGroup = i;
unicode = 0069;
},
{
color = 4;
glyphname = j;
lastChange = "2016-09-08 14:05:00 +0000";
layers = (
{
background = {
paths = (
{
closed = 1;
nodes = (
"98 332 LINE",
"98 345 LINE",
"98 370 LINE",
"89 389 LINE",
"68 400 LINE",
"47 400 LINE",
"38 400 LINE",
"23 405 LINE",
"23 420 LINE",
"23 426 LINE",
"31 436 LINE",
"39 438 LINE",
"73 443 LINE",
"117 454 LINE",
"145 463 LINE",
"162 469 LINE",
"170 470 LINE",
"178 471 LINE",
"189 463 LINE",
"189 451 LINE",
"189 99 LINE",
"189 42 LINE",
"171 -57 LINE",
"128 -137 LINE",
"57 -192 LINE",
"4 -205 LINE",
"-4 -207 LINE",
"-12 -200 LINE",
"-16 -191 LINE",
"-18 -183 LINE",
"-16 -170 LINE",
"-8 -167 LINE",
"28 -152 LINE",
"71 -101 LINE",
"92 -27 LINE",
"98 70 LINE",
"98 131 LINE"
);
},
{
closed = 1;
nodes = (
"117 591 LINE",
"106 591 LINE",
"83 597 LINE",
"64 612 LINE",
"51 635 LINE",
"51 652 LINE",
"51 660 LINE",
"60 681 LINE",
"79 699 LINE",
"107 711 LINE",
"126 711 LINE",
"135 711 LINE",
"155 704 LINE",
"172 689 LINE",
"183 666 LINE",
"183 649 LINE",
"183 628 LINE",
"149 591 LINE"
);
}
);
};
layerId = UUID0;
paths = (
{
closed = 1;
nodes = (
"98 131 LINE",
"98 -32 OFFCURVE",
"89 -126 OFFCURVE",
"-8 -167 CURVE",
"-19 -171 OFFCURVE",
"-18 -181 OFFCURVE",
"-16 -191 CURVE SMOOTH",
"-11 -203 OFFCURVE",
"-7 -207 OFFCURVE",
"4 -205 CURVE",
"146 -171 OFFCURVE",
"189 -52 OFFCURVE",
"189 99 CURVE",
"189 451 LINE SMOOTH",
"189 467 OFFCURVE",
"180 471 OFFCURVE",
"170 470 CURVE SMOOTH",
"150 468 OFFCURVE",
"130 451 OFFCURVE",
"39 438 CURVE SMOOTH",
"28 436 OFFCURVE",
"23 428 OFFCURVE",
"23 420 CURVE SMOOTH",
"23 400 OFFCURVE",
"35 400 OFFCURVE",
"47 400 CURVE SMOOTH",
"102 400 OFFCURVE",
"98 367 OFFCURVE",
"98 332 CURVE"
);
},
{
closed = 1;
nodes = (
"159 591 OFFCURVE",
"183 621 OFFCURVE",
"183 649 CURVE SMOOTH",
"183 694 OFFCURVE",
"150 711 OFFCURVE",
"126 711 CURVE SMOOTH",
"76 711 OFFCURVE",
"51 674 OFFCURVE",
"51 652 CURVE SMOOTH",
"51 607 OFFCURVE",
"89 591 OFFCURVE",
"117 591 CURVE SMOOTH"
);
}
);
width = 266;
}
);
rightKerningGroup = j;
unicode = 006A;
},
{
color = 4;
glyphname = k;
lastChange = "2016-09-08 14:05:00 +0000";
layers = (
{
background = {
paths = (
{
closed = 1;
nodes = (
"189 252 LINE",
"211 257 LINE",
"248 276 LINE",
"261 289 LINE",
"345 375 LINE",
"351 382 LINE",
"366 398 LINE",
"368 412 LINE",
"349 419 LINE",
"321 418 LINE",
"310 420 LINE",
"309 436 LINE",
"309 444 LINE",
"317 456 LINE",
"325 456 LINE",
"348 454 LINE",
"412 453 LINE",
"435 453 LINE",
"452 453 LINE",
"485 455 LINE",
"502 456 LINE",
"510 456 LINE",
"518 444 LINE",
"518 436 LINE",
"517 423 LINE",
"508 418 LINE",
"501 418 LINE",
"462 418 LINE",
"414 390 LINE",
"384 359 LINE",
"300 273 LINE",
"312 257 LINE",
"352 210 LINE",
"396 160 LINE",
"437 115 LINE",
"449 101 LINE",
"478 70 LINE",
"517 37 LINE",
"546 35 LINE",
"554 34 LINE",
"568 31 LINE",
"568 17 LINE",
"568 9 LINE",
"561 -3 LINE",
"552 -3 LINE",
"538 -2 LINE",
"521 -1 LINE",
"497 0 LINE",
"456 0 LINE",
"419 0 LINE",
"384 38 LINE",
"293 143 LINE",
"248 196 LINE",
"237 207 LINE",
"207 226 LINE",
"189 224 LINE",
"189 103 LINE",
"189 90 LINE",
"189 65 LINE",
"198 46 LINE",
"219 35 LINE",
"240 35 LINE",
"250 35 LINE",
"262 32 LINE",
"264 17 LINE",
"264 9 LINE",
"256 -3 LINE",
"248 -3 LINE",
"219 -1 LINE",
"169 0 LINE",
"143 0 LINE",
"116 0 LINE",
"68 -1 LINE",
"39 -3 LINE",
"31 -3 LINE",
"23 9 LINE",
"23 17 LINE",
"24 32 LINE",
"37 35 LINE",
"46 35 LINE",
"67 35 LINE",
"88 46 LINE",
"97 65 LINE",
"98 90 LINE",
"98 103 LINE",
"98 590 LINE",
"98 603 LINE",
"98 628 LINE",
"89 647 LINE",
"68 658 LINE",
"47 658 LINE",
"38 658 LINE",
"23 663 LINE",
"23 678 LINE",
"23 684 LINE",
"31 694 LINE",
"39 696 LINE",
"73 701 LINE",
"117 712 LINE",
"145 721 LINE",
"162 727 LINE",
"170 728 LINE",
"178 729 LINE",
"189 721 LINE",
"189 709 LINE"
);
}
);
};
layerId = UUID0;
paths = (
{
closed = 1;
nodes = (
"189 709 LINE",
"189 725 OFFCURVE",
"180 729 OFFCURVE",
"170 728 CURVE SMOOTH",
"150 726 OFFCURVE",
"130 709 OFFCURVE",
"39 696 CURVE SMOOTH",
"28 694 OFFCURVE",
"23 686 OFFCURVE",
"23 678 CURVE SMOOTH",
"23 658 OFFCURVE",
"35 658 OFFCURVE",
"47 658 CURVE SMOOTH",
"102 658 OFFCURVE",
"98 625 OFFCURVE",
"98 590 CURVE",
"98 103 LINE SMOOTH",
"98 68 OFFCURVE",
"102 35 OFFCURVE",
"46 35 CURVE SMOOTH",
"34 35 OFFCURVE",
"24 37 OFFCURVE",
"23 17 CURVE SMOOTH",
"23 7 OFFCURVE",
"28 -3 OFFCURVE",
"39 -3 CURVE SMOOTH",
"78 -1 OFFCURVE",
"107 0 OFFCURVE",
"143 0 CURVE SMOOTH",
"178 0 OFFCURVE",
"209 -1 OFFCURVE",
"248 -3 CURVE SMOOTH",
"258 -3 OFFCURVE",
"264 7 OFFCURVE",
"264 17 CURVE SMOOTH",
"262 37 OFFCURVE",
"253 35 OFFCURVE",
"240 35 CURVE SMOOTH",
"185 35 OFFCURVE",
"189 68 OFFCURVE",
"189 103 CURVE SMOOTH",
"189 224 LINE",
"213 226 OFFCURVE",
"234 211 OFFCURVE",
"248 196 CURVE",
"308 126 OFFCURVE",
"372 50 OFFCURVE",
"419 0 CURVE",
"519 0 OFFCURVE",
"514 -1 OFFCURVE",
"552 -3 CURVE SMOOTH",
"564 -3 OFFCURVE",
"568 7 OFFCURVE",
"568 17 CURVE SMOOTH",
"568 36 OFFCURVE",
"556 34 OFFCURVE",
"546 35 CURVE SMOOTH",
"507 38 OFFCURVE",
"488 60 OFFCURVE",
"449 101 CURVE",
"417 138 OFFCURVE",
"331 231 OFFCURVE",
"300 273 CURVE SMOOTH",
"384 359 LINE",
"424 400 OFFCURVE",
"449 418 OFFCURVE",
"501 418 CURVE",
"510 418 OFFCURVE",
"517 419 OFFCURVE",
"518 436 CURVE SMOOTH",
"518 446 OFFCURVE",
"512 456 OFFCURVE",
"502 456 CURVE SMOOTH",
"479 455 OFFCURVE",
"458 453 OFFCURVE",
"435 453 CURVE SMOOTH",
"405 453 OFFCURVE",
"355 454 OFFCURVE",
"325 456 CURVE",
"315 456 OFFCURVE",
"309 446 OFFCURVE",
"309 436 CURVE SMOOTH",
"310 424 OFFCURVE",
"314 419 OFFCURVE",
"321 418 CURVE",
"395 422 OFFCURVE",
"362 394 OFFCURVE",
"345 375 CURVE",
"261 289 LINE",
"244 272 OFFCURVE",
"218 258 OFFCURVE",
"189 252 CURVE"
);
}
);
width = 567;
}
);
leftKerningGroup = h;
unicode = 006B;
},
{
color = 4;
glyphname = l;
lastChange = "2016-09-08 14:05:00 +0000";
layers = (
{
background = {
paths = (
{
closed = 1;
nodes = (
"98 591 LINE",
"98 604 LINE",
"98 629 LINE",
"89 648 LINE",
"68 659 LINE",
"47 659 LINE",
"38 659 LINE",
"23 664 LINE",
"23 679 LINE",
"23 685 LINE",
"31 695 LINE",
"39 697 LINE",
"73 702 LINE",
"117 713 LINE",
"145 722 LINE",
"162 728 LINE",
"170 729 LINE",
"178 730 LINE",
"189 722 LINE",
"189 710 LINE",
"189 103 LINE",
"189 90 LINE",
"189 65 LINE",
"198 46 LINE",
"220 35 LINE",
"241 35 LINE",
"250 35 LINE",
"263 32 LINE",
"264 17 LINE",
"264 9 LINE",
"256 -3 LINE",
"248 -3 LINE",
"219 -1 LINE",
"170 0 LINE",
"143 0 LINE",
"116 0 LINE",
"68 -1 LINE",
"39 -3 LINE",
"31 -3 LINE",
"23 9 LINE",
"23 17 LINE",
"24 32 LINE",
"37 35 LINE",
"46 35 LINE",
"67 35 LINE",
"88 46 LINE",
"97 65 LINE",
"98 90 LINE",
"98 103 LINE"
);
}
);
};
layerId = UUID0;
paths = (
{
closed = 1;
nodes = (
"98 103 LINE",
"98 68 OFFCURVE",
"102 35 OFFCURVE",
"46 35 CURVE SMOOTH",
"34 35 OFFCURVE",
"24 37 OFFCURVE",
"23 17 CURVE SMOOTH",
"23 7 OFFCURVE",
"29 -3 OFFCURVE",
"39 -3 CURVE SMOOTH",
"78 -1 OFFCURVE",
"107 0 OFFCURVE",
"143 0 CURVE",
"179 0 OFFCURVE",
"209 -1 OFFCURVE",
"248 -3 CURVE SMOOTH",
"259 -3 OFFCURVE",
"264 7 OFFCURVE",
"264 17 CURVE SMOOTH",
"263 37 OFFCURVE",
"253 35 OFFCURVE",
"241 35 CURVE SMOOTH",
"185 35 OFFCURVE",
"189 68 OFFCURVE",
"189 103 CURVE",
"189 710 LINE SMOOTH",
"189 726 OFFCURVE",
"180 730 OFFCURVE",
"170 729 CURVE SMOOTH",
"150 727 OFFCURVE",
"130 710 OFFCURVE",
"39 697 CURVE SMOOTH",
"28 695 OFFCURVE",
"23 687 OFFCURVE",
"23 679 CURVE SMOOTH",
"23 659 OFFCURVE",
"35 659 OFFCURVE",
"47 659 CURVE SMOOTH",
"102 659 OFFCURVE",
"98 626 OFFCURVE",
"98 591 CURVE"
);
}
);
width = 286;
}
);
unicode = 006C;
},
{
color = 4;
glyphname = m;
lastChange = "2016-09-08 14:05:00 +0000";
layers = (
{
background = {
paths = (
{
closed = 1;
nodes = (
"199 388 LINE",
"202 388 LINE",
"217 402 LINE",
"245 429 LINE",
"279 451 LINE",
"324 465 LINE",
"356 465 LINE",
"405 465 LINE",
"474 424 LINE",
"491 388 LINE",
"493 388 LINE",
"508 402 LINE",
"540 429 LINE",
"579 451 LINE",
"627 465 LINE",
"659 465 LINE",
"728 465 LINE",
"807 383 LINE",
"807 316 LINE",
"807 103 LINE",
"807 90 LINE",
"807 65 LINE",
"816 46 LINE",
"838 35 LINE",
"859 35 LINE",
"868 35 LINE",
"881 32 LINE",
"882 17 LINE",
"882 9 LINE",
"874 -3 LINE",
"866 -3 LINE",
"837 -1 LINE",
"788 0 LINE",
"761 0 LINE",
"734 0 LINE",
"686 -1 LINE",
"657 -3 LINE",
"649 -3 LINE",
"641 9 LINE",
"641 17 LINE",
"642 32 LINE",
"655 35 LINE",
"664 35 LINE",
"685 35 LINE",
"706 46 LINE",
"715 65 LINE",
"716 90 LINE",
"716 103 LINE",
"716 315 LINE",
"716 340 LINE",
"699 376 LINE",
"672 399 LINE",
"637 410 LINE",
"620 410 LINE",
"594 410 LINE",
"554 395 LINE",
"526 373 LINE",
"508 350 LINE",
"504 341 LINE",
"504 103 LINE",
"504 90 LINE",
"503 65 LINE",
"511 46 LINE",
"531 35 LINE",
"552 35 LINE",
"562 35 LINE",
"574 32 LINE",
"575 17 LINE",
"575 9 LINE",
"567 -3 LINE",
"559 -3 LINE",
"530 -1 LINE",
"484 0 LINE",
"457 0 LINE",
"431 0 LINE",
"386 -1 LINE",
"357 -3 LINE",
"349 -3 LINE",
"341 9 LINE",
"341 17 LINE",
"342 32 LINE",
"354 35 LINE",
"364 35 LINE",
"385 35 LINE",
"405 46 LINE",
"413 65 LINE",
"412 90 LINE",
"412 103 LINE",
"412 315 LINE",
"412 340 LINE",
"395 376 LINE",
"368 399 LINE",
"334 410 LINE",
"317 410 LINE",
"291 410 LINE",
"251 395 LINE",
"222 373 LINE",
"204 350 LINE",
"200 341 LINE",
"200 103 LINE",
"200 90 LINE",
"200 65 LINE",
"209 46 LINE",
"231 35 LINE",
"252 35 LINE",
"261 35 LINE",
"274 32 LINE",
"275 17 LINE",
"275 9 LINE",
"267 -3 LINE",
"259 -3 LINE",
"230 -1 LINE",
"181 0 LINE",
"154 0 LINE",
"127 0 LINE",
"79 -1 LINE",
"50 -3 LINE",
"42 -3 LINE",
"34 9 LINE",
"34 17 LINE",
"35 32 LINE",
"48 35 LINE",
"57 35 LINE",
"78 35 LINE",
"99 46 LINE",
"108 65 LINE",
"109 90 LINE",
"109 103 LINE",
"109 332 LINE",
"109 345 LINE",
"109 370 LINE",
"100 389 LINE",
"79 400 LINE",
"58 400 LINE",
"49 400 LINE",
"34 405 LINE",
"34 420 LINE",
"34 426 LINE",
"42 436 LINE",
"50 438 LINE",
"84 443 LINE",
"128 454 LINE",
"156 463 LINE",
"172 469 LINE",
"180 470 LINE",
"188 471 LINE",
"199 463 LINE",
"199 451 LINE"
);
}
);
};
layerId = UUID0;
paths = (
{
closed = 1;
nodes = (
"199 451 LINE SMOOTH",
"199 467 OFFCURVE",
"190 471 OFFCURVE",
"180 470 CURVE SMOOTH",
"160 468 OFFCURVE",
"141 451 OFFCURVE",
"50 438 CURVE SMOOTH",
"39 436 OFFCURVE",
"34 428 OFFCURVE",
"34 420 CURVE SMOOTH",
"34 400 OFFCURVE",
"46 400 OFFCURVE",
"58 400 CURVE SMOOTH",
"113 400 OFFCURVE",
"109 367 OFFCURVE",
"109 332 CURVE SMOOTH",
"109 103 LINE SMOOTH",
"109 68 OFFCURVE",
"113 35 OFFCURVE",
"57 35 CURVE SMOOTH",
"45 35 OFFCURVE",
"35 37 OFFCURVE",
"34 17 CURVE SMOOTH",
"34 7 OFFCURVE",
"40 -3 OFFCURVE",
"50 -3 CURVE SMOOTH",
"89 -1 OFFCURVE",
"118 0 OFFCURVE",
"154 0 CURVE SMOOTH",
"190 0 OFFCURVE",
"220 -1 OFFCURVE",
"259 -3 CURVE SMOOTH",
"270 -3 OFFCURVE",
"275 7 OFFCURVE",
"275 17 CURVE SMOOTH",
"274 37 OFFCURVE",
"264 35 OFFCURVE",
"252 35 CURVE SMOOTH",
"196 35 OFFCURVE",
"200 68 OFFCURVE",
"200 103 CURVE SMOOTH",
"200 341 LINE",
"212 364 OFFCURVE",
"247 410 OFFCURVE",
"317 410 CURVE SMOOTH",
"363 410 OFFCURVE",
"412 381 OFFCURVE",
"412 315 CURVE SMOOTH",
"412 103 LINE SMOOTH",
"412 68 OFFCURVE",
"420 35 OFFCURVE",
"364 35 CURVE SMOOTH",
"351 35 OFFCURVE",
"342 37 OFFCURVE",
"341 17 CURVE SMOOTH",
"341 7 OFFCURVE",
"346 -3 OFFCURVE",
"357 -3 CURVE SMOOTH",
"396 -1 OFFCURVE",
"422 0 OFFCURVE",
"457 0 CURVE SMOOTH",
"493 0 OFFCURVE",
"520 -1 OFFCURVE",
"559 -3 CURVE SMOOTH",
"570 -3 OFFCURVE",
"575 7 OFFCURVE",
"575 17 CURVE SMOOTH",
"574 37 OFFCURVE",
"565 35 OFFCURVE",
"552 35 CURVE SMOOTH",
"496 35 OFFCURVE",
"504 68 OFFCURVE",
"504 103 CURVE SMOOTH",
"504 341 LINE",
"515 364 OFFCURVE",
"551 410 OFFCURVE",
"620 410 CURVE SMOOTH",
"666 410 OFFCURVE",
"716 381 OFFCURVE",
"716 315 CURVE SMOOTH",
"716 103 LINE SMOOTH",
"716 68 OFFCURVE",
"720 35 OFFCURVE",
"664 35 CURVE SMOOTH",
"652 35 OFFCURVE",
"642 37 OFFCURVE",
"641 17 CURVE SMOOTH",
"641 7 OFFCURVE",
"646 -3 OFFCURVE",
"657 -3 CURVE SMOOTH",
"696 -1 OFFCURVE",
"725 0 OFFCURVE",
"761 0 CURVE SMOOTH",
"797 0 OFFCURVE",
"827 -1 OFFCURVE",
"866 -3 CURVE SMOOTH",
"876 -3 OFFCURVE",
"882 7 OFFCURVE",
"882 17 CURVE SMOOTH",
"881 37 OFFCURVE",
"871 35 OFFCURVE",
"859 35 CURVE SMOOTH",
"803 35 OFFCURVE",
"807 68 OFFCURVE",
"807 103 CURVE SMOOTH",
"807 316 LINE SMOOTH",
"807 405 OFFCURVE",
"750 465 OFFCURVE",
"659 465 CURVE SMOOTH",
"575 465 OFFCURVE",
"532 425 OFFCURVE",
"493 388 CURVE",
"491 388 LINE",
"469 436 OFFCURVE",
"421 465 OFFCURVE",
"356 465 CURVE SMOOTH",
"272 465 OFFCURVE",
"241 425 OFFCURVE",
"202 388 CURVE",
"199 388 LINE"
);
}
);
width = 896;
}
);
leftKerningGroup = n;
rightKerningGroup = n;
unicode = 006D;
},
{
color = 4;
glyphname = n;
lastChange = "2016-09-08 14:05:00 +0000";
layers = (
{
anchors = (
{
name = top;
position = "{310, 490}";
}
);
background = {
paths = (
{
closed = 1;
nodes = (
"198 388 LINE",
"201 388 LINE",
"216 402 LINE",
"246 429 LINE",
"283 451 LINE",
"330 465 LINE",
"362 465 LINE",
"431 465 LINE",
"510 383 LINE",
"510 316 LINE",
"510 103 LINE",
"510 90 LINE",
"510 65 LINE",
"519 46 LINE",
"541 35 LINE",
"562 35 LINE",
"571 35 LINE",
"584 32 LINE",
"585 17 LINE",
"585 9 LINE",
"577 -3 LINE",
"569 -3 LINE",
"540 -1 LINE",
"491 0 LINE",
"464 0 LINE",
"437 0 LINE",
"389 -1 LINE",
"360 -3 LINE",
"352 -3 LINE",
"344 9 LINE",
"344 17 LINE",
"345 32 LINE",
"358 35 LINE",
"367 35 LINE",
"388 35 LINE",
"409 46 LINE",
"418 65 LINE",
"419 90 LINE",
"419 103 LINE",
"419 315 LINE",
"419 340 LINE",
"402 376 LINE",
"375 399 LINE",
"340 410 LINE",
"323 410 LINE",
"297 410 LINE",
"255 395 LINE",
"224 373 LINE",
"203 350 LINE",
"199 341 LINE",
"199 103 LINE",
"199 90 LINE",
"199 65 LINE",
"208 46 LINE",
"230 35 LINE",
"251 35 LINE",
"260 35 LINE",
"273 32 LINE",
"274 17 LINE",
"274 9 LINE",
"266 -3 LINE",
"258 -3 LINE",
"229 -1 LINE",
"180 0 LINE",
"153 0 LINE",
"126 0 LINE",
"78 -1 LINE",
"49 -3 LINE",
"41 -3 LINE",
"33 9 LINE",
"33 17 LINE",
"35 32 LINE",
"47 35 LINE",
"57 35 LINE",
"78 35 LINE",
"99 46 LINE",
"108 65 LINE",
"108 90 LINE",
"108 103 LINE",
"108 332 LINE",
"108 345 LINE",
"108 370 LINE",
"99 389 LINE",
"78 400 LINE",
"57 400 LINE",
"48 400 LINE",
"33 405 LINE",
"33 420 LINE",
"33 426 LINE",
"41 436 LINE",
"49 438 LINE",
"83 443 LINE",
"127 454 LINE",
"155 463 LINE",
"171 469 LINE",
"179 470 LINE",
"187 471 LINE",
"198 463 LINE",
"198 451 LINE"
);
}
);
};
layerId = UUID0;
paths = (
{
closed = 1;
nodes = (
"198 451 LINE SMOOTH",
"198 467 OFFCURVE",
"189 471 OFFCURVE",
"179 470 CURVE SMOOTH",
"159 468 OFFCURVE",
"140 451 OFFCURVE",
"49 438 CURVE SMOOTH",
"38 436 OFFCURVE",
"33 428 OFFCURVE",
"33 420 CURVE SMOOTH",
"33 400 OFFCURVE",
"45 400 OFFCURVE",
"57 400 CURVE SMOOTH",
"112 400 OFFCURVE",
"108 367 OFFCURVE",
"108 332 CURVE SMOOTH",
"108 103 LINE SMOOTH",
"108 68 OFFCURVE",
"112 35 OFFCURVE",
"57 35 CURVE SMOOTH",
"44 35 OFFCURVE",
"35 37 OFFCURVE",
"33 17 CURVE",
"33 7 OFFCURVE",
"39 -3 OFFCURVE",
"49 -3 CURVE SMOOTH",
"88 -1 OFFCURVE",
"117 0 OFFCURVE",
"153 0 CURVE SMOOTH",
"189 0 OFFCURVE",
"219 -1 OFFCURVE",
"258 -3 CURVE SMOOTH",
"269 -3 OFFCURVE",
"274 7 OFFCURVE",
"274 17 CURVE SMOOTH",
"273 37 OFFCURVE",
"263 35 OFFCURVE",
"251 35 CURVE SMOOTH",
"195 35 OFFCURVE",
"199 68 OFFCURVE",
"199 103 CURVE SMOOTH",
"199 341 LINE",
"211 364 OFFCURVE",
"254 410 OFFCURVE",
"323 410 CURVE SMOOTH",
"369 410 OFFCURVE",
"419 381 OFFCURVE",
"419 315 CURVE SMOOTH",
"419 103 LINE SMOOTH",
"419 68 OFFCURVE",
"423 35 OFFCURVE",
"367 35 CURVE SMOOTH",
"355 35 OFFCURVE",
"345 37 OFFCURVE",
"344 17 CURVE SMOOTH",
"344 7 OFFCURVE",
"350 -3 OFFCURVE",
"360 -3 CURVE SMOOTH",
"399 -1 OFFCURVE",
"428 0 OFFCURVE",
"464 0 CURVE SMOOTH",
"500 0 OFFCURVE",
"530 -1 OFFCURVE",
"569 -3 CURVE SMOOTH",
"579 -3 OFFCURVE",
"585 7 OFFCURVE",
"585 17 CURVE SMOOTH",
"584 37 OFFCURVE",
"574 35 OFFCURVE",
"562 35 CURVE SMOOTH",
"506 35 OFFCURVE",
"510 68 OFFCURVE",
"510 103 CURVE SMOOTH",
"510 316 LINE SMOOTH",
"510 405 OFFCURVE",
"453 465 OFFCURVE",
"362 465 CURVE SMOOTH",
"278 465 OFFCURVE",
"240 425 OFFCURVE",
"201 388 CURVE",
"198 388 LINE"
);
}
);
width = 599;
}
);
leftKerningGroup = n;
rightKerningGroup = n;
unicode = 006E;
},
{
color = 4;
glyphname = o;
lastChange = "2016-09-08 14:05:00 +0000";
layers = (
{
anchors = (
{
name = top;
position = "{274, 490}";
}
);
background = {
paths = (
{
closed = 1;
nodes = (
"274 465 LINE",
"326 465 LINE",
"412 426 LINE",
"474 362 LINE",
"507 278 LINE",
"507 233 LINE",
"507 174 LINE",
"463 82 LINE",
"396 20 LINE",
"313 -12 LINE",
"274 -12 LINE",
"221 -12 LINE",
"136 27 LINE",
"74 91 LINE",
"41 175 LINE",
"41 220 LINE",
"41 279 LINE",
"84 371 LINE",
"151 433 LINE",
"234 465 LINE"
);
},
{
closed = 1;
nodes = (
"274 25 LINE",
"310 25 LINE",
"360 59 LINE",
"391 116 LINE",
"405 191 LINE",
"405 233 LINE",
"405 272 LINE",
"390 343 LINE",
"359 397 LINE",
"309 428 LINE",
"274 428 LINE",
"237 428 LINE",
"187 395 LINE",
"156 338 LINE",
"143 264 LINE",
"143 222 LINE",
"143 183 LINE",
"157 112 LINE",
"188 57 LINE",
"238 25 LINE"
);
}
);
};
layerId = UUID0;
paths = (
{
closed = 1;
nodes = (
"168 465 OFFCURVE",
"41 378 OFFCURVE",
"41 220 CURVE SMOOTH",
"41 100 OFFCURVE",
"134 -12 OFFCURVE",
"274 -12 CURVE SMOOTH",
"378 -12 OFFCURVE",
"507 75 OFFCURVE",
"507 233 CURVE SMOOTH",
"507 353 OFFCURVE",
"414 465 OFFCURVE",
"274 465 CURVE SMOOTH"
);
},
{
closed = 1;
nodes = (
"178 25 OFFCURVE",
"143 118 OFFCURVE",
"143 222 CURVE SMOOTH",
"143 333 OFFCURVE",
"175 428 OFFCURVE",
"274 428 CURVE SMOOTH",
"368 428 OFFCURVE",
"405 338 OFFCURVE",
"405 233 CURVE SMOOTH",
"405 122 OFFCURVE",
"371 25 OFFCURVE",
"274 25 CURVE SMOOTH"
);
}
);
width = 548;
}
);
leftKerningGroup = o;
rightKerningGroup = o;
unicode = 006F;
},
{
color = 4;
glyphname = p;
lastChange = "2016-09-08 14:05:00 +0000";
layers = (
{
background = {
paths = (
{
closed = 1;
nodes = (
"305 22 LINE",
"344 22 LINE",
"396 61 LINE",
"427 121 LINE",
"440 192 LINE",
"440 224 LINE",
"440 259 LINE",
"424 327 LINE",
"389 381 LINE",
"335 415 LINE",
"297 415 LINE",
"259 415 LINE",
"209 384 LINE",
"189 363 LINE",
"189 95 LINE",
"194 82 LINE",
"214 56 LINE",
"244 35 LINE",
"282 22 LINE"
);
},
{
closed = 1;
nodes = (
"191 403 LINE",
"219 429 LINE",
"297 465 LINE",
"333 465 LINE",
"378 465 LINE",
"455 430 LINE",
"511 367 LINE",
"542 280 LINE",
"542 227 LINE",
"542 173 LINE",
"503 84 LINE",
"439 22 LINE",
"357 -12 LINE",
"313 -12 LINE",
"268 -12 LINE",
"213 7 LINE",
"193 19 LINE",
"189 19 LINE",
"189 -102 LINE",
"189 -115 LINE",
"190 -140 LINE",
"200 -159 LINE",
"221 -170 LINE",
"241 -170 LINE",
"250 -170 LINE",
"263 -173 LINE",
"264 -188 LINE",
"264 -196 LINE",
"256 -208 LINE",
"248 -208 LINE",
"219 -206 LINE",
"170 -205 LINE",
"143 -205 LINE",
"116 -205 LINE",
"68 -206 LINE",
"39 -208 LINE",
"31 -208 LINE",
"23 -196 LINE",
"23 -188 LINE",
"24 -173 LINE",
"37 -170 LINE",
"46 -170 LINE",
"66 -170 LINE",
"87 -159 LINE",
"97 -140 LINE",
"98 -115 LINE",
"98 -102 LINE",
"98 332 LINE",
"98 345 LINE",
"98 370 LINE",
"89 389 LINE",
"68 400 LINE",
"47 400 LINE",
"38 400 LINE",
"23 405 LINE",
"23 420 LINE",
"23 426 LINE",
"31 436 LINE",
"39 438 LINE",
"73 443 LINE",
"117 454 LINE",
"145 463 LINE",
"161 469 LINE",
"169 470 LINE",
"177 471 LINE",
"188 463 LINE",
"188 451 LINE",
"188 403 LINE"
);
}
);
};
layerId = UUID0;
paths = (
{
closed = 1;
nodes = (
"243 22 OFFCURVE",
"203 60 OFFCURVE",
"189 95 CURVE",
"189 363 LINE",
"216 391 OFFCURVE",
"246 415 OFFCURVE",
"297 415 CURVE SMOOTH",
"399 415 OFFCURVE",
"440 317 OFFCURVE",
"440 224 CURVE SMOOTH",
"440 140 OFFCURVE",
"409 22 OFFCURVE",
"305 22 CURVE SMOOTH"
);
},
{
closed = 1;
nodes = (
"188 403 LINE",
"188 451 LINE SMOOTH",
"188 467 OFFCURVE",
"179 471 OFFCURVE",
"169 470 CURVE SMOOTH",
"149 468 OFFCURVE",
"130 451 OFFCURVE",
"39 438 CURVE SMOOTH",
"28 436 OFFCURVE",
"23 428 OFFCURVE",
"23 420 CURVE SMOOTH",
"23 400 OFFCURVE",
"35 400 OFFCURVE",
"47 400 CURVE SMOOTH",
"102 400 OFFCURVE",
"98 367 OFFCURVE",
"98 332 CURVE",
"98 -102 LINE SMOOTH",
"98 -137 OFFCURVE",
"99 -170 OFFCURVE",
"46 -170 CURVE SMOOTH",
"34 -170 OFFCURVE",
"24 -168 OFFCURVE",
"23 -188 CURVE SMOOTH",
"23 -198 OFFCURVE",
"29 -208 OFFCURVE",
"39 -208 CURVE SMOOTH",
"78 -206 OFFCURVE",
"107 -205 OFFCURVE",
"143 -205 CURVE SMOOTH",
"179 -205 OFFCURVE",
"209 -206 OFFCURVE",
"248 -208 CURVE SMOOTH",
"259 -208 OFFCURVE",
"264 -198 OFFCURVE",
"264 -188 CURVE SMOOTH",
"263 -168 OFFCURVE",
"253 -170 OFFCURVE",
"241 -170 CURVE SMOOTH",
"188 -170 OFFCURVE",
"189 -137 OFFCURVE",
"189 -102 CURVE SMOOTH",
"189 19 LINE",
"193 19 LINE",
"219 3 OFFCURVE",
"253 -12 OFFCURVE",
"313 -12 CURVE SMOOTH",
"430 -12 OFFCURVE",
"542 82 OFFCURVE",
"542 227 CURVE SMOOTH",
"542 368 OFFCURVE",
"454 465 OFFCURVE",
"333 465 CURVE SMOOTH",
"285 465 OFFCURVE",
"228 437 OFFCURVE",
"191 403 CURVE"
);
}
);
width = 584;
}
);
rightKerningGroup = o;
unicode = 0070;
},
{
color = 4;
glyphname = q;
lastChange = "2016-09-08 14:05:00 +0000";
layers = (
{
background = {
paths = (
{
closed = 1;
nodes = (
"390 355 LINE",
"386 367 LINE",
"369 393 LINE",
"342 416 LINE",
"303 430 LINE",
"277 430 LINE",
"248 430 LINE",
"199 401 LINE",
"163 347 LINE",
"142 270 LINE",
"142 222 LINE",
"142 186 LINE",
"158 120 LINE",
"192 68 LINE",
"248 37 LINE",
"287 37 LINE",
"323 37 LINE",
"372 65 LINE",
"390 84 LINE"
);
},
{
closed = 1;
nodes = (
"482 -102 LINE",
"482 -115 LINE",
"483 -140 LINE",
"492 -159 LINE",
"513 -170 LINE",
"533 -170 LINE",
"543 -170 LINE",
"555 -173 LINE",
"556 -188 LINE",
"556 -196 LINE",
"548 -208 LINE",
"540 -208 LINE",
"511 -206 LINE",
"462 -205 LINE",
"435 -205 LINE",
"409 -205 LINE",
"360 -206 LINE",
"331 -208 LINE",
"323 -208 LINE",
"316 -196 LINE",
"316 -188 LINE",
"317 -173 LINE",
"329 -170 LINE",
"339 -170 LINE",
"358 -170 LINE",
"379 -159 LINE",
"389 -140 LINE",
"390 -115 LINE",
"390 -102 LINE",
"390 45 LINE",
"387 45 LINE",
"369 25 LINE",
"300 -12 LINE",
"254 -12 LINE",
"210 -12 LINE",
"133 22 LINE",
"75 86 LINE",
"41 176 LINE",
"41 232 LINE",
"41 281 LINE",
"79 367 LINE",
"143 429 LINE",
"227 465 LINE",
"272 465 LINE",
"301 465 LINE",
"346 455 LINE",
"381 441 LINE",
"406 425 LINE",
"416 420 LINE",
"421 420 LINE",
"425 427 LINE",
"433 447 LINE",
"443 464 LINE",
"455 476 LINE",
"463 476 LINE",
"472 476 LINE",
"482 464 LINE",
"482 456 LINE"
);
}
);
};
layerId = UUID0;
paths = (
{
closed = 1;
nodes = (
"390 84 LINE",
"366 59 OFFCURVE",
"335 37 OFFCURVE",
"287 37 CURVE SMOOTH",
"182 37 OFFCURVE",
"142 127 OFFCURVE",
"142 222 CURVE SMOOTH",
"142 351 OFFCURVE",
"201 430 OFFCURVE",
"277 430 CURVE SMOOTH",
"346 430 OFFCURVE",
"379 387 OFFCURVE",
"390 355 CURVE"
);
},
{
closed = 1;
nodes = (
"482 456 LINE",
"482 467 OFFCURVE",
"475 476 OFFCURVE",
"463 476 CURVE SMOOTH",
"443 476 OFFCURVE",
"431 440 OFFCURVE",
"421 420 CURVE",
"416 420 LINE",
"390 434 OFFCURVE",
"350 465 OFFCURVE",
"272 465 CURVE SMOOTH",
"151 465 OFFCURVE",
"41 364 OFFCURVE",
"41 232 CURVE SMOOTH",
"41 83 OFFCURVE",
"138 -12 OFFCURVE",
"254 -12 CURVE SMOOTH",
"315 -12 OFFCURVE",
"363 19 OFFCURVE",
"387 45 CURVE",
"390 45 LINE",
"390 -102 LINE",
"390 -137 OFFCURVE",
"391 -170 OFFCURVE",
"339 -170 CURVE SMOOTH",
"326 -170 OFFCURVE",
"317 -168 OFFCURVE",
"316 -188 CURVE SMOOTH",
"316 -198 OFFCURVE",
"321 -208 OFFCURVE",
"331 -208 CURVE SMOOTH",
"370 -206 OFFCURVE",
"400 -205 OFFCURVE",
"435 -205 CURVE SMOOTH",
"471 -205 OFFCURVE",
"501 -206 OFFCURVE",
"540 -208 CURVE SMOOTH",
"551 -208 OFFCURVE",
"556 -198 OFFCURVE",
"556 -188 CURVE SMOOTH",
"555 -168 OFFCURVE",
"546 -170 OFFCURVE",
"533 -170 CURVE SMOOTH",
"480 -170 OFFCURVE",
"482 -137 OFFCURVE",
"482 -102 CURVE SMOOTH"
);
}
);
width = 559;
}
);
leftKerningGroup = o;
unicode = 0071;
},
{
color = 4;
glyphname = r;
lastChange = "2016-09-08 14:05:00 +0000";
layers = (
{
background = {
paths = (
{
closed = 1;
nodes = (
"108 332 LINE",
"108 345 LINE",
"108 370 LINE",
"99 389 LINE",
"78 400 LINE",
"57 400 LINE",
"48 400 LINE",
"33 405 LINE",
"33 420 LINE",
"33 426 LINE",
"41 436 LINE",
"49 438 LINE",
"83 443 LINE",
"127 454 LINE",
"155 463 LINE",
"171 469 LINE",
"179 470 LINE",
"187 471 LINE",
"198 463 LINE",
"198 451 LINE",
"198 389 LINE",
"201 389 LINE",
"235 422 LINE",
"307 465 LINE",
"337 465 LINE",
"355 465 LINE",
"382 451 LINE",
"400 428 LINE",
"409 399 LINE",
"409 384 LINE",
"409 371 LINE",
"401 346 LINE",
"385 325 LINE",
"361 312 LINE",
"345 312 LINE",
"329 312 LINE",
"310 325 LINE",
"309 328 LINE",
"309 330 LINE",
"328 350 LINE",
"328 365 LINE",
"328 383 LINE",
"309 405 LINE",
"293 405 LINE",
"276 405 LINE",
"223 371 LINE",
"199 347 LINE",
"199 103 LINE",
"199 90 LINE",
"199 65 LINE",
"208 46 LINE",
"230 35 LINE",
"251 35 LINE",
"260 35 LINE",
"273 32 LINE",
"274 17 LINE",
"274 9 LINE",
"266 -3 LINE",
"258 -3 LINE",
"229 -1 LINE",
"180 0 LINE",
"153 0 LINE",
"126 0 LINE",
"78 -1 LINE",
"49 -3 LINE",
"41 -3 LINE",
"33 9 LINE",
"33 17 LINE",
"35 32 LINE",
"47 35 LINE",
"57 35 LINE",
"78 35 LINE",
"99 46 LINE",
"108 65 LINE",
"108 90 LINE",
"108 103 LINE"
);
}
);
};
layerId = UUID0;
paths = (
{
closed = 1;
nodes = (
"108 103 LINE",
"108 68 OFFCURVE",
"112 35 OFFCURVE",
"57 35 CURVE SMOOTH",
"44 35 OFFCURVE",
"35 37 OFFCURVE",
"33 17 CURVE SMOOTH",
"33 7 OFFCURVE",
"39 -3 OFFCURVE",
"49 -3 CURVE SMOOTH",
"88 -1 OFFCURVE",
"117 0 OFFCURVE",
"153 0 CURVE SMOOTH",
"189 0 OFFCURVE",
"219 -1 OFFCURVE",
"258 -3 CURVE SMOOTH",
"269 -3 OFFCURVE",
"274 7 OFFCURVE",
"274 17 CURVE SMOOTH",
"273 37 OFFCURVE",
"263 35 OFFCURVE",
"251 35 CURVE SMOOTH",
"195 35 OFFCURVE",
"199 68 OFFCURVE",
"199 103 CURVE",
"199 347 LINE",
"231 379 OFFCURVE",
"270 405 OFFCURVE",
"293 405 CURVE SMOOTH",
"314 405 OFFCURVE",
"328 389 OFFCURVE",
"328 365 CURVE SMOOTH",
"328 345 OFFCURVE",
"309 331 OFFCURVE",
"309 328 CURVE SMOOTH",
"310 324 OFFCURVE",
"324 312 OFFCURVE",
"345 312 CURVE SMOOTH",
"388 312 OFFCURVE",
"409 350 OFFCURVE",
"409 384 CURVE SMOOTH",
"409 423 OFFCURVE",
"384 465 OFFCURVE",
"337 465 CURVE SMOOTH",
"297 465 OFFCURVE",
"246 433 OFFCURVE",
"201 389 CURVE",
"198 389 LINE",
"198 451 LINE SMOOTH",
"198 467 OFFCURVE",
"189 471 OFFCURVE",
"179 470 CURVE SMOOTH",
"159 468 OFFCURVE",
"140 451 OFFCURVE",
"49 438 CURVE SMOOTH",
"38 436 OFFCURVE",
"33 428 OFFCURVE",
"33 420 CURVE SMOOTH",
"33 400 OFFCURVE",
"45 400 OFFCURVE",
"57 400 CURVE SMOOTH",
"112 400 OFFCURVE",
"108 367 OFFCURVE",
"108 332 CURVE"
);
}
);
width = 425;
}
);
leftKerningGroup = n;
unicode = 0072;
},
{
color = 4;
glyphname = s;
lastChange = "2016-09-08 14:05:00 +0000";
layers = (
{
background = {
paths = (
{
closed = 1;
nodes = (
"218 -12 LINE",
"179 -12 LINE",
"113 2 LINE",
"65 29 LINE",
"38 69 LINE",
"38 95 LINE",
"38 124 LINE",
"73 160 LINE",
"101 160 LINE",
"119 160 LINE",
"142 141 LINE",
"142 137 LINE",
"142 135 LINE",
"135 129 LINE",
"126 118 LINE",
"119 101 LINE",
"119 90 LINE",
"119 61 LINE",
"172 25 LINE",
"226 25 LINE",
"273 25 LINE",
"326 65 LINE",
"326 103 LINE",
"326 133 LINE",
"286 165 LINE",
"226 187 LINE",
"156 205 LINE",
"96 237 LINE",
"56 289 LINE",
"56 333 LINE",
"56 366 LINE",
"88 416 LINE",
"140 449 LINE",
"204 465 LINE",
"237 465 LINE",
"264 465 LINE",
"317 453 LINE",
"358 429 LINE",
"383 394 LINE",
"383 370 LINE",
"383 344 LINE",
"351 305 LINE",
"323 305 LINE",
"305 305 LINE",
"282 324 LINE",
"282 328 LINE",
"282 329 LINE",
"291 336 LINE",
"302 347 LINE",
"311 364 LINE",
"311 375 LINE",
"310 389 LINE",
"295 411 LINE",
"271 425 LINE",
"241 432 LINE",
"225 432 LINE",
"207 432 LINE",
"173 423 LINE",
"146 407 LINE",
"130 382 LINE",
"130 366 LINE",
"130 344 LINE",
"144 316 LINE",
"174 295 LINE",
"221 278 LINE",
"254 268 LINE",
"287 257 LINE",
"341 236 LINE",
"380 207 LINE",
"402 164 LINE",
"402 133 LINE",
"402 101 LINE",
"374 48 LINE",
"325 10 LINE",
"258 -12 LINE"
);
}
);
};
layerId = UUID0;
paths = (
{
closed = 1;
nodes = (
"324 -12 OFFCURVE",
"402 49 OFFCURVE",
"402 133 CURVE SMOOTH",
"402 217 OFFCURVE",
"342 240 OFFCURVE",
"254 268 CURVE SMOOTH",
"165 296 OFFCURVE",
"130 308 OFFCURVE",
"130 366 CURVE SMOOTH",
"130 409 OFFCURVE",
"178 432 OFFCURVE",
"225 432 CURVE SMOOTH",
"267 432 OFFCURVE",
"308 413 OFFCURVE",
"311 375 CURVE",
"311 345 OFFCURVE",
"282 332 OFFCURVE",
"282 328 CURVE SMOOTH",
"282 323 OFFCURVE",
"299 305 OFFCURVE",
"323 305 CURVE SMOOTH",
"360 305 OFFCURVE",
"383 336 OFFCURVE",
"383 370 CURVE SMOOTH",
"383 433 OFFCURVE",
"310 465 OFFCURVE",
"237 465 CURVE SMOOTH",
"150 465 OFFCURVE",
"56 422 OFFCURVE",
"56 333 CURVE SMOOTH",
"56 156 OFFCURVE",
"326 221 OFFCURVE",
"326 103 CURVE SMOOTH",
"326 53 OFFCURVE",
"288 25 OFFCURVE",
"226 25 CURVE SMOOTH",
"154 25 OFFCURVE",
"119 52 OFFCURVE",
"119 90 CURVE SMOOTH",
"119 120 OFFCURVE",
"142 133 OFFCURVE",
"142 137 CURVE SMOOTH",
"142 142 OFFCURVE",
"125 160 OFFCURVE",
"101 160 CURVE SMOOTH",
"64 160 OFFCURVE",
"38 133 OFFCURVE",
"38 95 CURVE SMOOTH",
"38 25 OFFCURVE",
"115 -12 OFFCURVE",
"218 -12 CURVE SMOOTH"
);
}
);
width = 443;
}
);
unicode = 0073;
},
{
color = 4;
glyphname = t;
lastChange = "2016-09-08 14:05:00 +0000";
layers = (
{
background = {
paths = (
{
closed = 1;
nodes = (
"188 414 LINE",
"188 110 LINE",
"188 95 LINE",
"194 68 LINE",
"207 46 LINE",
"229 33 LINE",
"246 33 LINE",
"257 33 LINE",
"284 36 LINE",
"301 44 LINE",
"305 46 LINE",
"313 49 LINE",
"317 49 LINE",
"325 49 LINE",
"333 36 LINE",
"336 29 LINE",
"339 20 LINE",
"331 15 LINE",
"300 -5 LINE",
"248 -17 LINE",
"216 -17 LINE",
"193 -17 LINE",
"151 0 LINE",
"117 34 LINE",
"97 87 LINE",
"97 122 LINE",
"97 416 LINE",
"39 414 LINE",
"32 414 LINE",
"25 425 LINE",
"25 432 LINE",
"25 440 LINE",
"32 453 LINE",
"39 455 LINE",
"67 460 LINE",
"101 482 LINE",
"123 511 LINE",
"137 548 LINE",
"144 568 LINE",
"147 576 LINE",
"158 581 LINE",
"166 581 LINE",
"172 581 LINE",
"187 575 LINE",
"187 567 LINE",
"180 453 LINE",
"297 460 LINE",
"306 461 LINE",
"312 449 LINE",
"312 441 LINE",
"312 430 LINE",
"305 411 LINE",
"300 411 LINE"
);
}
);
};
layerId = UUID0;
paths = (
{
closed = 1;
nodes = (
"300 411 LINE",
"307 411 OFFCURVE",
"312 427 OFFCURVE",
"312 441 CURVE SMOOTH",
"312 451 OFFCURVE",
"309 461 OFFCURVE",
"297 460 CURVE",
"180 453 LINE",
"187 567 LINE",
"187 577 OFFCURVE",
"174 581 OFFCURVE",
"166 581 CURVE SMOOTH",
"156 581 OFFCURVE",
"148 579 OFFCURVE",
"144 568 CURVE",
"125 514 OFFCURVE",
"113 469 OFFCURVE",
"39 455 CURVE SMOOTH",
"30 453 OFFCURVE",
"25 443 OFFCURVE",
"25 432 CURVE SMOOTH",
"25 423 OFFCURVE",
"30 414 OFFCURVE",
"39 414 CURVE",
"97 416 LINE",
"97 122 LINE SMOOTH",
"97 28 OFFCURVE",
"156 -17 OFFCURVE",
"216 -17 CURVE SMOOTH",
"258 -17 OFFCURVE",
"290 -12 OFFCURVE",
"331 15 CURVE SMOOTH",
"337 19 OFFCURVE",
"338 23 OFFCURVE",
"336 29 CURVE SMOOTH",
"332 38 OFFCURVE",
"327 49 OFFCURVE",
"317 49 CURVE SMOOTH",
"312 49 OFFCURVE",
"306 46 OFFCURVE",
"301 44 CURVE SMOOTH",
"279 34 OFFCURVE",
"261 33 OFFCURVE",
"246 33 CURVE SMOOTH",
"202 33 OFFCURVE",
"188 71 OFFCURVE",
"188 110 CURVE SMOOTH",
"188 414 LINE"
);
}
);
width = 379;
}
);
unicode = 0074;
},
{
color = 4;
glyphname = u;
lastChange = "2016-09-08 14:05:00 +0000";
layers = (
{
anchors = (
{
name = top;
position = "{280, 490}";
}
);
background = {
paths = (
{
closed = 1;
nodes = (
"494 95 LINE",
"494 36 LINE",
"573 36 LINE",
"584 36 LINE",
"590 24 LINE",
"590 17 LINE",
"590 3 LINE",
"573 0 LINE",
"412 -11 LINE",
"404 -11 LINE",
"403 1 LINE",
"403 9 LINE",
"403 65 LINE",
"401 65 LINE",
"386 51 LINE",
"356 24 LINE",
"319 2 LINE",
"271 -12 LINE",
"240 -12 LINE",
"171 -12 LINE",
"92 70 LINE",
"92 137 LINE",
"92 322 LINE",
"92 335 LINE",
"92 360 LINE",
"83 379 LINE",
"62 390 LINE",
"41 390 LINE",
"32 390 LINE",
"17 395 LINE",
"17 410 LINE",
"17 416 LINE",
"25 426 LINE",
"33 428 LINE",
"67 433 LINE",
"111 444 LINE",
"139 453 LINE",
"156 459 LINE",
"164 460 LINE",
"172 461 LINE",
"183 453 LINE",
"183 441 LINE",
"183 138 LINE",
"183 113 LINE",
"200 77 LINE",
"227 54 LINE",
"262 43 LINE",
"279 43 LINE",
"305 43 LINE",
"347 58 LINE",
"379 80 LINE",
"399 103 LINE",
"403 112 LINE",
"403 322 LINE",
"403 335 LINE",
"403 360 LINE",
"394 379 LINE",
"373 390 LINE",
"352 390 LINE",
"343 390 LINE",
"328 395 LINE",
"328 410 LINE",
"328 416 LINE",
"336 426 LINE",
"344 428 LINE",
"378 433 LINE",
"422 444 LINE",
"450 453 LINE",
"467 459 LINE",
"475 460 LINE",
"483 461 LINE",
"494 453 LINE",
"494 441 LINE"
);
}
);
};
layerId = UUID0;
paths = (
{
closed = 1;
nodes = (
"494 441 LINE SMOOTH",
"494 457 OFFCURVE",
"485 461 OFFCURVE",
"475 460 CURVE SMOOTH",
"455 458 OFFCURVE",
"435 441 OFFCURVE",
"344 428 CURVE SMOOTH",
"333 426 OFFCURVE",
"328 418 OFFCURVE",
"328 410 CURVE SMOOTH",
"328 390 OFFCURVE",
"340 390 OFFCURVE",
"352 390 CURVE SMOOTH",
"407 390 OFFCURVE",
"403 357 OFFCURVE",
"403 322 CURVE SMOOTH",
"403 112 LINE",
"392 89 OFFCURVE",
"349 43 OFFCURVE",
"279 43 CURVE SMOOTH",
"233 43 OFFCURVE",
"183 72 OFFCURVE",
"183 138 CURVE SMOOTH",
"183 441 LINE SMOOTH",
"183 457 OFFCURVE",
"174 461 OFFCURVE",
"164 460 CURVE SMOOTH",
"144 458 OFFCURVE",
"124 441 OFFCURVE",
"33 428 CURVE SMOOTH",
"22 426 OFFCURVE",
"17 418 OFFCURVE",
"17 410 CURVE SMOOTH",
"17 390 OFFCURVE",
"29 390 OFFCURVE",
"41 390 CURVE SMOOTH",
"96 390 OFFCURVE",
"92 357 OFFCURVE",
"92 322 CURVE SMOOTH",
"92 137 LINE SMOOTH",
"92 48 OFFCURVE",
"149 -12 OFFCURVE",
"240 -12 CURVE SMOOTH",
"324 -12 OFFCURVE",
"362 28 OFFCURVE",
"401 65 CURVE",
"403 65 LINE",
"403 9 LINE SMOOTH",
"403 -2 OFFCURVE",
"402 -11 OFFCURVE",
"412 -11 CURVE",
"573 0 LINE",
"585 2 OFFCURVE",
"590 8 OFFCURVE",
"590 17 CURVE SMOOTH",
"590 26 OFFCURVE",
"588 36 OFFCURVE",
"573 36 CURVE SMOOTH",
"519 36 OFFCURVE",
"494 56 OFFCURVE",
"494 95 CURVE SMOOTH"
);
}
);
width = 596;
}
);
leftKerningGroup = u;
rightKerningGroup = u;
unicode = 0075;
},
{
color = 4;
glyphname = v;
lastChange = "2016-09-08 14:05:00 +0000";
layers = (
{
background = {
paths = (
{
closed = 1;
nodes = (
"252 -10 LINE",
"233 31 LINE",
"196 127 LINE",
"159 222 LINE",
"123 310 LINE",
"107 345 LINE",
"99 363 LINE",
"84 389 LINE",
"67 406 LINE",
"46 415 LINE",
"31 417 LINE",
"18 419 LINE",
"9 422 LINE",
"8 436 LINE",
"7 453 LINE",
"28 456 LINE",
"43 457 LINE",
"104 460 LINE",
"174 418 LINE",
"197 368 LINE",
"207 344 LINE",
"233 280 LINE",
"260 210 LINE",
"288 141 LINE",
"302 113 LINE",
"305 113 LINE",
"404 375 LINE",
"414 404 LINE",
"396 418 LINE",
"366 418 LINE",
"357 418 LINE",
"345 421 LINE",
"344 436 LINE",
"344 442 LINE",
"350 456 LINE",
"358 456 LINE",
"387 454 LINE",
"429 453 LINE",
"455 453 LINE",
"468 453 LINE",
"486 453 LINE",
"504 454 LINE",
"523 455 LINE",
"538 456 LINE",
"546 456 LINE",
"553 442 LINE",
"553 436 LINE",
"552 421 LINE",
"539 418 LINE",
"531 418 LINE",
"498 418 LINE",
"459 394 LINE",
"445 359 LINE",
"371 175 LINE",
"357 140 LINE",
"330 74 LINE",
"308 22 LINE",
"294 -10 LINE",
"294 -10 LINE"
);
}
);
};
layerId = UUID0;
paths = (
{
closed = 1;
nodes = (
"294 -10 LINE",
"297 -9 OFFCURVE",
"445 359 OFFCURVE",
"445 359 CURVE",
"464 405 OFFCURVE",
"487 418 OFFCURVE",
"531 418 CURVE SMOOTH",
"542 418 OFFCURVE",
"552 416 OFFCURVE",
"553 436 CURVE SMOOTH",
"553 444 OFFCURVE",
"548 456 OFFCURVE",
"538 456 CURVE SMOOTH",
"499 454 OFFCURVE",
"490 453 OFFCURVE",
"455 453 CURVE SMOOTH",
"420 453 OFFCURVE",
"396 454 OFFCURVE",
"358 456 CURVE SMOOTH",
"348 456 OFFCURVE",
"344 444 OFFCURVE",
"344 436 CURVE SMOOTH",
"345 416 OFFCURVE",
"354 418 OFFCURVE",
"366 418 CURVE SMOOTH",
"406 418 OFFCURVE",
"417 413 OFFCURVE",
"404 375 CURVE",
"305 113 LINE",
"302 113 LINE",
"265 188 OFFCURVE",
"225 305 OFFCURVE",
"197 368 CURVE SMOOTH",
"167 435 OFFCURVE",
"125 461 OFFCURVE",
"43 457 CURVE SMOOTH",
"23 456 OFFCURVE",
"7 458 OFFCURVE",
"8 436 CURVE SMOOTH",
"9 418 OFFCURVE",
"14 420 OFFCURVE",
"31 417 CURVE",
"71 412 OFFCURVE",
"85 394 OFFCURVE",
"107 345 CURVE",
"151 253 OFFCURVE",
"202 100 OFFCURVE",
"252 -10 CURVE"
);
}
);
width = 551;
}
);
unicode = 0076;
},
{
color = 4;
glyphname = w;
lastChange = "2016-09-08 14:05:00 +0000";
layers = (
{
background = {
paths = (
{
closed = 1;
nodes = (
"290 109 LINE",
"293 109 LINE",
"300 130 LINE",
"317 189 LINE",
"336 255 LINE",
"355 325 LINE",
"372 387 LINE",
"386 438 LINE",
"390 453 LINE",
"438 453 LINE",
"575 109 LINE",
"578 109 LINE",
"588 140 LINE",
"608 215 LINE",
"626 287 LINE",
"642 352 LINE",
"648 375 LINE",
"654 402 LINE",
"638 418 LINE",
"610 418 LINE",
"601 418 LINE",
"589 421 LINE",
"588 436 LINE",
"588 442 LINE",
"594 456 LINE",
"602 456 LINE",
"631 454 LINE",
"674 453 LINE",
"700 453 LINE",
"713 453 LINE",
"732 453 LINE",
"749 454 LINE",
"769 455 LINE",
"784 456 LINE",
"792 456 LINE",
"799 442 LINE",
"799 436 LINE",
"798 421 LINE",
"785 418 LINE",
"777 418 LINE",
"741 418 LINE",
"700 394 LINE",
"691 359 LINE",
"580 -10 LINE",
"521 -10 LINE",
"394 317 LINE",
"295 -10 LINE",
"236 -10 LINE",
"108 345 LINE",
"100 363 LINE",
"85 389 LINE",
"68 406 LINE",
"47 415 LINE",
"32 417 LINE",
"19 419 LINE",
"10 422 LINE",
"9 436 LINE",
"8 453 LINE",
"29 456 LINE",
"44 457 LINE",
"105 460 LINE",
"175 418 LINE",
"198 368 LINE"
);
}
);
};
layerId = UUID0;
paths = (
{
closed = 1;
nodes = (
"198 368 LINE",
"168 435 OFFCURVE",
"126 461 OFFCURVE",
"44 457 CURVE SMOOTH",
"24 456 OFFCURVE",
"8 458 OFFCURVE",
"9 436 CURVE SMOOTH",
"10 418 OFFCURVE",
"15 420 OFFCURVE",
"32 417 CURVE",
"72 412 OFFCURVE",
"86 394 OFFCURVE",
"108 345 CURVE",
"236 -10 LINE",
"295 -10 LINE",
"394 317 LINE",
"521 -10 LINE",
"580 -10 LINE",
"691 359 LINE",
"703 405 OFFCURVE",
"729 418 OFFCURVE",
"777 418 CURVE SMOOTH",
"788 418 OFFCURVE",
"798 416 OFFCURVE",
"799 436 CURVE SMOOTH",
"799 444 OFFCURVE",
"794 456 OFFCURVE",
"784 456 CURVE SMOOTH",
"745 454 OFFCURVE",
"735 453 OFFCURVE",
"700 453 CURVE SMOOTH",
"665 453 OFFCURVE",
"640 454 OFFCURVE",
"602 456 CURVE SMOOTH",
"592 456 OFFCURVE",
"588 444 OFFCURVE",
"588 436 CURVE SMOOTH",
"589 416 OFFCURVE",
"598 418 OFFCURVE",
"610 418 CURVE SMOOTH",
"647 418 OFFCURVE",
"656 411 OFFCURVE",
"648 375 CURVE",
"632 315 OFFCURVE",
"605 193 OFFCURVE",
"578 109 CURVE",
"575 109 LINE",
"438 453 LINE",
"390 453 LINE",
"374 393 OFFCURVE",
"320 193 OFFCURVE",
"293 109 CURVE",
"290 109 LINE"
);
}
);
width = 798;
}
);
unicode = 0077;
},
{
color = 4;
glyphname = x;
lastChange = "2016-09-08 14:05:00 +0000";
layers = (
{
background = {
paths = (
{
closed = 1;
nodes = (
"434 94 LINE",
"450 71 LINE",
"488 35 LINE",
"514 35 LINE",
"523 35 LINE",
"536 32 LINE",
"537 17 LINE",
"537 9 LINE",
"529 -3 LINE",
"521 -3 LINE",
"492 -1 LINE",
"452 0 LINE",
"425 0 LINE",
"398 0 LINE",
"348 -1 LINE",
"319 -3 LINE",
"311 -3 LINE",
"303 9 LINE",
"303 17 LINE",
"304 32 LINE",
"317 35 LINE",
"326 35 LINE",
"346 35 LINE",
"348 58 LINE",
"333 78 LINE",
"255 182 LINE",
"169 78 LINE",
"148 51 LINE",
"159 35 LINE",
"194 35 LINE",
"203 35 LINE",
"215 32 LINE",
"216 17 LINE",
"216 11 LINE",
"210 -3 LINE",
"202 -3 LINE",
"188 -2 LINE",
"168 -1 LINE",
"150 0 LINE",
"131 0 LINE",
"118 0 LINE",
"105 0 LINE",
"86 0 LINE",
"67 -1 LINE",
"47 -2 LINE",
"32 -3 LINE",
"24 -3 LINE",
"17 11 LINE",
"17 17 LINE",
"18 32 LINE",
"31 35 LINE",
"39 35 LINE",
"55 35 LINE",
"77 42 LINE",
"95 57 LINE",
"114 79 LINE",
"126 94 LINE",
"145 115 LINE",
"198 181 LINE",
"227 216 LINE",
"113 377 LINE",
"100 394 LINE",
"72 412 LINE",
"50 417 LINE",
"37 419 LINE",
"28 422 LINE",
"27 436 LINE",
"26 453 LINE",
"47 456 LINE",
"62 457 LINE",
"164 462 LINE",
"210 401 LINE",
"221 387 LINE",
"257 326 LINE",
"286 288 LINE",
"353 375 LINE",
"362 388 LINE",
"372 405 LINE",
"368 414 LINE",
"348 418 LINE",
"328 418 LINE",
"319 418 LINE",
"307 421 LINE",
"306 436 LINE",
"306 442 LINE",
"312 456 LINE",
"320 456 LINE",
"334 455 LINE",
"354 454 LINE",
"372 453 LINE",
"391 453 LINE",
"404 453 LINE",
"417 453 LINE",
"436 453 LINE",
"455 454 LINE",
"475 455 LINE",
"490 456 LINE",
"498 456 LINE",
"505 442 LINE",
"505 436 LINE",
"504 421 LINE",
"491 419 LINE",
"483 418 LINE",
"468 417 LINE",
"447 411 LINE",
"429 398 LINE",
"409 376 LINE",
"396 359 LINE",
"383 344 LINE",
"340 288 LINE",
"312 254 LINE",
"345 211 LINE",
"410 126 LINE"
);
}
);
};
layerId = UUID0;
paths = (
{
closed = 1;
nodes = (
"402 137 OFFCURVE",
"356 197 OFFCURVE",
"312 254 CURVE",
"349 299 OFFCURVE",
"379 339 OFFCURVE",
"396 359 CURVE SMOOTH",
"432 404 OFFCURVE",
"442 416 OFFCURVE",
"483 418 CURVE SMOOTH",
"494 419 OFFCURVE",
"504 416 OFFCURVE",
"505 436 CURVE SMOOTH",
"505 444 OFFCURVE",
"500 456 OFFCURVE",
"490 456 CURVE SMOOTH",
"451 454 OFFCURVE",
"439 453 OFFCURVE",
"404 453 CURVE SMOOTH",
"369 453 OFFCURVE",
"358 454 OFFCURVE",
"320 456 CURVE SMOOTH",
"310 456 OFFCURVE",
"306 444 OFFCURVE",
"306 436 CURVE SMOOTH",
"307 416 OFFCURVE",
"316 418 OFFCURVE",
"328 418 CURVE SMOOTH",
"381 417 OFFCURVE",
"378 411 OFFCURVE",
"353 375 CURVE",
"286 288 LINE",
"247 339 OFFCURVE",
"224 382 OFFCURVE",
"210 401 CURVE SMOOTH",
"179 442 OFFCURVE",
"129 460 OFFCURVE",
"62 457 CURVE SMOOTH",
"42 456 OFFCURVE",
"26 458 OFFCURVE",
"27 436 CURVE SMOOTH",
"28 418 OFFCURVE",
"33 420 OFFCURVE",
"50 417 CURVE SMOOTH",
"79 411 OFFCURVE",
"96 399 OFFCURVE",
"113 377 CURVE",
"227 216 LINE",
"189 169 OFFCURVE",
"151 122 OFFCURVE",
"126 94 CURVE SMOOTH",
"93 55 OFFCURVE",
"81 35 OFFCURVE",
"39 35 CURVE SMOOTH",
"28 35 OFFCURVE",
"18 37 OFFCURVE",
"17 17 CURVE SMOOTH",
"17 9 OFFCURVE",
"22 -3 OFFCURVE",
"32 -3 CURVE SMOOTH",
"71 -1 OFFCURVE",
"83 0 OFFCURVE",
"118 0 CURVE SMOOTH",
"153 0 OFFCURVE",
"164 -1 OFFCURVE",
"202 -3 CURVE SMOOTH",
"212 -3 OFFCURVE",
"216 9 OFFCURVE",
"216 17 CURVE SMOOTH",
"215 37 OFFCURVE",
"206 35 OFFCURVE",
"194 35 CURVE SMOOTH",
"147 35 OFFCURVE",
"141 42 OFFCURVE",
"169 78 CURVE",
"255 182 LINE",
"333 78 LINE SMOOTH",
"353 52 OFFCURVE",
"352 35 OFFCURVE",
"326 35 CURVE SMOOTH",
"314 35 OFFCURVE",
"304 37 OFFCURVE",
"303 17 CURVE SMOOTH",
"303 7 OFFCURVE",
"309 -3 OFFCURVE",
"319 -3 CURVE SMOOTH",
"358 -1 OFFCURVE",
"389 0 OFFCURVE",
"425 0 CURVE SMOOTH",
"461 0 OFFCURVE",
"482 -1 OFFCURVE",
"521 -3 CURVE SMOOTH",
"531 -3 OFFCURVE",
"537 7 OFFCURVE",
"537 17 CURVE SMOOTH",
"536 37 OFFCURVE",
"526 35 OFFCURVE",
"514 35 CURVE SMOOTH",
"480 35 OFFCURVE",
"455 64 OFFCURVE",
"434 94 CURVE SMOOTH"
);
}
);
width = 541;
}
);
unicode = 0078;
},
{
color = 4;
glyphname = y;
lastChange = "2016-09-08 14:05:00 +0000";
layers = (
{
anchors = (
{
name = top;
position = "{277, 490}";
}
);
background = {
paths = (
{
closed = 1;
nodes = (
"296 -10 LINE",
"283 -42 LINE",
"246 -114 LINE",
"197 -177 LINE",
"135 -218 LINE",
"97 -218 LINE",
"75 -218 LINE",
"35 -203 LINE",
"5 -177 LINE",
"-13 -143 LINE",
"-13 -124 LINE",
"-12 -97 LINE",
"10 -69 LINE",
"34 -56 LINE",
"53 -55 LINE",
"51 -55 LINE",
"70 -55 LINE",
"90 -70 LINE",
"90 -75 LINE",
"90 -77 LINE",
"75 -92 LINE",
"74 -111 LINE",
"73 -129 LINE",
"97 -163 LINE",
"122 -163 LINE",
"143 -163 LINE",
"179 -138 LINE",
"210 -101 LINE",
"235 -55 LINE",
"245 -34 LINE",
"252 -12 LINE",
"244 12 LINE",
"226 52 LINE",
"191 142 LINE",
"158 231 LINE",
"125 313 LINE",
"110 345 LINE",
"102 363 LINE",
"87 389 LINE",
"70 406 LINE",
"49 415 LINE",
"34 417 LINE",
"21 419 LINE",
"12 422 LINE",
"11 436 LINE",
"10 453 LINE",
"31 456 LINE",
"46 457 LINE",
"107 460 LINE",
"177 418 LINE",
"200 368 LINE",
"210 344 LINE",
"235 280 LINE",
"262 210 LINE",
"290 141 LINE",
"304 113 LINE",
"307 113 LINE",
"405 375 LINE",
"415 404 LINE",
"397 418 LINE",
"367 418 LINE",
"358 418 LINE",
"346 421 LINE",
"345 436 LINE",
"345 442 LINE",
"351 456 LINE",
"359 456 LINE",
"388 454 LINE",
"430 453 LINE",
"456 453 LINE",
"469 453 LINE",
"487 453 LINE",
"505 454 LINE",
"524 455 LINE",
"539 456 LINE",
"547 456 LINE",
"554 442 LINE",
"554 436 LINE",
"553 421 LINE",
"540 418 LINE",
"532 418 LINE",
"499 418 LINE",
"460 394 LINE",
"446 359 LINE",
"372 177 LINE",
"358 142 LINE",
"331 76 LINE",
"310 24 LINE",
"296 -9 LINE"
);
}
);
};
layerId = UUID0;
paths = (
{
closed = 1;
nodes = (
"299 -4 OFFCURVE",
"446 359 OFFCURVE",
"446 359 CURVE",
"465 405 OFFCURVE",
"488 418 OFFCURVE",
"532 418 CURVE SMOOTH",
"543 418 OFFCURVE",
"553 416 OFFCURVE",
"554 436 CURVE SMOOTH",
"554 444 OFFCURVE",
"549 456 OFFCURVE",
"539 456 CURVE SMOOTH",
"500 454 OFFCURVE",
"491 453 OFFCURVE",
"456 453 CURVE SMOOTH",
"421 453 OFFCURVE",
"397 454 OFFCURVE",
"359 456 CURVE SMOOTH",
"349 456 OFFCURVE",
"345 444 OFFCURVE",
"345 436 CURVE SMOOTH",
"346 416 OFFCURVE",
"355 418 OFFCURVE",
"367 418 CURVE SMOOTH",
"407 418 OFFCURVE",
"418 413 OFFCURVE",
"405 375 CURVE",
"307 113 LINE",
"304 113 LINE",
"267 188 OFFCURVE",
"228 305 OFFCURVE",
"200 368 CURVE SMOOTH",
"170 435 OFFCURVE",
"128 461 OFFCURVE",
"46 457 CURVE SMOOTH",
"26 456 OFFCURVE",
"10 458 OFFCURVE",
"11 436 CURVE SMOOTH",
"12 418 OFFCURVE",
"17 420 OFFCURVE",
"34 417 CURVE",
"74 412 OFFCURVE",
"88 394 OFFCURVE",
"110 345 CURVE",
"151 259 OFFCURVE",
"196 120 OFFCURVE",
"244 12 CURVE",
"250 -5 OFFCURVE",
"250 -19 OFFCURVE",
"245 -34 CURVE",
"219 -90 OFFCURVE",
"177 -163 OFFCURVE",
"122 -163 CURVE SMOOTH",
"89 -163 OFFCURVE",
"73 -135 OFFCURVE",
"74 -111 CURVE SMOOTH",
"75 -86 OFFCURVE",
"90 -78 OFFCURVE",
"90 -75 CURVE SMOOTH",
"90 -68 OFFCURVE",
"76 -55 OFFCURVE",
"51 -55 CURVE SMOOTH",
"57 -55 OFFCURVE",
"-11 -52 OFFCURVE",
"-13 -124 CURVE SMOOTH",
"-14 -175 OFFCURVE",
"39 -218 OFFCURVE",
"97 -218 CURVE SMOOTH",
"198 -218 OFFCURVE",
"261 -94 OFFCURVE",
"296 -10 CURVE"
);
}
);
width = 552;
}
);
leftKerningGroup = y;
rightKerningGroup = y;
unicode = 0079;
},
{
color = 4;
glyphname = z;
lastChange = "2016-09-08 14:05:00 +0000";
layers = (
{
background = {
paths = (
{
closed = 1;
nodes = (
"310 32 LINE",
"334 32 LINE",
"367 40 LINE",
"390 65 LINE",
"404 110 LINE",
"409 148 LINE",
"410 156 LINE",
"428 164 LINE",
"439 164 LINE",
"447 164 LINE",
"461 155 LINE",
"461 146 LINE",
"444 23 LINE",
"442 8 LINE",
"430 0 LINE",
"421 0 LINE",
"132 0 LINE",
"119 0 LINE",
"101 0 LINE",
"85 -1 LINE",
"66 -2 LINE",
"52 -3 LINE",
"44 -3 LINE",
"36 9 LINE",
"36 17 LINE",
"37 32 LINE",
"49 35 LINE",
"59 35 LINE",
"73 35 LINE",
"92 38 LINE",
"106 48 LINE",
"119 67 LINE",
"127 83 LINE",
"265 370 LINE",
"274 388 LINE",
"278 409 LINE",
"271 419 LINE",
"253 421 LINE",
"239 421 LINE",
"197 421 LINE",
"173 421 LINE",
"140 413 LINE",
"117 388 LINE",
"103 342 LINE",
"98 305 LINE",
"97 297 LINE",
"79 289 LINE",
"68 289 LINE",
"60 289 LINE",
"46 298 LINE",
"46 307 LINE",
"63 430 LINE",
"65 445 LINE",
"77 453 LINE",
"86 453 LINE",
"360 453 LINE",
"373 453 LINE",
"391 453 LINE",
"408 454 LINE",
"426 455 LINE",
"441 456 LINE",
"449 456 LINE",
"457 444 LINE",
"457 436 LINE",
"456 421 LINE",
"443 418 LINE",
"434 418 LINE",
"420 418 LINE",
"401 415 LINE",
"386 405 LINE",
"373 386 LINE",
"365 370 LINE",
"228 83 LINE",
"219 65 LINE",
"215 44 LINE",
"222 34 LINE",
"240 32 LINE",
"254 32 LINE"
);
}
);
};
layerId = UUID0;
paths = (
{
closed = 1;
nodes = (
"254 32 LINE",
"216 32 OFFCURVE",
"205 34 OFFCURVE",
"228 83 CURVE",
"365 370 LINE",
"387 412 OFFCURVE",
"396 418 OFFCURVE",
"434 418 CURVE SMOOTH",
"446 418 OFFCURVE",
"456 416 OFFCURVE",
"457 436 CURVE SMOOTH",
"457 446 OFFCURVE",
"451 456 OFFCURVE",
"441 456 CURVE SMOOTH",
"402 454 OFFCURVE",
"396 453 OFFCURVE",
"360 453 CURVE SMOOTH",
"86 453 LINE SMOOTH",
"74 453 OFFCURVE",
"66 450 OFFCURVE",
"63 430 CURVE",
"46 307 LINE",
"46 295 OFFCURVE",
"58 289 OFFCURVE",
"68 289 CURVE SMOOTH",
"82 289 OFFCURVE",
"97 294 OFFCURVE",
"98 305 CURVE SMOOTH",
"111 405 OFFCURVE",
"134 421 OFFCURVE",
"197 421 CURVE SMOOTH",
"239 421 LINE SMOOTH",
"277 421 OFFCURVE",
"288 419 OFFCURVE",
"265 370 CURVE",
"127 83 LINE",
"105 41 OFFCURVE",
"97 35 OFFCURVE",
"59 35 CURVE SMOOTH",
"46 35 OFFCURVE",
"37 37 OFFCURVE",
"36 17 CURVE SMOOTH",
"36 7 OFFCURVE",
"41 -3 OFFCURVE",
"52 -3 CURVE SMOOTH",
"90 -1 OFFCURVE",
"97 0 OFFCURVE",
"132 0 CURVE SMOOTH",
"421 0 LINE",
"433 0 OFFCURVE",
"441 3 OFFCURVE",
"444 23 CURVE SMOOTH",
"461 146 LINE",
"461 158 OFFCURVE",
"449 164 OFFCURVE",
"439 164 CURVE SMOOTH",
"425 164 OFFCURVE",
"410 159 OFFCURVE",
"409 148 CURVE SMOOTH",
"396 48 OFFCURVE",
"373 32 OFFCURVE",
"310 32 CURVE"
);
}
);
width = 502;
}
);
unicode = 007A;
},
{
color = 4;
glyphname = comma;
lastChange = "2016-09-08 14:05:00 +0000";
layers = (
{
background = {
paths = (
{
closed = 1;
nodes = (
"45 97 LINE",
"45 116 LINE",
"74 147 LINE",
"95 147 LINE",
"117 147 LINE",
"154 126 LINE",
"181 91 LINE",
"196 49 LINE",
"196 28 LINE",
"196 -3 LINE",
"169 -52 LINE",
"127 -88 LINE",
"74 -113 LINE",
"48 -120 LINE",
"40 -123 LINE",
"29 -116 LINE",
"24 -104 LINE",
"27 -92 LINE",
"35 -89 LINE",
"77 -73 LINE",
"120 -30 LINE",
"120 0 LINE",
"120 18 LINE",
"97 40 LINE",
"68 59 LINE",
"45 80 LINE"
);
}
);
};
layerId = UUID0;
paths = (
{
closed = 1;
nodes = (
"45 51 OFFCURVE",
"120 49 OFFCURVE",
"120 0 CURVE SMOOTH",
"120 -40 OFFCURVE",
"91 -68 OFFCURVE",
"35 -89 CURVE",
"15 -97 OFFCURVE",
"28 -127 OFFCURVE",
"48 -120 CURVE SMOOTH",
"117 -100 OFFCURVE",
"196 -55 OFFCURVE",
"196 28 CURVE SMOOTH",
"196 84 OFFCURVE",
"153 147 OFFCURVE",
"95 147 CURVE SMOOTH",
"67 147 OFFCURVE",
"45 122 OFFCURVE",
"45 97 CURVE SMOOTH"
);
}
);
width = 237;
}
);
leftKerningGroup = period;
rightKerningGroup = period;
unicode = 002C;
},
{
color = 4;
glyphname = period;
lastChange = "2016-09-08 14:05:00 +0000";
layers = (
{
background = {
paths = (
{
closed = 1;
nodes = (
"110 -12 LINE",
"83 -12 LINE",
"47 22 LINE",
"47 51 LINE",
"47 77 LINE",
"83 113 LINE",
"111 113 LINE",
"138 113 LINE",
"175 77 LINE",
"175 51 LINE",
"175 22 LINE",
"138 -12 LINE"
);
}
);
};
layerId = UUID0;
paths = (
{
closed = 1;
nodes = (
"147 -12 OFFCURVE",
"175 13 OFFCURVE",
"175 51 CURVE SMOOTH",
"175 86 OFFCURVE",
"147 113 OFFCURVE",
"111 113 CURVE SMOOTH",
"74 113 OFFCURVE",
"47 86 OFFCURVE",
"47 51 CURVE SMOOTH",
"47 13 OFFCURVE",
"74 -12 OFFCURVE",
"110 -12 CURVE SMOOTH"
);
}
);
width = 222;
}
);
leftKerningGroup = period;
rightKerningGroup = period;
unicode = 002E;
},
{
color = 4;
glyphname = question;
lastChange = "2016-09-08 14:05:00 +0000";
layers = (
{
background = {
paths = (
{
closed = 1;
nodes = (
"211 -12 LINE",
"184 -12 LINE",
"148 23 LINE",
"148 52 LINE",
"148 78 LINE",
"184 115 LINE",
"212 115 LINE",
"240 115 LINE",
"276 78 LINE",
"276 52 LINE",
"276 23 LINE",
"240 -12 LINE"
);
},
{
closed = 1;
nodes = (
"207 687 LINE",
"242 688 LINE",
"308 674 LINE",
"359 641 LINE",
"389 587 LINE",
"389 548 LINE",
"389 520 LINE",
"368 475 LINE",
"333 436 LINE",
"290 404 LINE",
"269 390 LINE",
"250 377 LINE",
"215 351 LINE",
"187 323 LINE",
"170 290 LINE",
"170 271 LINE",
"170 252 LINE",
"195 228 LINE",
"209 228 LINE",
"226 228 LINE",
"256 245 LINE",
"270 259 LINE",
"279 268 LINE",
"297 274 LINE",
"305 273 LINE",
"321 271 LINE",
"340 247 LINE",
"327 233 LINE",
"305 211 LINE",
"251 187 LINE",
"226 187 LINE",
"203 187 LINE",
"161 204 LINE",
"128 236 LINE",
"108 281 LINE",
"108 310 LINE",
"108 333 LINE",
"126 370 LINE",
"156 401 LINE",
"193 427 LINE",
"213 439 LINE",
"232 451 LINE",
"268 475 LINE",
"296 503 LINE",
"313 536 LINE",
"313 557 LINE",
"313 596 LINE",
"262 652 LINE",
"212 651 LINE",
"197 651 LINE",
"166 642 LINE",
"142 624 LINE",
"126 597 LINE",
"126 580 LINE",
"126 567 LINE",
"136 548 LINE",
"149 534 LINE",
"159 526 LINE",
"159 525 LINE",
"159 520 LINE",
"135 498 LINE",
"113 498 LINE",
"94 498 LINE",
"65 516 LINE",
"48 545 LINE",
"43 580 LINE",
"47 597 LINE",
"54 627 LINE",
"96 662 LINE",
"146 681 LINE",
"193 687 LINE"
);
}
);
};
layerId = UUID0;
paths = (
{
closed = 1;
nodes = (
"249 -12 OFFCURVE",
"276 14 OFFCURVE",
"276 52 CURVE SMOOTH",
"276 87 OFFCURVE",
"249 115 OFFCURVE",
"212 115 CURVE SMOOTH",
"175 115 OFFCURVE",
"148 87 OFFCURVE",
"148 52 CURVE SMOOTH",
"148 14 OFFCURVE",
"175 -12 OFFCURVE",
"211 -12 CURVE SMOOTH"
);
},
{
closed = 1;
nodes = (
"171 687 OFFCURVE",
"67 676 OFFCURVE",
"47 597 CURVE SMOOTH",
"36 552 OFFCURVE",
"62 498 OFFCURVE",
"113 498 CURVE SMOOTH",
"142 498 OFFCURVE",
"159 518 OFFCURVE",
"159 525 CURVE SMOOTH",
"159 529 OFFCURVE",
"126 545 OFFCURVE",
"126 580 CURVE SMOOTH",
"126 626 OFFCURVE",
"172 651 OFFCURVE",
"212 651 CURVE",
"278 652 OFFCURVE",
"313 609 OFFCURVE",
"313 557 CURVE SMOOTH",
"313 502 OFFCURVE",
"263 471 OFFCURVE",
"213 439 CURVE SMOOTH",
"161 406 OFFCURVE",
"108 372 OFFCURVE",
"108 310 CURVE SMOOTH",
"108 234 OFFCURVE",
"166 187 OFFCURVE",
"226 187 CURVE SMOOTH",
"259 187 OFFCURVE",
"298 204 OFFCURVE",
"327 233 CURVE",
"344 252 OFFCURVE",
"327 271 OFFCURVE",
"305 273 CURVE SMOOTH",
"295 274 OFFCURVE",
"282 271 OFFCURVE",
"270 259 CURVE",
"252 241 OFFCURVE",
"232 228 OFFCURVE",
"209 228 CURVE SMOOTH",
"191 228 OFFCURVE",
"170 246 OFFCURVE",
"170 271 CURVE SMOOTH",
"170 322 OFFCURVE",
"219 356 OFFCURVE",
"269 390 CURVE SMOOTH",
"326 428 OFFCURVE",
"389 474 OFFCURVE",
"389 548 CURVE SMOOTH",
"389 652 OFFCURVE",
"301 689 OFFCURVE",
"207 687 CURVE"
);
}
);
width = 435;
}
);
unicode = 003F;
},
{
color = 4;
glyphname = colon;
lastChange = "2016-09-08 14:05:00 +0000";
layers = (
{
background = {
paths = (
{
closed = 1;
nodes = (
"124 429 LINE",
"152 429 LINE",
"187 394 LINE",
"187 366 LINE",
"187 338 LINE",
"152 304 LINE",
"123 304 LINE",
"95 304 LINE",
"60 338 LINE",
"60 366 LINE",
"60 394 LINE",
"95 429 LINE"
);
},
{
closed = 1;
nodes = (
"123 -12 LINE",
"96 -12 LINE",
"60 23 LINE",
"60 52 LINE",
"60 78 LINE",
"96 113 LINE",
"124 113 LINE",
"153 113 LINE",
"188 78 LINE",
"188 52 LINE",
"188 23 LINE",
"152 -12 LINE"
);
}
);
};
layerId = UUID0;
paths = (
{
closed = 1;
nodes = (
"86 429 OFFCURVE",
"60 403 OFFCURVE",
"60 366 CURVE SMOOTH",
"60 329 OFFCURVE",
"86 304 OFFCURVE",
"123 304 CURVE SMOOTH",
"161 304 OFFCURVE",
"187 329 OFFCURVE",
"187 366 CURVE SMOOTH",
"187 403 OFFCURVE",
"161 429 OFFCURVE",
"124 429 CURVE"
);
},
{
closed = 1;
nodes = (
"162 -12 OFFCURVE",
"188 13 OFFCURVE",
"188 52 CURVE SMOOTH",
"188 87 OFFCURVE",
"162 113 OFFCURVE",
"124 113 CURVE SMOOTH",
"87 113 OFFCURVE",
"60 87 OFFCURVE",
"60 52 CURVE SMOOTH",
"60 13 OFFCURVE",
"87 -12 OFFCURVE",
"123 -12 CURVE"
);
}
);
width = 248;
}
);
leftKerningGroup = colon;
unicode = 003A;
},
{
color = 4;
glyphname = semicolon;
lastChange = "2016-09-08 14:05:00 +0000";
layers = (
{
background = {
paths = (
{
closed = 1;
nodes = (
"128 426 LINE",
"156 426 LINE",
"191 391 LINE",
"191 363 LINE",
"191 336 LINE",
"156 301 LINE",
"127 301 LINE",
"101 301 LINE",
"64 336 LINE",
"64 363 LINE",
"64 391 LINE",
"102 426 LINE"
);
},
{
closed = 1;
nodes = (
"58 97 LINE",
"58 116 LINE",
"87 147 LINE",
"108 147 LINE",
"130 147 LINE",
"167 126 LINE",
"194 91 LINE",
"209 49 LINE",
"209 28 LINE",
"209 -3 LINE",
"182 -52 LINE",
"140 -88 LINE",
"87 -113 LINE",
"61 -120 LINE",
"53 -123 LINE",
"42 -116 LINE",
"37 -104 LINE",
"40 -92 LINE",
"48 -89 LINE",
"90 -73 LINE",
"133 -30 LINE",
"133 0 LINE",
"133 18 LINE",
"110 40 LINE",
"81 59 LINE",
"58 80 LINE"
);
}
);
};
layerId = UUID0;
paths = (
{
closed = 1;
nodes = (
"93 426 OFFCURVE",
"64 400 OFFCURVE",
"64 363 CURVE SMOOTH",
"64 327 OFFCURVE",
"93 301 OFFCURVE",
"127 301 CURVE SMOOTH",
"165 301 OFFCURVE",
"191 327 OFFCURVE",
"191 363 CURVE SMOOTH",
"191 400 OFFCURVE",
"165 426 OFFCURVE",
"128 426 CURVE"
);
},
{
closed = 1;
nodes = (
"58 51 OFFCURVE",
"133 49 OFFCURVE",
"133 0 CURVE SMOOTH",
"133 -40 OFFCURVE",
"104 -68 OFFCURVE",
"48 -89 CURVE SMOOTH",
"28 -97 OFFCURVE",
"41 -127 OFFCURVE",
"61 -120 CURVE",
"130 -100 OFFCURVE",
"209 -55 OFFCURVE",
"209 28 CURVE SMOOTH",
"209 84 OFFCURVE",
"166 147 OFFCURVE",
"108 147 CURVE SMOOTH",
"80 147 OFFCURVE",
"58 122 OFFCURVE",
"58 97 CURVE SMOOTH"
);
}
);
width = 261;
}
);
leftKerningGroup = colon;
unicode = 003B;
},
{
color = 4;
glyphname = f_j;
lastChange = "2016-09-08 14:05:00 +0000";
layers = (
{
background = {
paths = (
{
closed = 1;
nodes = (
"518 99 LINE",
"518 42 LINE",
"500 -57 LINE",
"458 -137 LINE",
"387 -192 LINE",
"334 -205 LINE",
"325 -207 LINE",
"317 -200 LINE",
"314 -191 LINE",
"312 -183 LINE",
"313 -170 LINE",
"321 -167 LINE",
"358 -152 LINE",
"400 -101 LINE",
"421 -27 LINE",
"427 70 LINE",
"427 131 LINE",
"427 331 LINE",
"427 344 LINE",
"427 369 LINE",
"418 388 LINE",
"397 399 LINE",
"376 399 LINE",
"211 399 LINE",
"211 103 LINE",
"211 90 LINE",
"211 65 LINE",
"220 46 LINE",
"241 35 LINE",
"262 35 LINE",
"272 35 LINE",
"284 32 LINE",
"285 17 LINE",
"285 9 LINE",
"278 -3 LINE",
"270 -3 LINE",
"241 -1 LINE",
"191 0 LINE",
"165 0 LINE",
"138 0 LINE",
"90 -1 LINE",
"61 -3 LINE",
"53 -3 LINE",
"45 9 LINE",
"45 17 LINE",
"46 32 LINE",
"58 35 LINE",
"68 35 LINE",
"89 35 LINE",
"110 46 LINE",
"119 65 LINE",
"119 90 LINE",
"119 103 LINE",
"119 399 LINE",
"42 399 LINE",
"34 399 LINE",
"25 411 LINE",
"25 419 LINE",
"26 435 LINE",
"39 438 LINE",
"49 438 LINE",
"119 438 LINE",
"120 509 LINE",
"161 616 LINE",
"231 688 LINE",
"326 724 LINE",
"382 724 LINE",
"405 724 LINE",
"449 711 LINE",
"484 686 LINE",
"506 650 LINE",
"506 626 LINE",
"506 597 LINE",
"471 548 LINE",
"438 548 LINE",
"415 548 LINE",
"391 570 LINE",
"391 575 LINE",
"391 577 LINE",
"402 585 LINE",
"415 600 LINE",
"426 623 LINE",
"426 638 LINE",
"426 666 LINE",
"389 693 LINE",
"356 693 LINE",
"326 693 LINE",
"272 663 LINE",
"232 601 LINE",
"210 504 LINE",
"211 438 LINE",
"295 436 LINE",
"443 451 LINE",
"509 470 LINE",
"518 472 LINE",
"518 463 LINE"
);
}
);
};
layerId = UUID0;
paths = (
{
closed = 1;
nodes = (
"518 463 LINE SMOOTH",
"518 470 OFFCURVE",
"514 471 OFFCURVE",
"509 470 CURVE SMOOTH",
"368 438 LINE",
"211 438 LINE",
"208 615 OFFCURVE",
"275 693 OFFCURVE",
"356 693 CURVE SMOOTH",
"400 693 OFFCURVE",
"426 675 OFFCURVE",
"426 638 CURVE SMOOTH",
"426 597 OFFCURVE",
"391 580 OFFCURVE",
"391 575 CURVE SMOOTH",
"391 568 OFFCURVE",
"408 548 OFFCURVE",
"438 548 CURVE SMOOTH",
"482 548 OFFCURVE",
"506 587 OFFCURVE",
"506 626 CURVE SMOOTH",
"506 689 OFFCURVE",
"443 724 OFFCURVE",
"382 724 CURVE SMOOTH",
"232 724 OFFCURVE",
"123 627 OFFCURVE",
"119 438 CURVE",
"49 438 LINE SMOOTH",
"36 438 OFFCURVE",
"26 440 OFFCURVE",
"25 419 CURVE SMOOTH",
"25 409 OFFCURVE",
"31 399 OFFCURVE",
"42 399 CURVE SMOOTH",
"119 399 LINE",
"119 103 LINE SMOOTH",
"119 68 OFFCURVE",
"124 35 OFFCURVE",
"68 35 CURVE SMOOTH",
"55 35 OFFCURVE",
"46 37 OFFCURVE",
"45 17 CURVE SMOOTH",
"45 7 OFFCURVE",
"50 -3 OFFCURVE",
"61 -3 CURVE SMOOTH",
"99 -1 OFFCURVE",
"129 0 OFFCURVE",
"165 0 CURVE SMOOTH",
"200 0 OFFCURVE",
"231 -1 OFFCURVE",
"270 -3 CURVE SMOOTH",
"280 -3 OFFCURVE",
"285 7 OFFCURVE",
"285 17 CURVE SMOOTH",
"284 37 OFFCURVE",
"275 35 OFFCURVE",
"262 35 CURVE SMOOTH",
"207 35 OFFCURVE",
"211 68 OFFCURVE",
"211 103 CURVE SMOOTH",
"211 399 LINE",
"376 399 LINE SMOOTH",
"431 399 OFFCURVE",
"427 366 OFFCURVE",
"427 331 CURVE SMOOTH",
"427 131 LINE SMOOTH",
"427 -32 OFFCURVE",
"419 -126 OFFCURVE",
"321 -167 CURVE SMOOTH",
"310 -171 OFFCURVE",
"312 -181 OFFCURVE",
"314 -191 CURVE",
"318 -203 OFFCURVE",
"322 -207 OFFCURVE",
"334 -205 CURVE",
"475 -171 OFFCURVE",
"518 -52 OFFCURVE",
"518 99 CURVE SMOOTH"
);
}
);
width = 595;
}
);
leftKerningGroup = f;
rightKerningGroup = j;
},
{
color = 4;
glyphname = f_i;
lastChange = "2016-09-08 14:05:00 +0000";
layers = (
{
background = {
paths = (
{
closed = 1;
nodes = (
"509 470 LINE",
"518 472 LINE",
"518 463 LINE",
"518 103 LINE",
"518 90 LINE",
"518 65 LINE",
"527 46 LINE",
"549 35 LINE",
"570 35 LINE",
"579 35 LINE",
"592 32 LINE",
"593 17 LINE",
"593 9 LINE",
"585 -3 LINE",
"577 -3 LINE",
"548 -1 LINE",
"499 0 LINE",
"472 0 LINE",
"445 0 LINE",
"397 -1 LINE",
"368 -3 LINE",
"360 -3 LINE",
"352 9 LINE",
"352 17 LINE",
"354 32 LINE",
"366 35 LINE",
"376 35 LINE",
"397 35 LINE",
"418 46 LINE",
"427 65 LINE",
"427 90 LINE",
"427 103 LINE",
"427 331 LINE",
"427 344 LINE",
"427 369 LINE",
"418 388 LINE",
"397 399 LINE",
"376 399 LINE",
"211 399 LINE",
"211 103 LINE",
"211 90 LINE",
"211 65 LINE",
"220 46 LINE",
"241 35 LINE",
"262 35 LINE",
"272 35 LINE",
"284 32 LINE",
"285 17 LINE",
"285 9 LINE",
"278 -3 LINE",
"270 -3 LINE",
"241 -1 LINE",
"191 0 LINE",
"165 0 LINE",
"138 0 LINE",
"90 -1 LINE",
"61 -3 LINE",
"53 -3 LINE",
"45 9 LINE",
"45 17 LINE",
"46 32 LINE",
"58 35 LINE",
"68 35 LINE",
"89 35 LINE",
"110 46 LINE",
"119 65 LINE",
"119 90 LINE",
"119 103 LINE",
"119 399 LINE",
"42 399 LINE",
"34 399 LINE",
"25 411 LINE",
"25 419 LINE",
"26 435 LINE",
"39 438 LINE",
"49 438 LINE",
"119 438 LINE",
"120 509 LINE",
"161 616 LINE",
"231 688 LINE",
"326 724 LINE",
"382 724 LINE",
"405 724 LINE",
"449 711 LINE",
"484 686 LINE",
"506 650 LINE",
"506 626 LINE",
"506 597 LINE",
"471 548 LINE",
"438 548 LINE",
"415 548 LINE",
"391 570 LINE",
"391 575 LINE",
"391 577 LINE",
"402 585 LINE",
"415 600 LINE",
"426 623 LINE",
"426 638 LINE",
"426 666 LINE",
"389 693 LINE",
"356 693 LINE",
"326 693 LINE",
"272 663 LINE",
"232 601 LINE",
"210 504 LINE",
"211 438 LINE",
"308 437 LINE",
"455 453 LINE",
"509 470 LINE"
);
}
);
};
layerId = UUID0;
paths = (
{
closed = 1;
nodes = (
"211 438 LINE",
"208 615 OFFCURVE",
"275 693 OFFCURVE",
"356 693 CURVE SMOOTH",
"400 693 OFFCURVE",
"426 675 OFFCURVE",
"426 638 CURVE SMOOTH",
"426 597 OFFCURVE",
"391 580 OFFCURVE",
"391 575 CURVE SMOOTH",
"391 568 OFFCURVE",
"408 548 OFFCURVE",
"438 548 CURVE SMOOTH",
"482 548 OFFCURVE",
"506 587 OFFCURVE",
"506 626 CURVE SMOOTH",
"506 689 OFFCURVE",
"443 724 OFFCURVE",
"382 724 CURVE SMOOTH",
"232 724 OFFCURVE",
"123 627 OFFCURVE",
"119 438 CURVE",
"49 438 LINE SMOOTH",
"36 438 OFFCURVE",
"26 440 OFFCURVE",
"25 419 CURVE SMOOTH",
"25 409 OFFCURVE",
"31 399 OFFCURVE",
"42 399 CURVE SMOOTH",
"119 399 LINE",
"119 103 LINE SMOOTH",
"119 68 OFFCURVE",
"124 35 OFFCURVE",
"68 35 CURVE SMOOTH",
"55 35 OFFCURVE",
"46 37 OFFCURVE",
"45 17 CURVE SMOOTH",
"45 7 OFFCURVE",
"50 -3 OFFCURVE",
"61 -3 CURVE SMOOTH",
"99 -1 OFFCURVE",
"129 0 OFFCURVE",
"165 0 CURVE SMOOTH",
"200 0 OFFCURVE",
"231 -1 OFFCURVE",
"270 -3 CURVE SMOOTH",
"280 -3 OFFCURVE",
"285 7 OFFCURVE",
"285 17 CURVE SMOOTH",
"284 37 OFFCURVE",
"275 35 OFFCURVE",
"262 35 CURVE SMOOTH",
"207 35 OFFCURVE",
"211 68 OFFCURVE",
"211 103 CURVE SMOOTH",
"211 399 LINE",
"376 399 LINE SMOOTH",
"431 399 OFFCURVE",
"427 366 OFFCURVE",
"427 331 CURVE SMOOTH",
"427 103 LINE SMOOTH",
"427 68 OFFCURVE",
"431 35 OFFCURVE",
"376 35 CURVE SMOOTH",
"363 35 OFFCURVE",
"354 37 OFFCURVE",
"352 17 CURVE",
"352 7 OFFCURVE",
"358 -3 OFFCURVE",
"368 -3 CURVE SMOOTH",
"407 -1 OFFCURVE",
"436 0 OFFCURVE",
"472 0 CURVE SMOOTH",
"508 0 OFFCURVE",
"538 -1 OFFCURVE",
"577 -3 CURVE SMOOTH",
"588 -3 OFFCURVE",
"593 7 OFFCURVE",
"593 17 CURVE SMOOTH",
"592 37 OFFCURVE",
"582 35 OFFCURVE",
"570 35 CURVE SMOOTH",
"514 35 OFFCURVE",
"518 68 OFFCURVE",
"518 103 CURVE SMOOTH",
"518 463 LINE SMOOTH",
"518 470 OFFCURVE",
"514 471 OFFCURVE",
"509 470 CURVE SMOOTH",
"368 438 LINE"
);
}
);
width = 615;
}
);
leftKerningGroup = f;
rightKerningGroup = i;
},
{
color = 4;
glyphname = slash;
lastChange = "2016-09-08 14:05:00 +0000";
layers = (
{
background = {
paths = (
{
closed = 1;
nodes = (
"88 -177 LINE",
"84 -188 LINE",
"65 -197 LINE",
"56 -195 LINE",
"45 -193 LINE",
"32 -177 LINE",
"34 -166 LINE",
"304 685 LINE",
"308 696 LINE",
"327 706 LINE",
"337 704 LINE",
"348 702 LINE",
"362 684 LINE",
"360 674 LINE"
);
}
);
};
layerId = UUID0;
paths = (
{
closed = 1;
nodes = (
"360 674 LINE",
"363 687 OFFCURVE",
"352 701 OFFCURVE",
"337 704 CURVE SMOOTH",
"324 706 OFFCURVE",
"309 700 OFFCURVE",
"304 685 CURVE",
"34 -166 LINE",
"31 -180 OFFCURVE",
"42 -192 OFFCURVE",
"56 -195 CURVE SMOOTH",
"68 -197 OFFCURVE",
"83 -191 OFFCURVE",
"88 -177 CURVE"
);
}
);
width = 394;
}
);
unicode = 002F;
},
{
color = 4;
glyphname = hyphen;
lastChange = "2016-09-08 14:05:00 +0000";
layers = (
{
background = {
paths = (
{
closed = 1;
nodes = (
"83 199 LINE",
"72 199 LINE",
"60 221 LINE",
"60 231 LINE",
"60 242 LINE",
"72 263 LINE",
"83 263 LINE",
"302 263 LINE",
"313 263 LINE",
"325 242 LINE",
"325 231 LINE",
"325 221 LINE",
"313 199 LINE",
"302 199 LINE"
);
}
);
};
layerId = UUID0;
paths = (
{
closed = 1;
nodes = (
"302 199 LINE SMOOTH",
"316 199 OFFCURVE",
"325 218 OFFCURVE",
"325 231 CURVE SMOOTH",
"325 245 OFFCURVE",
"316 263 OFFCURVE",
"302 263 CURVE SMOOTH",
"83 263 LINE SMOOTH",
"69 263 OFFCURVE",
"60 245 OFFCURVE",
"60 231 CURVE SMOOTH",
"60 218 OFFCURVE",
"69 199 OFFCURVE",
"83 199 CURVE"
);
}
);
width = 385;
}
);
leftKerningGroup = hyphen;
rightKerningGroup = hyphen;
unicode = 002D;
},
{
color = 4;
glyphname = less;
lastChange = "2016-09-08 14:05:00 +0000";
layers = (
{
background = {
paths = (
{
closed = 1;
nodes = (
"49 232 LINE",
"36 241 LINE",
"36 257 LINE",
"36 264 LINE",
"42 278 LINE",
"49 282 LINE",
"441 488 LINE",
"449 490 LINE",
"453 490 LINE",
"466 490 LINE",
"476 471 LINE",
"476 461 LINE",
"476 442 LINE",
"458 433 LINE",
"124 259 LINE",
"124 256 LINE",
"458 82 LINE",
"476 71 LINE",
"476 54 LINE",
"476 44 LINE",
"466 24 LINE",
"453 24 LINE",
"447 24 LINE",
"441 27 LINE"
);
}
);
};
layerId = UUID0;
paths = (
{
closed = 1;
nodes = (
"441 27 LINE",
"459 19 OFFCURVE",
"472 31 OFFCURVE",
"475 44 CURVE SMOOTH",
"478 58 OFFCURVE",
"475 73 OFFCURVE",
"458 82 CURVE",
"124 256 LINE",
"124 259 LINE",
"458 433 LINE",
"475 442 OFFCURVE",
"478 457 OFFCURVE",
"475 471 CURVE SMOOTH",
"472 484 OFFCURVE",
"459 496 OFFCURVE",
"441 488 CURVE",
"49 282 LINE",
"40 277 OFFCURVE",
"36 266 OFFCURVE",
"36 257 CURVE SMOOTH",
"36 246 OFFCURVE",
"40 238 OFFCURVE",
"49 232 CURVE"
);
}
);
width = 529;
}
);
unicode = 003C;
},
{
color = 4;
glyphname = equal;
lastChange = "2016-09-08 14:05:00 +0000";
layers = (
{
background = {
paths = (
{
closed = 1;
nodes = (
"91 147 LINE",
"80 147 LINE",
"68 164 LINE",
"68 174 LINE",
"68 185 LINE",
"80 201 LINE",
"91 201 LINE",
"539 201 LINE",
"550 201 LINE",
"562 185 LINE",
"562 174 LINE",
"562 164 LINE",
"550 147 LINE",
"539 147 LINE"
);
},
{
closed = 1;
nodes = (
"91 315 LINE",
"80 315 LINE",
"68 332 LINE",
"68 342 LINE",
"68 353 LINE",
"80 369 LINE",
"91 369 LINE",
"539 369 LINE",
"550 369 LINE",
"562 353 LINE",
"562 342 LINE",
"562 332 LINE",
"550 315 LINE",
"539 315 LINE"
);
}
);
};
layerId = UUID0;
paths = (
{
closed = 1;
nodes = (
"539 147 LINE",
"553 147 OFFCURVE",
"562 161 OFFCURVE",
"562 174 CURVE SMOOTH",
"562 188 OFFCURVE",
"553 201 OFFCURVE",
"539 201 CURVE SMOOTH",
"91 201 LINE SMOOTH",
"77 201 OFFCURVE",
"68 188 OFFCURVE",
"68 174 CURVE SMOOTH",
"68 161 OFFCURVE",
"77 147 OFFCURVE",
"91 147 CURVE SMOOTH"
);
},
{
closed = 1;
nodes = (
"539 315 LINE",
"553 315 OFFCURVE",
"562 329 OFFCURVE",
"562 342 CURVE SMOOTH",
"562 356 OFFCURVE",
"553 369 OFFCURVE",
"539 369 CURVE SMOOTH",
"91 369 LINE SMOOTH",
"77 369 OFFCURVE",
"68 356 OFFCURVE",
"68 342 CURVE SMOOTH",
"68 329 OFFCURVE",
"77 315 OFFCURVE",
"91 315 CURVE SMOOTH"
);
}
);
width = 630;
}
);
unicode = 003D;
},
{
color = 4;
glyphname = greater;
lastChange = "2016-09-08 14:05:00 +0000";
layers = (
{
background = {
paths = (
{
closed = 1;
nodes = (
"88 27 LINE",
"82 24 LINE",
"76 24 LINE",
"63 24 LINE",
"53 44 LINE",
"53 54 LINE",
"53 71 LINE",
"71 82 LINE",
"405 256 LINE",
"405 259 LINE",
"71 433 LINE",
"53 442 LINE",
"53 461 LINE",
"53 471 LINE",
"63 490 LINE",
"76 490 LINE",
"80 490 LINE",
"88 488 LINE",
"480 282 LINE",
"487 278 LINE",
"493 264 LINE",
"493 257 LINE",
"493 241 LINE",
"480 232 LINE"
);
}
);
};
layerId = UUID0;
paths = (
{
closed = 1;
nodes = (
"480 232 LINE",
"489 238 OFFCURVE",
"493 246 OFFCURVE",
"493 257 CURVE SMOOTH",
"493 266 OFFCURVE",
"489 277 OFFCURVE",
"480 282 CURVE SMOOTH",
"88 488 LINE",
"70 496 OFFCURVE",
"57 484 OFFCURVE",
"54 471 CURVE SMOOTH",
"51 457 OFFCURVE",
"54 442 OFFCURVE",
"71 433 CURVE SMOOTH",
"405 259 LINE",
"405 256 LINE",
"71 82 LINE SMOOTH",
"54 73 OFFCURVE",
"51 58 OFFCURVE",
"54 44 CURVE SMOOTH",
"57 31 OFFCURVE",
"70 19 OFFCURVE",
"88 27 CURVE"
);
}
);
width = 529;
}
);
unicode = 003E;
},
{
color = 4;
glyphname = plus;
lastChange = "2016-09-08 14:05:00 +0000";
layers = (
{
background = {
paths = (
{
closed = 1;
nodes = (
"252 479 LINE",
"252 490 LINE",
"272 504 LINE",
"284 504 LINE",
"295 504 LINE",
"315 490 LINE",
"315 479 LINE",
"315 291 LINE",
"508 291 LINE",
"518 291 LINE",
"530 274 LINE",
"530 264 LINE",
"530 254 LINE",
"518 237 LINE",
"508 237 LINE",
"315 237 LINE",
"315 25 LINE",
"315 14 LINE",
"295 0 LINE",
"283 0 LINE",
"272 0 LINE",
"252 14 LINE",
"252 25 LINE",
"252 237 LINE",
"58 237 LINE",
"48 237 LINE",
"36 254 LINE",
"36 264 LINE",
"36 274 LINE",
"48 291 LINE",
"58 291 LINE",
"252 291 LINE"
);
}
);
};
layerId = UUID0;
paths = (
{
closed = 1;
nodes = (
"252 291 LINE",
"58 291 LINE",
"45 291 OFFCURVE",
"36 277 OFFCURVE",
"36 264 CURVE SMOOTH",
"36 251 OFFCURVE",
"45 237 OFFCURVE",
"58 237 CURVE",
"252 237 LINE",
"252 25 LINE SMOOTH",
"252 10 OFFCURVE",
"268 0 OFFCURVE",
"283 0 CURVE SMOOTH",
"299 0 OFFCURVE",
"315 10 OFFCURVE",
"315 25 CURVE SMOOTH",
"315 237 LINE",
"508 237 LINE SMOOTH",
"521 237 OFFCURVE",
"530 251 OFFCURVE",
"530 264 CURVE SMOOTH",
"530 277 OFFCURVE",
"521 291 OFFCURVE",
"508 291 CURVE",
"315 291 LINE",
"315 479 LINE",
"315 494 OFFCURVE",
"299 504 OFFCURVE",
"284 504 CURVE SMOOTH",
"268 504 OFFCURVE",
"252 494 OFFCURVE",
"252 479 CURVE"
);
}
);
width = 566;
}
);
unicode = 002B;
},
{
color = 4;
glyphname = parenright;
lastChange = "2016-09-08 14:05:00 +0000";
layers = (
{
background = {
paths = (
{
closed = 1;
nodes = (
"36 -165 LINE",
"26 -171 LINE",
"14 -164 LINE",
"11 -157 LINE",
"5 -142 LINE",
"18 -130 LINE",
"52 -97 LINE",
"109 -8 LINE",
"149 98 LINE",
"172 218 LINE",
"172 281 LINE",
"172 344 LINE",
"149 464 LINE",
"108 570 LINE",
"51 660 LINE",
"17 693 LINE",
"4 705 LINE",
"10 720 LINE",
"13 727 LINE",
"25 734 LINE",
"35 728 LINE",
"144 651 LINE",
"257 420 LINE",
"257 282 LINE",
"257 142 LINE",
"145 -90 LINE"
);
}
);
};
layerId = UUID0;
paths = (
{
closed = 1;
nodes = (
"181 -66 OFFCURVE",
"257 97 OFFCURVE",
"257 282 CURVE SMOOTH",
"257 465 OFFCURVE",
"180 626 OFFCURVE",
"35 728 CURVE",
"22 736 OFFCURVE",
"14 729 OFFCURVE",
"10 720 CURVE SMOOTH",
"6 710 OFFCURVE",
"9 700 OFFCURVE",
"17 693 CURVE SMOOTH",
"108 605 OFFCURVE",
"172 449 OFFCURVE",
"172 281 CURVE SMOOTH",
"172 113 OFFCURVE",
"109 -43 OFFCURVE",
"18 -130 CURVE SMOOTH",
"10 -137 OFFCURVE",
"7 -147 OFFCURVE",
"11 -157 CURVE SMOOTH",
"15 -166 OFFCURVE",
"23 -173 OFFCURVE",
"36 -165 CURVE SMOOTH"
);
}
);
width = 293;
}
);
unicode = 0029;
},
{
color = 4;
glyphname = asterisk;
lastChange = "2016-09-08 14:05:00 +0000";
layers = (
{
background = {
paths = (
{
closed = 1;
nodes = (
"220 703 LINE",
"226 692 LINE",
"232 665 LINE",
"237 630 LINE",
"247 587 LINE",
"258 561 LINE",
"267 562 LINE",
"279 587 LINE",
"288 629 LINE",
"292 664 LINE",
"297 692 LINE",
"303 703 LINE",
"316 723 LINE",
"354 731 LINE",
"370 722 LINE",
"387 714 LINE",
"400 678 LINE",
"387 658 LINE",
"381 646 LINE",
"358 628 LINE",
"329 607 LINE",
"296 578 LINE",
"279 555 LINE",
"282 547 LINE",
"312 551 LINE",
"355 564 LINE",
"389 578 LINE",
"416 588 LINE",
"429 588 LINE",
"455 588 LINE",
"483 560 LINE",
"482 542 LINE",
"482 524 LINE",
"454 496 LINE",
"429 496 LINE",
"416 496 LINE",
"389 505 LINE",
"355 518 LINE",
"312 531 LINE",
"283 534 LINE",
"277 528 LINE",
"295 506 LINE",
"330 477 LINE",
"359 456 LINE",
"382 438 LINE",
"388 428 LINE",
"400 406 LINE",
"391 371 LINE",
"375 361 LINE",
"357 351 LINE",
"317 361 LINE",
"305 380 LINE",
"298 391 LINE",
"293 418 LINE",
"287 453 LINE",
"277 495 LINE",
"266 521 LINE",
"257 520 LINE",
"245 494 LINE",
"236 453 LINE",
"231 418 LINE",
"227 391 LINE",
"221 380 LINE",
"210 359 LINE",
"171 352 LINE",
"156 361 LINE",
"139 369 LINE",
"124 405 LINE",
"138 425 LINE",
"144 436 LINE",
"166 454 LINE",
"195 475 LINE",
"228 504 LINE",
"245 527 LINE",
"242 535 LINE",
"213 532 LINE",
"169 518 LINE",
"135 505 LINE",
"108 495 LINE",
"95 495 LINE",
"71 494 LINE",
"43 523 LINE",
"44 541 LINE",
"43 559 LINE",
"71 587 LINE",
"95 587 LINE",
"108 587 LINE",
"136 577 LINE",
"170 564 LINE",
"212 551 LINE",
"242 548 LINE",
"248 554 LINE",
"229 576 LINE",
"194 606 LINE",
"165 627 LINE",
"143 644 LINE",
"136 655 LINE",
"125 677 LINE",
"135 712 LINE",
"151 722 LINE",
"168 732 LINE",
"207 722 LINE"
);
}
);
};
layerId = UUID0;
paths = (
{
closed = 1;
nodes = (
"203 728 OFFCURVE",
"173 735 OFFCURVE",
"151 722 CURVE SMOOTH",
"130 709 OFFCURVE",
"122 684 OFFCURVE",
"136 655 CURVE SMOOTH",
"154 626 OFFCURVE",
"197 614 OFFCURVE",
"248 554 CURVE",
"241 548 LINE",
"165 557 OFFCURVE",
"131 587 OFFCURVE",
"95 587 CURVE SMOOTH",
"63 587 OFFCURVE",
"43 565 OFFCURVE",
"44 541 CURVE SMOOTH",
"43 517 OFFCURVE",
"63 494 OFFCURVE",
"95 495 CURVE SMOOTH",
"130 495 OFFCURVE",
"164 526 OFFCURVE",
"242 535 CURVE",
"243 533 OFFCURVE",
"243 529 OFFCURVE",
"245 527 CURVE",
"200 466 OFFCURVE",
"154 455 OFFCURVE",
"138 425 CURVE SMOOTH",
"120 398 OFFCURVE",
"133 372 OFFCURVE",
"156 361 CURVE SMOOTH",
"176 349 OFFCURVE",
"206 352 OFFCURVE",
"221 380 CURVE SMOOTH",
"238 409 OFFCURVE",
"225 452 OFFCURVE",
"257 520 CURVE",
"260 520 OFFCURVE",
"264 520 OFFCURVE",
"266 521 CURVE",
"296 452 OFFCURVE",
"287 409 OFFCURVE",
"305 380 CURVE SMOOTH",
"321 355 OFFCURVE",
"351 348 OFFCURVE",
"375 361 CURVE SMOOTH",
"396 374 OFFCURVE",
"404 399 OFFCURVE",
"388 428 CURVE SMOOTH",
"371 456 OFFCURVE",
"326 469 OFFCURVE",
"277 528 CURVE",
"283 534 LINE",
"360 525 OFFCURVE",
"395 496 OFFCURVE",
"429 496 CURVE SMOOTH",
"462 496 OFFCURVE",
"482 518 OFFCURVE",
"482 542 CURVE SMOOTH",
"483 566 OFFCURVE",
"463 588 OFFCURVE",
"429 588 CURVE SMOOTH",
"395 588 OFFCURVE",
"361 557 OFFCURVE",
"282 547 CURVE",
"281 549 OFFCURVE",
"281 553 OFFCURVE",
"279 555 CURVE",
"324 616 OFFCURVE",
"370 627 OFFCURVE",
"387 658 CURVE SMOOTH",
"404 684 OFFCURVE",
"392 712 OFFCURVE",
"370 722 CURVE SMOOTH",
"349 734 OFFCURVE",
"320 730 OFFCURVE",
"303 703 CURVE SMOOTH",
"286 673 OFFCURVE",
"298 630 OFFCURVE",
"267 562 CURVE",
"264 562 OFFCURVE",
"260 562 OFFCURVE",
"258 561 CURVE",
"229 631 OFFCURVE",
"237 674 OFFCURVE",
"220 703 CURVE SMOOTH"
);
}
);
width = 526;
}
);
unicode = 002A;
},
{
color = 4;
glyphname = parenleft;
lastChange = "2016-09-08 14:05:00 +0000";
layers = (
{
background = {
paths = (
{
closed = 1;
nodes = (
"257 -165 LINE",
"148 -90 LINE",
"36 142 LINE",
"36 282 LINE",
"36 420 LINE",
"149 651 LINE",
"258 728 LINE",
"268 734 LINE",
"280 727 LINE",
"283 720 LINE",
"289 705 LINE",
"276 693 LINE",
"242 660 LINE",
"185 570 LINE",
"144 464 LINE",
"121 344 LINE",
"121 281 LINE",
"121 218 LINE",
"144 98 LINE",
"184 -8 LINE",
"241 -97 LINE",
"275 -130 LINE",
"288 -142 LINE",
"282 -157 LINE",
"279 -164 LINE",
"267 -171 LINE"
);
}
);
};
layerId = UUID0;
paths = (
{
closed = 1;
nodes = (
"270 -173 OFFCURVE",
"278 -166 OFFCURVE",
"282 -157 CURVE SMOOTH",
"286 -147 OFFCURVE",
"283 -137 OFFCURVE",
"275 -130 CURVE",
"184 -43 OFFCURVE",
"121 113 OFFCURVE",
"121 281 CURVE SMOOTH",
"121 449 OFFCURVE",
"185 605 OFFCURVE",
"276 693 CURVE SMOOTH",
"284 700 OFFCURVE",
"287 710 OFFCURVE",
"283 720 CURVE SMOOTH",
"279 729 OFFCURVE",
"271 736 OFFCURVE",
"258 728 CURVE",
"113 626 OFFCURVE",
"36 465 OFFCURVE",
"36 282 CURVE SMOOTH",
"36 97 OFFCURVE",
"112 -66 OFFCURVE",
"257 -165 CURVE"
);
}
);
width = 293;
}
);
unicode = 0028;
},
{
color = 4;
glyphname = quotesingle;
lastChange = "2016-09-08 14:05:00 +0000";
layers = (
{
background = {
paths = (
{
closed = 1;
nodes = (
"111 408 LINE",
"111 402 LINE",
"100 397 LINE",
"93 397 LINE",
"87 397 LINE",
"75 403 LINE",
"75 408 LINE",
"74 428 LINE",
"64 481 LINE",
"54 537 LINE",
"45 593 LINE",
"45 617 LINE",
"45 648 LINE",
"66 688 LINE",
"93 688 LINE",
"120 688 LINE",
"140 649 LINE",
"140 618 LINE",
"140 594 LINE",
"132 538 LINE",
"121 481 LINE",
"112 428 LINE"
);
}
);
};
layerId = UUID0;
paths = (
{
closed = 1;
nodes = (
"114 462 OFFCURVE",
"140 555 OFFCURVE",
"140 618 CURVE SMOOTH",
"140 659 OFFCURVE",
"129 688 OFFCURVE",
"93 688 CURVE SMOOTH",
"57 688 OFFCURVE",
"45 658 OFFCURVE",
"45 617 CURVE SMOOTH",
"45 553 OFFCURVE",
"72 462 OFFCURVE",
"75 408 CURVE",
"75 401 OFFCURVE",
"85 397 OFFCURVE",
"93 397 CURVE SMOOTH",
"102 397 OFFCURVE",
"111 400 OFFCURVE",
"111 408 CURVE"
);
}
);
width = 186;
}
);
leftKerningGroup = quotesingle;
rightKerningGroup = quotesingle;
unicode = 0027;
},
{
color = 4;
glyphname = percent;
lastChange = "2016-09-08 14:05:00 +0000";
layers = (
{
background = {
paths = (
{
closed = 1;
nodes = (
"575 318 LINE",
"611 318 LINE",
"669 291 LINE",
"710 246 LINE",
"733 187 LINE",
"733 154 LINE",
"733 112 LINE",
"704 47 LINE",
"658 3 LINE",
"602 -20 LINE",
"575 -20 LINE",
"539 -20 LINE",
"482 7 LINE",
"441 53 LINE",
"419 113 LINE",
"419 146 LINE",
"419 188 LINE",
"448 252 LINE",
"493 296 LINE",
"548 318 LINE"
);
},
{
closed = 1;
nodes = (
"575 23 LINE",
"598 23 LINE",
"630 44 LINE",
"649 80 LINE",
"658 128 LINE",
"658 154 LINE",
"658 178 LINE",
"649 223 LINE",
"630 257 LINE",
"598 277 LINE",
"575 277 LINE",
"551 277 LINE",
"520 256 LINE",
"501 220 LINE",
"494 173 LINE",
"494 147 LINE",
"494 123 LINE",
"502 78 LINE",
"521 43 LINE",
"552 23 LINE"
);
},
{
closed = 1;
nodes = (
"200 649 LINE",
"236 649 LINE",
"294 622 LINE",
"335 577 LINE",
"357 518 LINE",
"357 486 LINE",
"357 444 LINE",
"328 379 LINE",
"282 335 LINE",
"227 312 LINE",
"200 312 LINE",
"164 312 LINE",
"106 339 LINE",
"66 385 LINE",
"44 445 LINE",
"44 478 LINE",
"44 520 LINE",
"73 583 LINE",
"118 627 LINE",
"173 649 LINE"
);
},
{
closed = 1;
nodes = (
"200 354 LINE",
"223 354 LINE",
"255 375 LINE",
"274 411 LINE",
"283 459 LINE",
"283 486 LINE",
"283 510 LINE",
"274 555 LINE",
"255 588 LINE",
"223 608 LINE",
"200 608 LINE",
"176 608 LINE",
"144 587 LINE",
"125 552 LINE",
"118 505 LINE",
"118 479 LINE",
"118 454 LINE",
"126 409 LINE",
"145 374 LINE",
"177 354 LINE"
);
},
{
closed = 1;
nodes = (
"163 6 LINE",
"154 -4 LINE",
"137 -8 LINE",
"128 -5 LINE",
"117 0 LINE",
"105 21 LINE",
"113 31 LINE",
"596 617 LINE",
"605 628 LINE",
"625 630 LINE",
"633 628 LINE",
"645 623 LINE",
"656 602 LINE",
"648 591 LINE"
);
}
);
};
layerId = UUID0;
paths = (
{
closed = 1;
nodes = (
"504 318 OFFCURVE",
"419 258 OFFCURVE",
"419 146 CURVE SMOOTH",
"419 59 OFFCURVE",
"480 -20 OFFCURVE",
"575 -20 CURVE SMOOTH",
"646 -20 OFFCURVE",
"733 42 OFFCURVE",
"733 154 CURVE SMOOTH",
"733 241 OFFCURVE",
"670 318 OFFCURVE",
"575 318 CURVE SMOOTH"
);
},
{
closed = 1;
nodes = (
"514 23 OFFCURVE",
"494 82 OFFCURVE",
"494 147 CURVE SMOOTH",
"494 216 OFFCURVE",
"511 277 OFFCURVE",
"575 277 CURVE SMOOTH",
"636 277 OFFCURVE",
"658 219 OFFCURVE",
"658 154 CURVE SMOOTH",
"658 84 OFFCURVE",
"637 23 OFFCURVE",
"575 23 CURVE SMOOTH"
);
},
{
closed = 1;
nodes = (
"129 649 OFFCURVE",
"44 589 OFFCURVE",
"44 478 CURVE SMOOTH",
"44 391 OFFCURVE",
"104 312 OFFCURVE",
"200 312 CURVE SMOOTH",
"271 312 OFFCURVE",
"357 373 OFFCURVE",
"357 486 CURVE SMOOTH",
"357 572 OFFCURVE",
"295 649 OFFCURVE",
"200 649 CURVE SMOOTH"
);
},
{
closed = 1;
nodes = (
"138 354 OFFCURVE",
"118 413 OFFCURVE",
"118 479 CURVE SMOOTH",
"118 548 OFFCURVE",
"135 608 OFFCURVE",
"200 608 CURVE SMOOTH",
"261 608 OFFCURVE",
"283 551 OFFCURVE",
"283 486 CURVE SMOOTH",
"283 415 OFFCURVE",
"262 354 OFFCURVE",
"200 354 CURVE SMOOTH"
);
},
{
closed = 1;
nodes = (
"648 591 LINE",
"658 605 OFFCURVE",
"649 621 OFFCURVE",
"633 628 CURVE",
"622 631 OFFCURVE",
"608 631 OFFCURVE",
"596 617 CURVE",
"113 31 LINE",
"102 18 OFFCURVE",
"113 1 OFFCURVE",
"128 -5 CURVE SMOOTH",
"140 -9 OFFCURVE",
"151 -7 OFFCURVE",
"163 6 CURVE"
);
}
);
width = 776;
}
);
unicode = 0025;
},
{
color = 4;
glyphname = dollar;
lastChange = "2016-09-08 14:05:00 +0000";
layers = (
{
background = {
paths = (
{
closed = 1;
nodes = (
"261 -66 LINE",
"261 -89 LINE",
"241 -89 LINE",
"222 -89 LINE",
"222 -66 LINE",
"222 -13 LINE",
"209 -13 LINE",
"196 -13 LINE",
"152 -8 LINE",
"107 10 LINE",
"68 43 LINE",
"61 71 LINE",
"58 86 LINE",
"63 119 LINE",
"78 145 LINE",
"104 162 LINE",
"121 162 LINE",
"142 162 LINE",
"163 142 LINE",
"163 137 LINE",
"163 135 LINE",
"154 128 LINE",
"143 116 LINE",
"134 98 LINE",
"134 86 LINE",
"135 69 LINE",
"150 46 LINE",
"174 31 LINE",
"205 22 LINE",
"222 21 LINE",
"222 257 LINE",
"193 269 LINE",
"136 296 LINE",
"91 331 LINE",
"63 379 LINE",
"62 413 LINE",
"61 445 LINE",
"84 496 LINE",
"128 534 LINE",
"187 558 LINE",
"222 563 LINE",
"222 617 LINE",
"222 640 LINE",
"241 640 LINE",
"261 640 LINE",
"261 617 LINE",
"261 566 LINE",
"265 566 LINE",
"277 566 LINE",
"321 561 LINE",
"366 543 LINE",
"404 510 LINE",
"411 482 LINE",
"415 467 LINE",
"410 434 LINE",
"394 408 LINE",
"368 391 LINE",
"351 391 LINE",
"331 391 LINE",
"308 411 LINE",
"308 416 LINE",
"308 417 LINE",
"318 425 LINE",
"329 437 LINE",
"339 455 LINE",
"339 467 LINE",
"339 483 LINE",
"324 506 LINE",
"302 521 LINE",
"274 529 LINE",
"261 530 LINE",
"261 330 LINE",
"292 318 LINE",
"358 285 LINE",
"412 242 LINE",
"448 186 LINE",
"449 151 LINE",
"450 67 LINE",
"354 -9 LINE",
"261 -13 LINE"
);
},
{
closed = 1;
nodes = (
"370 113 LINE",
"370 138 LINE",
"353 176 LINE",
"323 206 LINE",
"283 229 LINE",
"261 239 LINE",
"261 21 LINE",
"305 26 LINE",
"369 72 LINE"
);
},
{
closed = 1;
nodes = (
"136 446 LINE",
"136 421 LINE",
"150 388 LINE",
"174 365 LINE",
"205 351 LINE",
"222 345 LINE",
"222 529 LINE",
"177 522 LINE",
"136 475 LINE"
);
}
);
};
layerId = UUID0;
paths = (
{
closed = 1;
nodes = (
"261 -13 LINE",
"385 -7 OFFCURVE",
"451 39 OFFCURVE",
"449 151 CURVE SMOOTH",
"447 244 OFFCURVE",
"343 298 OFFCURVE",
"261 330 CURVE",
"261 530 LINE",
"296 527 OFFCURVE",
"339 511 OFFCURVE",
"339 467 CURVE SMOOTH",
"339 435 OFFCURVE",
"308 420 OFFCURVE",
"308 416 CURVE SMOOTH",
"308 409 OFFCURVE",
"324 391 OFFCURVE",
"351 391 CURVE SMOOTH",
"397 391 OFFCURVE",
"421 441 OFFCURVE",
"411 482 CURVE SMOOTH",
"393 556 OFFCURVE",
"297 566 OFFCURVE",
"265 566 CURVE SMOOTH",
"261 566 LINE",
"261 617 LINE SMOOTH",
"261 631 OFFCURVE",
"255 640 OFFCURVE",
"241 640 CURVE SMOOTH",
"227 640 OFFCURVE",
"222 631 OFFCURVE",
"222 617 CURVE SMOOTH",
"222 563 LINE",
"129 551 OFFCURVE",
"59 498 OFFCURVE",
"62 413 CURVE",
"64 323 OFFCURVE",
"144 290 OFFCURVE",
"222 257 CURVE",
"222 21 LINE",
"176 25 OFFCURVE",
"137 41 OFFCURVE",
"134 86 CURVE",
"134 118 OFFCURVE",
"163 133 OFFCURVE",
"163 137 CURVE SMOOTH",
"163 143 OFFCURVE",
"149 162 OFFCURVE",
"121 162 CURVE SMOOTH",
"75 162 OFFCURVE",
"52 112 OFFCURVE",
"61 71 CURVE",
"80 -3 OFFCURVE",
"175 -13 OFFCURVE",
"209 -13 CURVE SMOOTH",
"222 -13 LINE",
"222 -66 LINE SMOOTH",
"222 -81 OFFCURVE",
"227 -89 OFFCURVE",
"241 -89 CURVE SMOOTH",
"255 -89 OFFCURVE",
"261 -81 OFFCURVE",
"261 -66 CURVE SMOOTH"
);
},
{
closed = 1;
nodes = (
"369 59 OFFCURVE",
"319 27 OFFCURVE",
"261 21 CURVE",
"261 239 LINE",
"320 212 OFFCURVE",
"370 179 OFFCURVE",
"370 113 CURVE"
);
},
{
closed = 1;
nodes = (
"136 484 OFFCURVE",
"163 520 OFFCURVE",
"222 529 CURVE",
"222 345 LINE",
"177 361 OFFCURVE",
"136 380 OFFCURVE",
"136 446 CURVE SMOOTH"
);
}
);
width = 500;
}
);
unicode = 0024;
},
{
color = 4;
glyphname = numbersign;
lastChange = "2016-09-08 14:05:00 +0000";
layers = (
{
background = {
paths = (
{
closed = 1;
nodes = (
"249 398 LINE",
"214 233 LINE",
"369 233 LINE",
"403 398 LINE"
);
},
{
closed = 1;
nodes = (
"449 612 LINE",
"454 631 LINE",
"474 631 LINE",
"485 631 LINE",
"502 621 LINE",
"503 612 LINE",
"469 453 LINE",
"555 453 LINE",
"564 452 LINE",
"574 434 LINE",
"574 423 LINE",
"574 414 LINE",
"564 398 LINE",
"555 398 LINE",
"458 398 LINE",
"423 233 LINE",
"515 233 LINE",
"524 232 LINE",
"534 214 LINE",
"534 203 LINE",
"534 194 LINE",
"524 178 LINE",
"515 178 LINE",
"413 178 LINE",
"379 18 LINE",
"377 10 LINE",
"363 0 LINE",
"355 0 LINE",
"343 0 LINE",
"326 10 LINE",
"325 18 LINE",
"359 178 LINE",
"203 178 LINE",
"170 19 LINE",
"168 10 LINE",
"154 0 LINE",
"145 0 LINE",
"134 0 LINE",
"116 10 LINE",
"115 19 LINE",
"148 178 LINE",
"61 178 LINE",
"52 178 LINE",
"42 194 LINE",
"42 203 LINE",
"42 214 LINE",
"52 232 LINE",
"61 233 LINE",
"160 233 LINE",
"195 398 LINE",
"101 398 LINE",
"92 398 LINE",
"82 414 LINE",
"82 423 LINE",
"82 434 LINE",
"92 452 LINE",
"101 453 LINE",
"206 453 LINE",
"240 613 LINE",
"242 621 LINE",
"256 631 LINE",
"264 631 LINE",
"276 631 LINE",
"293 621 LINE",
"294 613 LINE",
"260 453 LINE",
"413 453 LINE"
);
}
);
};
layerId = UUID0;
paths = (
{
closed = 1;
nodes = (
"403 398 LINE",
"369 233 LINE",
"214 233 LINE",
"249 398 LINE"
);
},
{
closed = 1;
nodes = (
"413 453 LINE",
"260 453 LINE",
"294 613 LINE",
"293 624 OFFCURVE",
"280 631 OFFCURVE",
"264 631 CURVE SMOOTH",
"254 631 OFFCURVE",
"242 624 OFFCURVE",
"240 613 CURVE",
"206 453 LINE",
"101 453 LINE",
"89 452 OFFCURVE",
"82 438 OFFCURVE",
"82 423 CURVE SMOOTH",
"82 411 OFFCURVE",
"89 398 OFFCURVE",
"101 398 CURVE SMOOTH",
"195 398 LINE",
"160 233 LINE",
"61 233 LINE",
"49 232 OFFCURVE",
"42 218 OFFCURVE",
"42 203 CURVE SMOOTH",
"42 191 OFFCURVE",
"49 178 OFFCURVE",
"61 178 CURVE SMOOTH",
"148 178 LINE",
"115 19 LINE",
"116 7 OFFCURVE",
"130 0 OFFCURVE",
"145 0 CURVE SMOOTH",
"157 0 OFFCURVE",
"168 7 OFFCURVE",
"170 19 CURVE",
"203 178 LINE",
"359 178 LINE",
"325 18 LINE",
"326 7 OFFCURVE",
"339 0 OFFCURVE",
"355 0 CURVE SMOOTH",
"365 0 OFFCURVE",
"377 7 OFFCURVE",
"379 18 CURVE SMOOTH",
"413 178 LINE",
"515 178 LINE",
"527 178 OFFCURVE",
"534 191 OFFCURVE",
"534 203 CURVE SMOOTH",
"534 218 OFFCURVE",
"527 232 OFFCURVE",
"515 233 CURVE",
"423 233 LINE",
"458 398 LINE",
"555 398 LINE",
"567 398 OFFCURVE",
"574 411 OFFCURVE",
"574 423 CURVE SMOOTH",
"574 438 OFFCURVE",
"567 452 OFFCURVE",
"555 453 CURVE",
"469 453 LINE",
"503 612 LINE",
"502 624 OFFCURVE",
"488 631 OFFCURVE",
"474 631 CURVE SMOOTH",
"462 631 OFFCURVE",
"452 624 OFFCURVE",
"449 612 CURVE"
);
}
);
width = 616;
}
);
unicode = 0023;
},
{
color = 4;
glyphname = quotedbl;
lastChange = "2016-09-08 14:05:00 +0000";
layers = (
{
background = {
paths = (
{
closed = 1;
nodes = (
"111 408 LINE",
"111 402 LINE",
"100 397 LINE",
"93 397 LINE",
"87 397 LINE",
"75 403 LINE",
"75 408 LINE",
"74 428 LINE",
"64 481 LINE",
"54 537 LINE",
"45 593 LINE",
"45 617 LINE",
"45 648 LINE",
"66 688 LINE",
"93 688 LINE",
"120 688 LINE",
"140 649 LINE",
"140 618 LINE",
"140 594 LINE",
"132 538 LINE",
"121 481 LINE",
"112 428 LINE"
);
},
{
closed = 1;
nodes = (
"264 408 LINE",
"264 402 LINE",
"253 397 LINE",
"246 397 LINE",
"240 397 LINE",
"228 403 LINE",
"228 408 LINE",
"227 428 LINE",
"217 481 LINE",
"207 537 LINE",
"198 593 LINE",
"198 617 LINE",
"198 648 LINE",
"219 688 LINE",
"246 688 LINE",
"273 688 LINE",
"293 649 LINE",
"293 618 LINE",
"293 594 LINE",
"285 538 LINE",
"274 481 LINE",
"265 428 LINE"
);
}
);
};
layerId = UUID0;
paths = (
{
closed = 1;
nodes = (
"114 462 OFFCURVE",
"140 555 OFFCURVE",
"140 618 CURVE SMOOTH",
"140 659 OFFCURVE",
"129 688 OFFCURVE",
"93 688 CURVE SMOOTH",
"57 688 OFFCURVE",
"45 658 OFFCURVE",
"45 617 CURVE SMOOTH",
"45 553 OFFCURVE",
"72 462 OFFCURVE",
"75 408 CURVE SMOOTH",
"75 401 OFFCURVE",
"85 397 OFFCURVE",
"93 397 CURVE SMOOTH",
"102 397 OFFCURVE",
"111 400 OFFCURVE",
"111 408 CURVE SMOOTH"
);
},
{
closed = 1;
nodes = (
"267 462 OFFCURVE",
"293 555 OFFCURVE",
"293 618 CURVE SMOOTH",
"293 659 OFFCURVE",
"282 688 OFFCURVE",
"246 688 CURVE SMOOTH",
"210 688 OFFCURVE",
"198 658 OFFCURVE",
"198 617 CURVE SMOOTH",
"198 553 OFFCURVE",
"225 462 OFFCURVE",
"228 408 CURVE SMOOTH",
"228 401 OFFCURVE",
"238 397 OFFCURVE",
"246 397 CURVE SMOOTH",
"255 397 OFFCURVE",
"264 400 OFFCURVE",
"264 408 CURVE SMOOTH"
);
}
);
width = 339;
}
);
leftKerningGroup = quotesingle;
rightKerningGroup = quotesingle;
unicode = 0022;
},
{
color = 4;
glyphname = exclam;
lastChange = "2016-09-08 14:05:00 +0000";
layers = (
{
background = {
paths = (
{
closed = 1;
nodes = (
"130 -12 LINE",
"103 -12 LINE",
"67 23 LINE",
"67 52 LINE",
"67 78 LINE",
"103 115 LINE",
"131 115 LINE",
"159 115 LINE",
"195 78 LINE",
"195 52 LINE",
"195 23 LINE",
"159 -12 LINE"
);
},
{
closed = 1;
nodes = (
"155 221 LINE",
"155 213 LINE",
"140 207 LINE",
"131 207 LINE",
"123 207 LINE",
"107 214 LINE",
"107 221 LINE",
"107 252 LINE",
"98 338 LINE",
"86 433 LINE",
"77 529 LINE",
"77 570 LINE",
"77 621 LINE",
"100 687 LINE",
"131 687 LINE",
"162 687 LINE",
"185 621 LINE",
"185 570 LINE",
"185 529 LINE",
"176 433 LINE",
"164 338 LINE",
"155 252 LINE"
);
}
);
};
layerId = UUID0;
paths = (
{
closed = 1;
nodes = (
"168 -12 OFFCURVE",
"195 14 OFFCURVE",
"195 52 CURVE SMOOTH",
"195 87 OFFCURVE",
"168 115 OFFCURVE",
"131 115 CURVE SMOOTH",
"94 115 OFFCURVE",
"67 87 OFFCURVE",
"67 52 CURVE SMOOTH",
"67 14 OFFCURVE",
"94 -12 OFFCURVE",
"130 -12 CURVE SMOOTH"
);
},
{
closed = 1;
nodes = (
"155 303 OFFCURVE",
"185 461 OFFCURVE",
"185 570 CURVE SMOOTH",
"185 638 OFFCURVE",
"172 687 OFFCURVE",
"131 687 CURVE",
"90 687 OFFCURVE",
"77 638 OFFCURVE",
"77 570 CURVE SMOOTH",
"77 461 OFFCURVE",
"107 303 OFFCURVE",
"107 221 CURVE",
"107 212 OFFCURVE",
"121 207 OFFCURVE",
"131 207 CURVE SMOOTH",
"143 207 OFFCURVE",
"155 211 OFFCURVE",
"155 221 CURVE"
);
}
);
width = 262;
}
);
unicode = 0021;
},
{
color = 4;
glyphname = C;
lastChange = "2016-09-08 14:05:00 +0000";
layers = (
{
background = {
paths = (
{
closed = 1;
nodes = (
"596 510 LINE",
"596 489 LINE",
"583 450 LINE",
"557 420 LINE",
"518 402 LINE",
"494 402 LINE",
"479 402 LINE",
"458 411 LINE",
"445 423 LINE",
"440 435 LINE",
"440 438 LINE",
"440 440 LINE",
"456 449 LINE",
"474 466 LINE",
"490 493 LINE",
"490 513 LINE",
"490 558 LINE",
"430 611 LINE",
"375 611 LINE",
"330 611 LINE",
"253 572 LINE",
"197 497 LINE",
"166 388 LINE",
"166 317 LINE",
"166 257 LINE",
"199 152 LINE",
"259 74 LINE",
"343 29 LINE",
"394 29 LINE",
"448 29 LINE",
"524 73 LINE",
"556 124 LINE",
"565 141 LINE",
"588 127 LINE",
"597 121 LINE",
"607 104 LINE",
"600 95 LINE",
"571 59 LINE",
"520 14 LINE",
"465 -11 LINE",
"400 -20 LINE",
"358 -20 LINE",
"295 -20 LINE",
"183 25 LINE",
"98 111 LINE",
"49 234 LINE",
"49 311 LINE",
"49 387 LINE",
"95 513 LINE",
"180 602 LINE",
"301 651 LINE",
"376 651 LINE",
"412 651 LINE",
"490 637 LINE",
"555 604 LINE",
"596 550 LINE"
);
}
);
};
layerId = UUID0;
paths = (
{
closed = 1;
nodes = (
"596 616 OFFCURVE",
"473 651 OFFCURVE",
"376 651 CURVE SMOOTH",
"176 651 OFFCURVE",
"49 515 OFFCURVE",
"49 311 CURVE SMOOTH",
"49 105 OFFCURVE",
"190 -20 OFFCURVE",
"358 -20 CURVE SMOOTH",
"470 -20 OFFCURVE",
"524 -1 OFFCURVE",
"600 95 CURVE SMOOTH",
"609 107 OFFCURVE",
"600 119 OFFCURVE",
"588 127 CURVE SMOOTH",
"573 136 OFFCURVE",
"562 135 OFFCURVE",
"556 124 CURVE",
"514 57 OFFCURVE",
"466 29 OFFCURVE",
"394 29 CURVE SMOOTH",
"257 29 OFFCURVE",
"166 157 OFFCURVE",
"166 317 CURVE SMOOTH",
"166 506 OFFCURVE",
"254 611 OFFCURVE",
"375 611 CURVE SMOOTH",
"448 611 OFFCURVE",
"490 573 OFFCURVE",
"490 513 CURVE SMOOTH",
"490 460 OFFCURVE",
"440 444 OFFCURVE",
"440 438 CURVE SMOOTH",
"439 429 OFFCURVE",
"454 402 OFFCURVE",
"494 402 CURVE SMOOTH",
"559 402 OFFCURVE",
"597 453 OFFCURVE",
"596 510 CURVE"
);
}
);
width = 639;
}
);
leftKerningGroup = O;
rightKerningGroup = C;
unicode = 0043;
},
{
color = 4;
glyphname = B;
lastChange = "2016-09-08 14:05:00 +0000";
layers = (
{
background = {
paths = (
{
closed = 1;
nodes = (
"303 39 LINE",
"336 39 LINE",
"396 55 LINE",
"440 90 LINE",
"466 148 LINE",
"466 192 LINE",
"464 216 LINE",
"442 260 LINE",
"397 295 LINE",
"325 316 LINE",
"272 316 LINE",
"231 316 LINE",
"231 117 LINE",
"231 92 LINE",
"238 61 LINE",
"254 45 LINE",
"282 39 LINE"
);
},
{
closed = 1;
nodes = (
"231 594 LINE",
"231 356 LINE",
"273 356 LINE",
"293 356 LINE",
"344 360 LINE",
"388 382 LINE",
"418 430 LINE",
"418 475 LINE",
"418 528 LINE",
"367 594 LINE",
"301 594 LINE"
);
},
{
closed = 1;
nodes = (
"179 0 LINE",
"149 0 LINE",
"92 -1 LINE",
"60 -3 LINE",
"50 -3 LINE",
"42 11 LINE",
"42 19 LINE",
"43 36 LINE",
"56 40 LINE",
"67 40 LINE",
"91 40 LINE",
"117 53 LINE",
"129 75 LINE",
"132 103 LINE",
"132 117 LINE",
"132 514 LINE",
"132 528 LINE",
"129 556 LINE",
"117 578 LINE",
"91 591 LINE",
"67 591 LINE",
"56 591 LINE",
"43 595 LINE",
"42 612 LINE",
"42 620 LINE",
"50 634 LINE",
"60 634 LINE",
"92 632 LINE",
"148 631 LINE",
"178 631 LINE",
"319 631 LINE",
"377 631 LINE",
"443 614 LINE",
"469 598 LINE",
"495 581 LINE",
"525 522 LINE",
"525 487 LINE",
"525 453 LINE",
"500 402 LINE",
"460 366 LINE",
"412 344 LINE",
"390 339 LINE",
"390 336 LINE",
"430 336 LINE",
"497 313 LINE",
"545 273 LINE",
"573 221 LINE",
"574 192 LINE",
"575 135 LINE",
"523 61 LINE",
"442 17 LINE",
"344 -1 LINE",
"299 -1 LINE"
);
}
);
};
layerId = UUID0;
paths = (
{
closed = 1;
nodes = (
"247 39 OFFCURVE",
"231 50 OFFCURVE",
"231 117 CURVE SMOOTH",
"231 316 LINE",
"272 316 LINE SMOOTH",
"414 316 OFFCURVE",
"460 255 OFFCURVE",
"466 192 CURVE",
"466 76 OFFCURVE",
"392 40 OFFCURVE",
"303 39 CURVE SMOOTH"
);
},
{
closed = 1;
nodes = (
"301 594 LINE",
"389 594 OFFCURVE",
"418 545 OFFCURVE",
"418 475 CURVE SMOOTH",
"418 356 OFFCURVE",
"327 356 OFFCURVE",
"273 356 CURVE SMOOTH",
"231 356 LINE",
"231 594 LINE"
);
},
{
closed = 1;
nodes = (
"299 -1 LINE",
"418 -1 OFFCURVE",
"578 41 OFFCURVE",
"574 192 CURVE SMOOTH",
"572 269 OFFCURVE",
"496 337 OFFCURVE",
"390 336 CURVE",
"390 339 LINE",
"450 353 OFFCURVE",
"525 396 OFFCURVE",
"525 487 CURVE SMOOTH",
"525 533 OFFCURVE",
"504 575 OFFCURVE",
"469 598 CURVE SMOOTH",
"435 619 OFFCURVE",
"396 631 OFFCURVE",
"319 631 CURVE SMOOTH",
"178 631 LINE SMOOTH",
"138 631 OFFCURVE",
"103 632 OFFCURVE",
"60 634 CURVE SMOOTH",
"47 634 OFFCURVE",
"42 623 OFFCURVE",
"42 612 CURVE SMOOTH",
"43 589 OFFCURVE",
"53 591 OFFCURVE",
"67 591 CURVE SMOOTH",
"130 591 OFFCURVE",
"131 552 OFFCURVE",
"132 514 CURVE",
"132 117 LINE",
"131 79 OFFCURVE",
"130 40 OFFCURVE",
"67 40 CURVE SMOOTH",
"53 40 OFFCURVE",
"43 42 OFFCURVE",
"42 19 CURVE SMOOTH",
"42 8 OFFCURVE",
"47 -3 OFFCURVE",
"60 -3 CURVE SMOOTH",
"103 -1 OFFCURVE",
"139 0 OFFCURVE",
"179 0 CURVE SMOOTH"
);
}
);
width = 621;
}
);
leftKerningGroup = I;
unicode = 0042;
},
{
color = 4;
glyphname = V;
lastChange = "2016-09-08 14:05:00 +0000";
layers = (
{
background = {
paths = (
{
closed = 1;
nodes = (
"498 542 LINE",
"509 574 LINE",
"489 591 LINE",
"454 591 LINE",
"443 591 LINE",
"430 595 LINE",
"429 612 LINE",
"429 620 LINE",
"437 634 LINE",
"446 634 LINE",
"478 632 LINE",
"525 631 LINE",
"555 631 LINE",
"570 631 LINE",
"591 631 LINE",
"611 632 LINE",
"633 633 LINE",
"649 634 LINE",
"659 634 LINE",
"667 620 LINE",
"667 612 LINE",
"666 595 LINE",
"653 591 LINE",
"642 591 LINE",
"604 591 LINE",
"560 563 LINE",
"544 523 LINE",
"544 523 LINE",
"527 478 LINE",
"500 404 LINE",
"465 308 LINE",
"447 258 LINE",
"351 -10 LINE",
"304 -10 LINE",
"250 137 LINE",
"209 251 LINE",
"191 300 LINE",
"157 393 LINE",
"130 466 LINE",
"114 510 LINE",
"114 510 LINE",
"106 530 LINE",
"91 559 LINE",
"73 578 LINE",
"50 590 LINE",
"34 593 LINE",
"20 596 LINE",
"9 600 LINE",
"9 616 LINE",
"9 633 LINE",
"32 636 LINE",
"49 636 LINE",
"116 635 LINE",
"189 588 LINE",
"212 531 LINE",
"357 141 LINE",
"360 141 LINE"
);
}
);
};
layerId = UUID0;
paths = (
{
closed = 1;
nodes = (
"360 141 LINE",
"357 141 LINE",
"212 531 LINE SMOOTH",
"182 607 OFFCURVE",
"138 635 OFFCURVE",
"49 636 CURVE SMOOTH",
"27 636 OFFCURVE",
"9 639 OFFCURVE",
"9 616 CURVE SMOOTH",
"9 595 OFFCURVE",
"15 597 OFFCURVE",
"34 593 CURVE SMOOTH",
"77 585 OFFCURVE",
"92 564 OFFCURVE",
"114 510 CURVE",
"114 512 OFFCURVE",
"304 -10 OFFCURVE",
"304 -10 CURVE",
"351 -10 LINE",
"351 -10 OFFCURVE",
"544 526 OFFCURVE",
"544 523 CURVE",
"565 576 OFFCURVE",
"591 591 OFFCURVE",
"642 591 CURVE SMOOTH",
"656 591 OFFCURVE",
"666 589 OFFCURVE",
"667 612 CURVE SMOOTH",
"667 623 OFFCURVE",
"662 634 OFFCURVE",
"649 634 CURVE SMOOTH",
"606 632 OFFCURVE",
"595 631 OFFCURVE",
"555 631 CURVE SMOOTH",
"515 631 OFFCURVE",
"489 632 OFFCURVE",
"446 634 CURVE SMOOTH",
"434 634 OFFCURVE",
"429 623 OFFCURVE",
"429 612 CURVE SMOOTH",
"430 589 OFFCURVE",
"440 591 OFFCURVE",
"454 591 CURVE SMOOTH",
"500 591 OFFCURVE",
"513 584 OFFCURVE",
"498 542 CURVE"
);
}
);
width = 648;
}
);
unicode = 0056;
},
{
color = 4;
glyphname = A;
lastChange = "2016-09-08 14:05:00 +0000";
layers = (
{
anchors = (
{
name = top;
position = "{283, 650}";
}
);
background = {
paths = (
{
closed = 1;
nodes = (
"196 243 LINE",
"406 243 LINE",
"305 500 LINE",
"302 500 LINE"
);
},
{
closed = 1;
nodes = (
"236 637 LINE",
"267 637 LINE",
"314 628 LINE",
"351 606 LINE",
"381 564 LINE",
"395 531 LINE",
"563 117 LINE",
"568 104 LINE",
"580 77 LINE",
"596 55 LINE",
"618 40 LINE",
"634 40 LINE",
"645 40 LINE",
"658 36 LINE",
"659 19 LINE",
"659 11 LINE",
"650 -3 LINE",
"641 -3 LINE",
"609 -1 LINE",
"561 0 LINE",
"531 0 LINE",
"471 0 LINE",
"407 -3 LINE",
"397 -3 LINE",
"389 11 LINE",
"389 19 LINE",
"390 36 LINE",
"403 40 LINE",
"414 40 LINE",
"438 40 LINE",
"464 49 LINE",
"471 67 LINE",
"466 96 LINE",
"458 117 LINE",
"424 200 LINE",
"177 200 LINE",
"153 139 LINE",
"145 117 LINE",
"137 91 LINE",
"131 61 LINE",
"143 45 LINE",
"176 40 LINE",
"205 40 LINE",
"216 40 LINE",
"229 36 LINE",
"230 19 LINE",
"230 11 LINE",
"221 -3 LINE",
"212 -3 LINE",
"180 -1 LINE",
"133 0 LINE",
"103 0 LINE",
"88 0 LINE",
"66 0 LINE",
"45 -1 LINE",
"22 -2 LINE",
"6 -3 LINE",
"-4 -3 LINE",
"-12 11 LINE",
"-12 19 LINE",
"-11 36 LINE",
"2 40 LINE",
"13 40 LINE",
"33 40 LINE",
"58 53 LINE",
"75 75 LINE",
"87 103 LINE",
"93 117 LINE",
"268 531 LINE",
"275 549 LINE",
"271 571 LINE",
"256 585 LINE",
"233 592 LINE",
"221 594 LINE",
"206 597 LINE",
"196 602 LINE",
"196 617 LINE",
"196 634 LINE",
"219 637 LINE"
);
}
);
};
layerId = UUID0;
paths = (
{
closed = 1;
nodes = (
"302 500 LINE",
"305 500 LINE",
"406 243 LINE",
"196 243 LINE"
);
},
{
closed = 1;
nodes = (
"214 637 OFFCURVE",
"196 640 OFFCURVE",
"196 617 CURVE SMOOTH",
"196 597 OFFCURVE",
"201 598 OFFCURVE",
"221 594 CURVE SMOOTH",
"254 588 OFFCURVE",
"287 578 OFFCURVE",
"268 531 CURVE",
"93 117 LINE",
"76 79 OFFCURVE",
"66 39 OFFCURVE",
"13 40 CURVE",
"-1 40 OFFCURVE",
"-11 42 OFFCURVE",
"-12 19 CURVE SMOOTH",
"-12 8 OFFCURVE",
"-7 -3 OFFCURVE",
"6 -3 CURVE",
"49 -1 OFFCURVE",
"63 0 OFFCURVE",
"103 0 CURVE SMOOTH",
"143 0 OFFCURVE",
"169 -1 OFFCURVE",
"212 -3 CURVE",
"224 -3 OFFCURVE",
"230 8 OFFCURVE",
"230 19 CURVE SMOOTH",
"229 42 OFFCURVE",
"219 40 OFFCURVE",
"205 40 CURVE",
"127 40 OFFCURVE",
"123 49 OFFCURVE",
"145 117 CURVE SMOOTH",
"146 119 OFFCURVE",
"146 124 OFFCURVE",
"177 200 CURVE",
"424 200 LINE",
"458 117 LINE SMOOTH",
"477 62 OFFCURVE",
"479 40 OFFCURVE",
"414 40 CURVE",
"400 40 OFFCURVE",
"390 42 OFFCURVE",
"389 19 CURVE SMOOTH",
"389 8 OFFCURVE",
"394 -3 OFFCURVE",
"407 -3 CURVE",
"450 -1 OFFCURVE",
"491 0 OFFCURVE",
"531 0 CURVE SMOOTH",
"571 0 OFFCURVE",
"598 -1 OFFCURVE",
"641 -3 CURVE",
"653 -3 OFFCURVE",
"659 8 OFFCURVE",
"659 19 CURVE SMOOTH",
"658 42 OFFCURVE",
"648 40 OFFCURVE",
"634 40 CURVE",
"591 41 OFFCURVE",
"577 82 OFFCURVE",
"563 117 CURVE SMOOTH",
"395 531 LINE",
"359 620 OFFCURVE",
"318 636 OFFCURVE",
"236 637 CURVE SMOOTH"
);
}
);
width = 653;
}
);
leftKerningGroup = A;
rightKerningGroup = A;
unicode = 0041;
},
{
color = 4;
glyphname = paragraph.alt;
lastChange = "2016-09-08 14:05:00 +0000";
layers = (
{
background = {
paths = (
{
closed = 1;
nodes = (
"248 12 LINE",
"248 2 LINE",
"231 -10 LINE",
"221 -10 LINE",
"211 -10 LINE",
"194 2 LINE",
"194 12 LINE",
"194 375 LINE",
"109 379 LINE",
"14 470 LINE",
"14 542 LINE",
"14 579 LINE",
"40 640 LINE",
"89 684 LINE",
"158 709 LINE",
"202 709 LINE",
"425 709 LINE",
"435 709 LINE",
"450 705 LINE",
"451 687 LINE",
"451 679 LINE",
"441 664 LINE",
"432 664 LINE",
"391 664 LINE",
"391 12 LINE",
"391 2 LINE",
"374 -10 LINE",
"364 -10 LINE",
"354 -10 LINE",
"337 2 LINE",
"337 12 LINE",
"337 664 LINE",
"308 664 LINE",
"290 664 LINE",
"267 659 LINE",
"254 643 LINE",
"248 612 LINE",
"248 587 LINE"
);
}
);
};
layerId = UUID0;
paths = (
{
closed = 1;
nodes = (
"248 587 LINE",
"248 655 OFFCURVE",
"261 664 OFFCURVE",
"308 664 CURVE SMOOTH",
"337 664 LINE",
"337 12 LINE SMOOTH",
"337 -1 OFFCURVE",
"351 -10 OFFCURVE",
"364 -10 CURVE SMOOTH",
"377 -10 OFFCURVE",
"391 -1 OFFCURVE",
"391 12 CURVE SMOOTH",
"391 664 LINE",
"432 664 LINE SMOOTH",
"444 664 OFFCURVE",
"451 676 OFFCURVE",
"451 687 CURVE SMOOTH",
"450 711 OFFCURVE",
"438 709 OFFCURVE",
"425 709 CURVE SMOOTH",
"202 709 LINE SMOOTH",
"86 709 OFFCURVE",
"14 640 OFFCURVE",
"14 542 CURVE SMOOTH",
"14 447 OFFCURVE",
"82 380 OFFCURVE",
"194 375 CURVE",
"194 12 LINE SMOOTH",
"194 -1 OFFCURVE",
"208 -10 OFFCURVE",
"221 -10 CURVE SMOOTH",
"234 -10 OFFCURVE",
"248 -1 OFFCURVE",
"248 12 CURVE SMOOTH"
);
}
);
width = 486;
}
);
},
{
color = 4;
glyphname = emdash;
lastChange = "2016-09-08 14:05:00 +0000";
layers = (
{
background = {
paths = (
{
closed = 1;
nodes = (
"84 237 LINE",
"73 237 LINE",
"61 254 LINE",
"61 264 LINE",
"61 275 LINE",
"73 291 LINE",
"84 291 LINE",
"780 291 LINE",
"791 291 LINE",
"803 275 LINE",
"803 264 LINE",
"803 254 LINE",
"791 237 LINE",
"780 237 LINE"
);
}
);
};
layerId = UUID0;
paths = (
{
closed = 1;
nodes = (
"780 237 LINE SMOOTH",
"794 237 OFFCURVE",
"803 251 OFFCURVE",
"803 264 CURVE SMOOTH",
"803 278 OFFCURVE",
"794 291 OFFCURVE",
"780 291 CURVE SMOOTH",
"84 291 LINE SMOOTH",
"70 291 OFFCURVE",
"61 278 OFFCURVE",
"61 264 CURVE SMOOTH",
"61 251 OFFCURVE",
"70 237 OFFCURVE",
"84 237 CURVE"
);
}
);
width = 868;
}
);
leftKerningGroup = hyphen;
rightKerningGroup = hyphen;
unicode = 2014;
},
{
color = 4;
glyphname = endash;
lastChange = "2016-09-08 14:05:00 +0000";
layers = (
{
background = {
paths = (
{
closed = 1;
nodes = (
"84 237 LINE",
"73 237 LINE",
"61 254 LINE",
"61 264 LINE",
"61 275 LINE",
"73 291 LINE",
"84 291 LINE",
"470 291 LINE",
"481 291 LINE",
"493 275 LINE",
"493 264 LINE",
"493 254 LINE",
"481 237 LINE",
"470 237 LINE"
);
}
);
};
layerId = UUID0;
paths = (
{
closed = 1;
nodes = (
"470 237 LINE SMOOTH",
"484 237 OFFCURVE",
"493 251 OFFCURVE",
"493 264 CURVE SMOOTH",
"493 278 OFFCURVE",
"484 291 OFFCURVE",
"470 291 CURVE SMOOTH",
"84 291 LINE SMOOTH",
"70 291 OFFCURVE",
"61 278 OFFCURVE",
"61 264 CURVE SMOOTH",
"61 251 OFFCURVE",
"70 237 OFFCURVE",
"84 237 CURVE"
);
}
);
width = 558;
}
);
leftKerningGroup = hyphen;
rightKerningGroup = hyphen;
unicode = 2013;
},
{
color = 4;
glyphname = paragraph;
lastChange = "2016-09-08 14:05:00 +0000";
layers = (
{
background = {
paths = (
{
closed = 1;
nodes = (
"213 -153 LINE",
"179 -152 LINE",
"115 -120 LINE",
"101 -82 LINE",
"96 -65 LINE",
"99 -29 LINE",
"114 3 LINE",
"141 24 LINE",
"160 26 LINE",
"183 28 LINE",
"209 9 LINE",
"211 4 LINE",
"211 2 LINE",
"201 -7 LINE",
"190 -22 LINE",
"181 -43 LINE",
"182 -56 LINE",
"183 -72 LINE",
"199 -95 LINE",
"221 -110 LINE",
"247 -115 LINE",
"259 -113 LINE",
"282 -110 LINE",
"307 -59 LINE",
"319 8 LINE",
"321 80 LINE",
"321 104 LINE",
"321 220 LINE",
"276 218 LINE",
"182 237 LINE",
"106 286 LINE",
"57 370 LINE",
"57 433 LINE",
"57 469 LINE",
"81 540 LINE",
"142 596 LINE",
"245 631 LINE",
"324 631 LINE",
"483 631 LINE",
"494 631 LINE",
"512 627 LINE",
"513 607 LINE",
"513 599 LINE",
"502 583 LINE",
"492 583 LINE",
"382 583 LINE",
"382 84 LINE",
"382 48 LINE",
"368 -36 LINE",
"330 -108 LINE",
"264 -155 LINE"
);
}
);
};
layerId = UUID0;
paths = (
{
closed = 1;
nodes = (
"350 -158 OFFCURVE",
"382 -11 OFFCURVE",
"382 84 CURVE SMOOTH",
"382 583 LINE",
"492 583 LINE SMOOTH",
"505 583 OFFCURVE",
"513 596 OFFCURVE",
"513 607 CURVE SMOOTH",
"512 633 OFFCURVE",
"498 631 OFFCURVE",
"483 631 CURVE SMOOTH",
"324 631 LINE SMOOTH",
"114 631 OFFCURVE",
"57 529 OFFCURVE",
"57 433 CURVE SMOOTH",
"57 264 OFFCURVE",
"201 216 OFFCURVE",
"321 220 CURVE",
"321 104 LINE SMOOTH",
"321 39 OFFCURVE",
"321 -104 OFFCURVE",
"259 -113 CURVE SMOOTH",
"228 -118 OFFCURVE",
"185 -99 OFFCURVE",
"182 -56 CURVE SMOOTH",
"180 -20 OFFCURVE",
"210 -1 OFFCURVE",
"211 4 CURVE",
"208 11 OFFCURVE",
"190 29 OFFCURVE",
"160 26 CURVE SMOOTH",
"109 21 OFFCURVE",
"87 -37 OFFCURVE",
"101 -82 CURVE",
"120 -132 OFFCURVE",
"168 -152 OFFCURVE",
"213 -153 CURVE SMOOTH"
);
}
);
width = 542;
}
);
unicode = 00B6;
},
{
color = 4;
glyphname = backslash;
lastChange = "2016-09-08 14:05:00 +0000";
layers = (
{
background = {
paths = (
{
closed = 1;
nodes = (
"34 674 LINE",
"32 684 LINE",
"46 702 LINE",
"57 704 LINE",
"67 706 LINE",
"86 696 LINE",
"90 685 LINE",
"360 -166 LINE",
"362 -177 LINE",
"349 -193 LINE",
"338 -195 LINE",
"329 -197 LINE",
"310 -188 LINE",
"306 -177 LINE"
);
}
);
};
layerId = UUID0;
paths = (
{
closed = 1;
nodes = (
"306 -177 LINE SMOOTH",
"311 -191 OFFCURVE",
"326 -197 OFFCURVE",
"338 -195 CURVE SMOOTH",
"352 -192 OFFCURVE",
"363 -180 OFFCURVE",
"360 -166 CURVE",
"90 685 LINE SMOOTH",
"85 700 OFFCURVE",
"70 706 OFFCURVE",
"57 704 CURVE SMOOTH",
"42 701 OFFCURVE",
"31 687 OFFCURVE",
"34 674 CURVE"
);
}
);
width = 394;
}
);
unicode = 005C;
},
{
color = 4;
glyphname = underscore;
lastChange = "2016-09-08 14:05:00 +0000";
layers = (
{
background = {
paths = (
{
closed = 1;
nodes = (
"105 -123 LINE",
"94 -123 LINE",
"82 -106 LINE",
"82 -96 LINE",
"82 -85 LINE",
"94 -69 LINE",
"105 -69 LINE",
"563 -69 LINE",
"574 -69 LINE",
"586 -85 LINE",
"586 -96 LINE",
"586 -106 LINE",
"574 -123 LINE",
"563 -123 LINE"
);
}
);
};
layerId = UUID0;
paths = (
{
closed = 1;
nodes = (
"563 -123 LINE",
"577 -123 OFFCURVE",
"586 -109 OFFCURVE",
"586 -96 CURVE SMOOTH",
"586 -82 OFFCURVE",
"577 -69 OFFCURVE",
"563 -69 CURVE SMOOTH",
"105 -69 LINE SMOOTH",
"91 -69 OFFCURVE",
"82 -82 OFFCURVE",
"82 -96 CURVE SMOOTH",
"82 -109 OFFCURVE",
"91 -123 OFFCURVE",
"105 -123 CURVE SMOOTH"
);
}
);
width = 668;
}
);
unicode = 005F;
},
{
color = 4;
glyphname = asciicircum;
lastChange = "2016-09-08 14:05:00 +0000";
layers = (
{
background = {
paths = (
{
closed = 1;
nodes = (
"227 714 LINE",
"236 728 LINE",
"253 728 LINE",
"271 728 LINE",
"280 714 LINE",
"466 414 LINE",
"474 399 LINE",
"455 381 LINE",
"441 380 LINE",
"432 379 LINE",
"415 386 LINE",
"410 394 LINE",
"253 650 LINE",
"96 394 LINE",
"91 384 LINE",
"74 379 LINE",
"65 380 LINE",
"51 381 LINE",
"31 400 LINE",
"40 414 LINE"
);
}
);
};
layerId = UUID0;
paths = (
{
closed = 1;
nodes = (
"40 414 LINE SMOOTH",
"28 395 OFFCURVE",
"47 381 OFFCURVE",
"65 380 CURVE SMOOTH",
"77 379 OFFCURVE",
"89 381 OFFCURVE",
"96 394 CURVE",
"253 650 LINE",
"410 394 LINE SMOOTH",
"416 383 OFFCURVE",
"429 379 OFFCURVE",
"441 380 CURVE SMOOTH",
"459 381 OFFCURVE",
"477 394 OFFCURVE",
"466 414 CURVE",
"280 714 LINE SMOOTH",
"275 722 OFFCURVE",
"264 728 OFFCURVE",
"253 728 CURVE SMOOTH",
"242 728 OFFCURVE",
"233 723 OFFCURVE",
"227 714 CURVE"
);
}
);
width = 505;
}
);
unicode = 005E;
},
{
color = 4;
glyphname = bracketright;
lastChange = "2016-09-08 14:05:00 +0000";
layers = (
{
background = {
paths = (
{
closed = 1;
nodes = (
"57 685 LINE",
"34 685 LINE",
"34 706 LINE",
"34 728 LINE",
"57 728 LINE",
"201 728 LINE",
"219 728 LINE",
"243 724 LINE",
"257 709 LINE",
"263 682 LINE",
"263 661 LINE",
"263 -151 LINE",
"263 -172 LINE",
"257 -199 LINE",
"243 -214 LINE",
"219 -218 LINE",
"201 -218 LINE",
"57 -218 LINE",
"34 -218 LINE",
"34 -196 LINE",
"34 -175 LINE",
"57 -175 LINE",
"178 -175 LINE",
"188 -175 LINE",
"188 -163 LINE",
"188 673 LINE",
"188 685 LINE",
"178 685 LINE"
);
}
);
};
layerId = UUID0;
paths = (
{
closed = 1;
nodes = (
"178 685 LINE SMOOTH",
"185 685 OFFCURVE",
"188 682 OFFCURVE",
"188 673 CURVE SMOOTH",
"188 -163 LINE SMOOTH",
"188 -172 OFFCURVE",
"185 -175 OFFCURVE",
"178 -175 CURVE SMOOTH",
"57 -175 LINE SMOOTH",
"43 -175 OFFCURVE",
"34 -183 OFFCURVE",
"34 -196 CURVE SMOOTH",
"34 -210 OFFCURVE",
"43 -218 OFFCURVE",
"57 -218 CURVE SMOOTH",
"201 -218 LINE",
"250 -219 OFFCURVE",
"263 -208 OFFCURVE",
"263 -151 CURVE SMOOTH",
"263 661 LINE SMOOTH",
"263 718 OFFCURVE",
"250 729 OFFCURVE",
"201 728 CURVE",
"57 728 LINE SMOOTH",
"43 728 OFFCURVE",
"34 719 OFFCURVE",
"34 706 CURVE SMOOTH",
"34 692 OFFCURVE",
"43 685 OFFCURVE",
"57 685 CURVE"
);
}
);
width = 340;
}
);
unicode = 005D;
},
{
color = 4;
glyphname = bracketleft;
lastChange = "2016-09-08 14:05:00 +0000";
layers = (
{
background = {
paths = (
{
closed = 1;
nodes = (
"132 685 LINE",
"122 685 LINE",
"122 673 LINE",
"122 -163 LINE",
"122 -175 LINE",
"132 -175 LINE",
"253 -175 LINE",
"276 -175 LINE",
"276 -196 LINE",
"276 -218 LINE",
"253 -218 LINE",
"109 -218 LINE",
"91 -218 LINE",
"67 -214 LINE",
"53 -199 LINE",
"47 -172 LINE",
"47 -151 LINE",
"47 661 LINE",
"47 682 LINE",
"53 709 LINE",
"67 724 LINE",
"91 728 LINE",
"109 728 LINE",
"253 728 LINE",
"276 728 LINE",
"276 706 LINE",
"276 685 LINE",
"253 685 LINE"
);
}
);
};
layerId = UUID0;
paths = (
{
closed = 1;
nodes = (
"253 685 LINE",
"267 685 OFFCURVE",
"276 692 OFFCURVE",
"276 706 CURVE SMOOTH",
"276 719 OFFCURVE",
"267 728 OFFCURVE",
"253 728 CURVE",
"109 728 LINE",
"60 729 OFFCURVE",
"47 718 OFFCURVE",
"47 661 CURVE",
"47 -151 LINE SMOOTH",
"47 -208 OFFCURVE",
"60 -219 OFFCURVE",
"109 -218 CURVE",
"253 -218 LINE SMOOTH",
"267 -218 OFFCURVE",
"276 -210 OFFCURVE",
"276 -196 CURVE SMOOTH",
"276 -183 OFFCURVE",
"267 -175 OFFCURVE",
"253 -175 CURVE",
"132 -175 LINE",
"125 -175 OFFCURVE",
"122 -172 OFFCURVE",
"122 -163 CURVE",
"122 673 LINE",
"122 682 OFFCURVE",
"125 685 OFFCURVE",
"132 685 CURVE"
);
}
);
width = 310;
}
);
unicode = 005B;
},
{
color = 4;
glyphname = bar;
lastChange = "2016-09-08 14:05:00 +0000";
layers = (
{
background = {
paths = (
{
closed = 1;
nodes = (
"134 -195 LINE",
"134 -206 LINE",
"116 -218 LINE",
"106 -218 LINE",
"95 -218 LINE",
"78 -206 LINE",
"78 -195 LINE",
"78 705 LINE",
"78 716 LINE",
"95 728 LINE",
"106 728 LINE",
"116 728 LINE",
"134 716 LINE",
"134 705 LINE"
);
}
);
};
layerId = UUID0;
paths = (
{
closed = 1;
nodes = (
"134 705 LINE",
"134 719 OFFCURVE",
"119 728 OFFCURVE",
"106 728 CURVE SMOOTH",
"92 728 OFFCURVE",
"78 719 OFFCURVE",
"78 705 CURVE SMOOTH",
"78 -195 LINE",
"78 -209 OFFCURVE",
"92 -218 OFFCURVE",
"106 -218 CURVE SMOOTH",
"119 -218 OFFCURVE",
"134 -209 OFFCURVE",
"134 -195 CURVE"
);
}
);
width = 212;
}
);
unicode = 007C;
},
{
color = 4;
glyphname = braceright;
lastChange = "2016-09-08 14:05:00 +0000";
layers = (
{
background = {
paths = (
{
closed = 1;
nodes = (
"37 -218 LINE",
"27 -218 LINE",
"19 -207 LINE",
"20 -200 LINE",
"21 -189 LINE",
"32 -186 LINE",
"40 -184 LINE",
"64 -179 LINE",
"93 -161 LINE",
"108 -135 LINE",
"113 -104 LINE",
"113 -87 LINE",
"113 -63 LINE",
"109 -8 LINE",
"103 50 LINE",
"99 107 LINE",
"99 133 LINE",
"99 176 LINE",
"139 242 LINE",
"186 252 LINE",
"186 256 LINE",
"138 266 LINE",
"99 333 LINE",
"99 375 LINE",
"99 400 LINE",
"103 457 LINE",
"109 516 LINE",
"113 573 LINE",
"113 598 LINE",
"113 614 LINE",
"108 645 LINE",
"92 670 LINE",
"61 688 LINE",
"35 693 LINE",
"27 695 LINE",
"20 705 LINE",
"20 711 LINE",
"21 725 LINE",
"32 727 LINE",
"40 727 LINE",
"64 726 LINE",
"114 714 LINE",
"155 684 LINE",
"181 631 LINE",
"181 588 LINE",
"181 563 LINE",
"178 504 LINE",
"175 443 LINE",
"173 384 LINE",
"173 359 LINE",
"173 346 LINE",
"176 318 LINE",
"193 294 LINE",
"227 276 LINE",
"258 273 LINE",
"263 272 LINE",
"269 259 LINE",
"269 254 LINE",
"269 249 LINE",
"263 236 LINE",
"258 235 LINE",
"227 232 LINE",
"193 214 LINE",
"176 190 LINE",
"173 162 LINE",
"173 149 LINE",
"173 124 LINE",
"175 65 LINE",
"178 4 LINE",
"181 -57 LINE",
"181 -84 LINE",
"181 -126 LINE",
"154 -178 LINE",
"112 -207 LINE",
"61 -217 LINE"
);
}
);
};
layerId = UUID0;
paths = (
{
closed = 1;
nodes = (
"102 -216 OFFCURVE",
"181 -196 OFFCURVE",
"181 -84 CURVE SMOOTH",
"181 -12 OFFCURVE",
"173 83 OFFCURVE",
"173 149 CURVE SMOOTH",
"173 185 OFFCURVE",
"176 227 OFFCURVE",
"258 235 CURVE SMOOTH",
"265 236 OFFCURVE",
"269 247 OFFCURVE",
"269 254 CURVE SMOOTH",
"269 260 OFFCURVE",
"265 272 OFFCURVE",
"258 273 CURVE SMOOTH",
"176 281 OFFCURVE",
"173 324 OFFCURVE",
"173 359 CURVE SMOOTH",
"173 426 OFFCURVE",
"181 522 OFFCURVE",
"181 588 CURVE SMOOTH",
"181 702 OFFCURVE",
"104 724 OFFCURVE",
"40 727 CURVE SMOOTH",
"30 727 OFFCURVE",
"21 729 OFFCURVE",
"20 711 CURVE SMOOTH",
"20 703 OFFCURVE",
"24 695 OFFCURVE",
"35 693 CURVE SMOOTH",
"104 681 OFFCURVE",
"113 642 OFFCURVE",
"113 598 CURVE SMOOTH",
"113 532 OFFCURVE",
"99 441 OFFCURVE",
"99 375 CURVE SMOOTH",
"99 319 OFFCURVE",
"123 269 OFFCURVE",
"186 256 CURVE",
"186 252 LINE",
"124 239 OFFCURVE",
"99 190 OFFCURVE",
"99 133 CURVE SMOOTH",
"99 65 OFFCURVE",
"113 -24 OFFCURVE",
"113 -87 CURVE SMOOTH",
"113 -133 OFFCURVE",
"105 -171 OFFCURVE",
"40 -184 CURVE SMOOTH",
"30 -186 OFFCURVE",
"21 -186 OFFCURVE",
"20 -200 CURVE SMOOTH",
"19 -209 OFFCURVE",
"24 -218 OFFCURVE",
"37 -218 CURVE SMOOTH"
);
}
);
width = 286;
}
);
unicode = 007D;
},
{
color = 4;
glyphname = degree;
lastChange = "2016-09-08 14:05:00 +0000";
layers = (
{
background = {
paths = (
{
closed = 1;
nodes = (
"203 633 LINE",
"240 633 LINE",
"301 608 LINE",
"345 567 LINE",
"369 514 LINE",
"369 485 LINE",
"369 447 LINE",
"338 389 LINE",
"289 349 LINE",
"230 328 LINE",
"203 328 LINE",
"165 328 LINE",
"104 353 LINE",
"61 394 LINE",
"37 447 LINE",
"37 476 LINE",
"37 514 LINE",
"67 572 LINE",
"115 612 LINE",
"174 633 LINE"
);
},
{
closed = 1;
nodes = (
"203 359 LINE",
"228 359 LINE",
"261 379 LINE",
"281 414 LINE",
"290 459 LINE",
"290 485 LINE",
"290 509 LINE",
"281 552 LINE",
"260 583 LINE",
"227 602 LINE",
"203 602 LINE",
"178 602 LINE",
"144 583 LINE",
"124 549 LINE",
"115 504 LINE",
"115 478 LINE",
"115 454 LINE",
"124 411 LINE",
"145 378 LINE",
"178 359 LINE"
);
}
);
};
layerId = UUID0;
paths = (
{
closed = 1;
nodes = (
"127 633 OFFCURVE",
"37 577 OFFCURVE",
"37 476 CURVE SMOOTH",
"37 400 OFFCURVE",
"103 328 OFFCURVE",
"203 328 CURVE SMOOTH",
"276 328 OFFCURVE",
"369 384 OFFCURVE",
"369 485 CURVE SMOOTH",
"369 562 OFFCURVE",
"302 633 OFFCURVE",
"203 633 CURVE SMOOTH"
);
},
{
closed = 1;
nodes = (
"137 359 OFFCURVE",
"115 414 OFFCURVE",
"115 478 CURVE SMOOTH",
"115 547 OFFCURVE",
"136 602 OFFCURVE",
"203 602 CURVE SMOOTH",
"267 602 OFFCURVE",
"290 549 OFFCURVE",
"290 485 CURVE SMOOTH",
"290 417 OFFCURVE",
"269 359 OFFCURVE",
"203 359 CURVE SMOOTH"
);
}
);
width = 405;
}
);
unicode = 00B0;
},
{
color = 4;
glyphname = sterling;
lastChange = "2016-09-08 14:05:00 +0000";
layers = (
{
background = {
paths = (
{
closed = 1;
nodes = (
"64 0 LINE",
"54 0 LINE",
"44 15 LINE",
"44 27 LINE",
"44 38 LINE",
"54 56 LINE",
"64 60 LINE",
"91 69 LINE",
"126 106 LINE",
"146 155 LINE",
"153 212 LINE",
"153 241 LINE",
"100 241 LINE",
"91 241 LINE",
"81 252 LINE",
"81 259 LINE",
"81 266 LINE",
"91 279 LINE",
"99 280 LINE",
"153 280 LINE",
"153 287 LINE",
"151 312 LINE",
"148 339 LINE",
"146 366 LINE",
"146 376 LINE",
"146 416 LINE",
"174 486 LINE",
"223 537 LINE",
"292 566 LINE",
"334 566 LINE",
"349 566 LINE",
"394 560 LINE",
"437 543 LINE",
"473 510 LINE",
"480 483 LINE",
"484 466 LINE",
"479 431 LINE",
"462 402 LINE",
"433 384 LINE",
"414 384 LINE",
"392 384 LINE",
"368 406 LINE",
"368 411 LINE",
"368 412 LINE",
"378 420 LINE",
"391 434 LINE",
"401 453 LINE",
"401 466 LINE",
"401 497 LINE",
"360 528 LINE",
"332 529 LINE",
"319 529 LINE",
"286 521 LINE",
"256 498 LINE",
"235 455 LINE",
"235 420 LINE",
"235 409 LINE",
"236 371 LINE",
"238 330 LINE",
"239 292 LINE",
"239 280 LINE",
"382 280 LINE",
"390 279 LINE",
"400 266 LINE",
"400 259 LINE",
"400 252 LINE",
"390 241 LINE",
"381 241 LINE",
"239 241 LINE",
"239 189 LINE",
"190 102 LINE",
"142 71 LINE",
"445 71 LINE",
"465 71 LINE",
"493 62 LINE",
"493 36 LINE",
"493 19 LINE",
"477 0 LINE",
"458 0 LINE"
);
}
);
};
layerId = UUID0;
paths = (
{
closed = 1;
nodes = (
"458 0 LINE",
"483 0 OFFCURVE",
"493 14 OFFCURVE",
"493 36 CURVE SMOOTH",
"493 71 OFFCURVE",
"471 71 OFFCURVE",
"445 71 CURVE",
"142 71 LINE",
"205 112 OFFCURVE",
"239 172 OFFCURVE",
"239 241 CURVE",
"381 241 LINE",
"393 241 OFFCURVE",
"400 250 OFFCURVE",
"400 259 CURVE SMOOTH",
"400 268 OFFCURVE",
"393 279 OFFCURVE",
"382 280 CURVE",
"239 280 LINE",
"239 312 OFFCURVE",
"235 390 OFFCURVE",
"235 420 CURVE SMOOTH",
"235 514 OFFCURVE",
"298 529 OFFCURVE",
"332 529 CURVE",
"369 528 OFFCURVE",
"401 507 OFFCURVE",
"401 466 CURVE SMOOTH",
"401 431 OFFCURVE",
"368 415 OFFCURVE",
"368 411 CURVE SMOOTH",
"368 404 OFFCURVE",
"385 384 OFFCURVE",
"414 384 CURVE SMOOTH",
"465 384 OFFCURVE",
"491 438 OFFCURVE",
"480 483 CURVE SMOOTH",
"462 556 OFFCURVE",
"375 565 OFFCURVE",
"334 566 CURVE",
"223 566 OFFCURVE",
"146 484 OFFCURVE",
"146 376 CURVE SMOOTH",
"146 349 OFFCURVE",
"153 300 OFFCURVE",
"153 280 CURVE",
"99 280 LINE",
"88 279 OFFCURVE",
"81 268 OFFCURVE",
"81 259 CURVE SMOOTH",
"81 250 OFFCURVE",
"88 241 OFFCURVE",
"100 241 CURVE SMOOTH",
"153 241 LINE",
"153 163 OFFCURVE",
"137 85 OFFCURVE",
"64 60 CURVE",
"51 55 OFFCURVE",
"44 41 OFFCURVE",
"44 27 CURVE SMOOTH",
"44 11 OFFCURVE",
"51 0 OFFCURVE",
"64 0 CURVE"
);
}
);
width = 545;
}
);
unicode = 00A3;
},
{
color = 4;
glyphname = section;
lastChange = "2016-09-08 14:05:00 +0000";
layers = (
{
background = {
paths = (
{
closed = 1;
nodes = (
"193 538 LINE",
"198 516 LINE",
"235 458 LINE",
"284 389 LINE",
"338 310 LINE",
"384 224 LINE",
"414 133 LINE",
"414 87 LINE",
"414 36 LINE",
"383 -52 LINE",
"324 -116 LINE",
"240 -153 LINE",
"187 -153 LINE",
"169 -153 LINE",
"128 -142 LINE",
"94 -119 LINE",
"71 -82 LINE",
"71 -55 LINE",
"71 -25 LINE",
"106 26 LINE",
"141 26 LINE",
"161 26 LINE",
"183 9 LINE",
"185 4 LINE",
"185 2 LINE",
"176 -7 LINE",
"165 -21 LINE",
"156 -40 LINE",
"156 -52 LINE",
"156 -67 LINE",
"168 -91 LINE",
"188 -106 LINE",
"212 -114 LINE",
"223 -114 LINE",
"251 -114 LINE",
"279 -79 LINE",
"279 -56 LINE",
"279 -31 LINE",
"246 27 LINE",
"196 100 LINE",
"137 185 LINE",
"87 276 LINE",
"54 373 LINE",
"54 422 LINE",
"54 484 LINE",
"94 571 LINE",
"158 625 LINE",
"241 650 LINE",
"283 650 LINE",
"301 650 LINE",
"341 639 LINE",
"376 615 LINE",
"399 578 LINE",
"399 552 LINE",
"399 522 LINE",
"364 471 LINE",
"329 471 LINE",
"309 471 LINE",
"287 488 LINE",
"285 493 LINE",
"285 494 LINE",
"294 503 LINE",
"305 517 LINE",
"314 536 LINE",
"314 548 LINE",
"314 564 LINE",
"301 587 LINE",
"282 603 LINE",
"258 611 LINE",
"247 611 LINE",
"220 611 LINE",
"191 578 LINE",
"191 555 LINE",
"191 551 LINE",
"192 543 LINE"
);
},
{
closed = 1;
nodes = (
"139 564 LINE",
"122 536 LINE",
"109 471 LINE",
"109 442 LINE",
"109 382 LINE",
"162 256 LINE",
"234 133 LINE",
"307 14 LINE",
"327 -40 LINE",
"343 -10 LINE",
"356 54 LINE",
"356 82 LINE",
"356 144 LINE",
"300 262 LINE",
"226 380 LINE",
"155 500 LINE"
);
}
);
};
layerId = UUID0;
paths = (
{
closed = 1;
nodes = (
"181 393 OFFCURVE",
"356 247 OFFCURVE",
"356 82 CURVE SMOOTH",
"356 45 OFFCURVE",
"348 0 OFFCURVE",
"327 -40 CURVE",
"274 104 OFFCURVE",
"109 281 OFFCURVE",
"109 442 CURVE SMOOTH",
"109 481 OFFCURVE",
"116 527 OFFCURVE",
"139 564 CURVE"
);
},
{
closed = 1;
nodes = (
"185 572 OFFCURVE",
"201 605 OFFCURVE",
"237 610 CURVE SMOOTH",
"268 615 OFFCURVE",
"311 596 OFFCURVE",
"314 553 CURVE SMOOTH",
"316 517 OFFCURVE",
"286 498 OFFCURVE",
"285 493 CURVE",
"288 486 OFFCURVE",
"306 468 OFFCURVE",
"336 471 CURVE SMOOTH",
"387 476 OFFCURVE",
"409 534 OFFCURVE",
"395 579 CURVE",
"376 629 OFFCURVE",
"328 649 OFFCURVE",
"283 650 CURVE",
"170 650 OFFCURVE",
"54 588 OFFCURVE",
"54 422 CURVE SMOOTH",
"54 319 OFFCURVE",
"116 217 OFFCURVE",
"175 130 CURVE SMOOTH",
"222 60 OFFCURVE",
"261 15 OFFCURVE",
"275 -29 CURVE SMOOTH",
"288 -68 OFFCURVE",
"273 -107 OFFCURVE",
"233 -113 CURVE SMOOTH",
"202 -118 OFFCURVE",
"159 -99 OFFCURVE",
"156 -56 CURVE SMOOTH",
"154 -20 OFFCURVE",
"184 -1 OFFCURVE",
"185 4 CURVE",
"182 11 OFFCURVE",
"164 29 OFFCURVE",
"134 26 CURVE SMOOTH",
"83 21 OFFCURVE",
"61 -37 OFFCURVE",
"75 -82 CURVE",
"94 -132 OFFCURVE",
"142 -152 OFFCURVE",
"187 -153 CURVE",
"279 -153 OFFCURVE",
"339 -111 OFFCURVE",
"376 -51 CURVE SMOOTH",
"398 -16 OFFCURVE",
"414 29 OFFCURVE",
"414 87 CURVE SMOOTH",
"414 190 OFFCURVE",
"352 292 OFFCURVE",
"293 379 CURVE SMOOTH",
"246 449 OFFCURVE",
"204 493 OFFCURVE",
"193 538 CURVE SMOOTH"
);
}
);
width = 469;
}
);
unicode = 00A7;
},
{
color = 4;
glyphname = bullet;
lastChange = "2016-09-08 14:05:00 +0000";
layers = (
{
background = {
paths = (
{
closed = 1;
nodes = (
"212 153 LINE",
"160 153 LINE",
"90 220 LINE",
"90 276 LINE",
"90 301 LINE",
"109 344 LINE",
"142 377 LINE",
"187 396 LINE",
"213 396 LINE",
"240 396 LINE",
"285 377 LINE",
"319 344 LINE",
"338 301 LINE",
"338 276 LINE",
"338 248 LINE",
"319 203 LINE",
"285 171 LINE",
"239 153 LINE"
);
}
);
};
layerId = UUID0;
paths = (
{
closed = 1;
nodes = (
"284 153 OFFCURVE",
"338 202 OFFCURVE",
"338 276 CURVE SMOOTH",
"338 342 OFFCURVE",
"284 396 OFFCURVE",
"213 396 CURVE SMOOTH",
"143 396 OFFCURVE",
"90 342 OFFCURVE",
"90 276 CURVE SMOOTH",
"90 202 OFFCURVE",
"143 153 OFFCURVE",
"212 153 CURVE SMOOTH"
);
}
);
width = 427;
}
);
unicode = 2022;
},
{
color = 4;
glyphname = quoteright;
lastChange = "2016-09-08 14:05:00 +0000";
layers = (
{
background = {
paths = (
{
closed = 1;
nodes = (
"58 678 LINE",
"58 697 LINE",
"87 728 LINE",
"108 728 LINE",
"130 728 LINE",
"167 707 LINE",
"194 672 LINE",
"209 630 LINE",
"209 609 LINE",
"209 578 LINE",
"182 529 LINE",
"140 493 LINE",
"87 468 LINE",
"61 461 LINE",
"53 458 LINE",
"42 465 LINE",
"37 477 LINE",
"40 489 LINE",
"48 492 LINE",
"90 508 LINE",
"133 551 LINE",
"133 581 LINE",
"133 599 LINE",
"110 621 LINE",
"81 640 LINE",
"58 661 LINE"
);
}
);
};
layerId = UUID0;
paths = (
{
closed = 1;
nodes = (
"58 632 OFFCURVE",
"133 630 OFFCURVE",
"133 581 CURVE SMOOTH",
"133 541 OFFCURVE",
"104 513 OFFCURVE",
"48 492 CURVE SMOOTH",
"28 484 OFFCURVE",
"41 454 OFFCURVE",
"61 461 CURVE",
"130 481 OFFCURVE",
"209 526 OFFCURVE",
"209 609 CURVE SMOOTH",
"209 665 OFFCURVE",
"166 728 OFFCURVE",
"108 728 CURVE SMOOTH",
"80 728 OFFCURVE",
"58 703 OFFCURVE",
"58 678 CURVE SMOOTH"
);
}
);
width = 239;
}
);
leftKerningGroup = quoteright;
rightKerningGroup = quoteright;
unicode = 2019;
},
